<svg width="393" height="598" viewBox="0 0 393 598" fill="none" xmlns="http://www.w3.org/2000/svg">
<g filter="url(#filter0_ddd_30_779)">
<mask id="path-1-outside-1_30_779" maskUnits="userSpaceOnUse" x="47" y="15" width="299" height="404" fill="black">
<rect fill="white" x="47" y="15" width="299" height="404"/>
<path d="M48 38C48 25.8497 57.8497 16 70 16H323C335.15 16 345 25.8497 345 38V396C345 408.15 335.15 418 323 418H70C57.8497 418 48 408.15 48 396V38Z"/>
</mask>
<path d="M48 38C48 25.8497 57.8497 16 70 16H323C335.15 16 345 25.8497 345 38V396C345 408.15 335.15 418 323 418H70C57.8497 418 48 408.15 48 396V38Z" fill="#E1E1E1"/>
<path d="M70 16V17H323V16V15H70V16ZM345 38H344V396H345H346V38H345ZM323 418V417H70V418V419H323V418ZM48 396H49V38H48H47V396H48ZM70 418V417C58.402 417 49 407.598 49 396H48H47C47 408.703 57.2975 419 70 419V418ZM345 396H344C344 407.598 334.598 417 323 417V418V419C335.703 419 346 408.703 346 396H345ZM323 16V17C334.598 17 344 26.402 344 38H345H346C346 25.2975 335.703 15 323 15V16ZM70 16V15C57.2975 15 47 25.2974 47 38H48H49C49 26.402 58.402 17 70 17V16Z" fill="#241B28" fill-opacity="0.16" mask="url(#path-1-outside-1_30_779)"/>
<path d="M85.6664 57.3333C85.6664 59.5312 86.5527 61.522 87.9874 62.9679C88.1258 63.1074 88.1949 63.1771 88.2358 63.2442C88.2748 63.3081 88.2974 63.3632 88.3148 63.4361C88.3331 63.5124 88.3331 63.5993 88.3331 63.7731V66.9333C88.3331 67.3067 88.3331 67.4934 88.4057 67.636C88.4697 67.7614 88.5716 67.8634 88.6971 67.9273C88.8397 68 89.0264 68 89.3997 68H91.9331C92.3064 68 92.4931 68 92.6357 67.9273C92.7612 67.8634 92.8632 67.7614 92.9271 67.636C92.9997 67.4934 92.9997 67.3067 92.9997 66.9333V66.4C92.9997 66.0266 92.9997 65.8399 93.0724 65.6973C93.1363 65.5719 93.2383 65.4699 93.3638 65.406C93.5064 65.3333 93.693 65.3333 94.0664 65.3333H95.9331C96.3064 65.3333 96.4931 65.3333 96.6357 65.406C96.7612 65.4699 96.8632 65.5719 96.9271 65.6973C96.9997 65.8399 96.9997 66.0266 96.9997 66.4V66.9333C96.9997 67.3067 96.9997 67.4934 97.0724 67.636C97.1363 67.7614 97.2383 67.8634 97.3638 67.9273C97.5064 68 97.693 68 98.0664 68H100.6C100.973 68 101.16 68 101.302 67.9273C101.428 67.8634 101.53 67.7614 101.594 67.636C101.667 67.4934 101.667 67.3067 101.667 66.9333V65.6324C101.667 65.363 101.667 65.2283 101.705 65.1202C101.742 65.0165 101.788 64.944 101.866 64.867C101.948 64.7867 102.087 64.7222 102.365 64.5934C103.674 63.9854 104.792 63.0334 105.601 61.8536C105.744 61.6461 105.815 61.5423 105.891 61.4811C105.964 61.4225 106.029 61.3881 106.118 61.3613C106.212 61.3333 106.323 61.3333 106.545 61.3333H107.267C107.64 61.3333 107.827 61.3333 107.969 61.2607C108.095 61.1968 108.197 61.0948 108.261 60.9693C108.333 60.8267 108.333 60.64 108.333 60.2667V55.7143C108.333 55.3589 108.333 55.1812 108.267 55.044C108.202 54.908 108.092 54.7982 107.956 54.7327C107.819 54.6667 107.641 54.6667 107.286 54.6667C107.028 54.6667 106.9 54.6667 106.796 54.6317C106.684 54.5941 106.606 54.544 106.525 54.4584C106.45 54.379 106.388 54.2462 106.266 53.9806C105.872 53.1283 105.332 52.357 104.679 51.6987C104.54 51.5593 104.471 51.4896 104.43 51.4225C104.391 51.3585 104.369 51.3034 104.351 51.2306C104.333 51.1542 104.333 51.0673 104.333 50.8936V49.4141C104.333 48.934 104.333 48.694 104.233 48.5327C104.146 48.3913 104.008 48.2878 103.848 48.2425C103.666 48.1907 103.435 48.2566 102.973 48.3885L99.8101 49.2923C99.7563 49.3077 99.7294 49.3153 99.7021 49.3207C99.6778 49.3255 99.6533 49.3289 99.6286 49.331C99.6009 49.3333 99.5729 49.3333 99.517 49.3333H98.9452M85.6664 57.3333C85.6664 54.2612 87.398 51.5936 89.9385 50.2532M85.6664 57.3333H84.3332C82.8604 57.3333 81.6665 56.1394 81.6665 54.6667C81.6665 53.6796 82.2028 52.8178 82.9998 52.3568M98.9998 48.6667C98.9998 51.244 96.9105 53.3333 94.3332 53.3333C91.7558 53.3333 89.6665 51.244 89.6665 48.6667C89.6665 46.0893 91.7558 44 94.3332 44C96.9105 44 98.9998 46.0893 98.9998 48.6667Z" stroke="#553860" stroke-width="2.5" stroke-linecap="round" stroke-linejoin="round"/>
<path d="M123.192 57.804H119.448L118.648 63.5H115.544L117.592 48.972H125.176L124.824 51.468H120.344L119.768 55.436H123.512L123.192 57.804ZM129.521 46.892C130.012 46.892 130.385 47.0627 130.641 47.404C130.919 47.7453 131.015 48.1827 130.929 48.716C130.865 49.228 130.652 49.6547 130.289 49.996C129.927 50.316 129.5 50.476 129.009 50.476C128.54 50.476 128.167 50.316 127.889 49.996C127.612 49.6547 127.505 49.228 127.569 48.716C127.676 48.1827 127.911 47.7453 128.273 47.404C128.636 47.0627 129.052 46.892 129.521 46.892ZM128.657 63.5H125.681L127.217 52.364L130.289 51.948L128.657 63.5ZM132.989 52.172H135.613L135.485 53.612H135.549C135.655 53.548 135.805 53.42 135.997 53.228C136.21 53.036 136.477 52.844 136.797 52.652C137.586 52.1613 138.365 51.916 139.133 51.916C140.199 51.916 140.903 52.236 141.245 52.876C141.586 53.516 141.661 54.508 141.469 55.852L140.381 63.5H137.469L138.397 56.588C138.503 55.7773 138.493 55.2333 138.365 54.956C138.237 54.6573 137.949 54.508 137.501 54.508C137.117 54.508 136.765 54.6253 136.445 54.86C135.847 55.3293 135.517 55.628 135.453 55.756L134.365 63.5H131.389L132.989 52.172ZM150.995 51.468H148.051L146.355 63.5H143.283L144.947 51.468H141.971L142.291 48.972H151.379L150.995 51.468ZM154.873 63.5H151.897L153.497 52.172H156.121L156.025 53.676H156.057C156.377 53.164 156.783 52.7373 157.273 52.396C157.764 52.0547 158.191 51.884 158.553 51.884C158.916 51.884 159.151 51.916 159.257 51.98C159.385 52.0227 159.503 52.0653 159.609 52.108L159.001 54.7C158.873 54.6787 158.703 54.636 158.489 54.572C158.297 54.508 158.073 54.476 157.817 54.476C157.561 54.476 157.295 54.5613 157.017 54.732C156.74 54.9027 156.388 55.18 155.961 55.564L154.873 63.5ZM167.324 54.316C166.94 54.2733 166.438 54.252 165.82 54.252C165.201 54.252 164.678 54.508 164.252 55.02C163.846 55.532 163.548 56.46 163.356 57.804C163.185 59.1267 163.196 60.0333 163.388 60.524C163.601 61.0147 164.006 61.26 164.604 61.26C164.966 61.26 165.318 61.1533 165.66 60.94C166.022 60.7053 166.31 60.46 166.524 60.204L167.324 54.316ZM166.524 62.156C165.308 63.244 164.124 63.788 162.972 63.788C161.308 63.788 160.358 62.7533 160.124 60.684C160.038 59.9587 160.07 59.0627 160.22 57.996C160.369 56.908 160.625 55.98 160.988 55.212C161.35 54.444 161.777 53.8147 162.268 53.324C163.185 52.428 164.326 51.98 165.692 51.98C167.313 51.98 168.945 52.14 170.588 52.46L169.02 63.5H166.524V62.156ZM178.944 54.572C178.24 54.3373 177.643 54.22 177.152 54.22C176.406 54.22 175.819 54.5187 175.392 55.116C174.966 55.692 174.656 56.6307 174.464 57.932C174.294 59.212 174.347 60.1187 174.624 60.652C174.923 61.164 175.339 61.42 175.872 61.42C176.427 61.42 176.907 61.3453 177.312 61.196C177.718 61.0253 177.995 60.9187 178.144 60.876L178.56 62.732C177.387 63.436 176.267 63.788 175.2 63.788C172.128 63.788 170.859 61.8573 171.392 57.996C171.926 53.9427 173.814 51.916 177.056 51.916C177.974 51.916 178.827 52.0653 179.616 52.364L178.944 54.572ZM182.182 47.628L185.19 47.212L183.814 57.068L187.366 52.172H190.726L186.342 57.228L189.478 63.5H185.958L183.654 58.092L182.918 63.5H179.942L182.182 47.628Z" fill="#553860"/>
<rect x="239" y="40" width="75" height="32" rx="8" fill="#664373"/>
<path d="M258.988 60V51.082H265.943V52.525H260.678V54.722H265.371V56.165H260.678V58.557H266.021V60H258.988ZM267.579 60V53.162H268.905L269.035 54.072H269.126C269.282 53.864 269.464 53.682 269.672 53.526C269.889 53.3613 270.132 53.2357 270.4 53.149C270.678 53.0537 270.981 53.006 271.31 53.006C271.744 53.006 272.125 53.084 272.454 53.24C272.792 53.396 273.057 53.6473 273.247 53.994C273.438 54.3407 273.533 54.8043 273.533 55.385V60H271.934V55.671C271.934 55.4283 271.904 55.229 271.843 55.073C271.791 54.9083 271.709 54.7783 271.596 54.683C271.492 54.579 271.362 54.5053 271.206 54.462C271.05 54.4187 270.877 54.397 270.686 54.397C270.4 54.397 270.14 54.4663 269.906 54.605C269.681 54.7437 269.499 54.9343 269.36 55.177C269.23 55.4197 269.165 55.7013 269.165 56.022V60H267.579ZM276.978 60.156C276.554 60.156 276.22 60.0737 275.977 59.909C275.735 59.7357 275.561 59.519 275.457 59.259C275.362 58.9903 275.314 58.7173 275.314 58.44V54.462H274.495V53.162H275.353L275.639 51.251H276.9V53.162H278.083V54.462H276.9V58.284C276.9 58.466 276.948 58.609 277.043 58.713C277.139 58.8083 277.282 58.856 277.472 58.856H278.083V59.948C277.997 59.9827 277.888 60.013 277.758 60.039C277.637 60.0737 277.507 60.0997 277.368 60.117C277.23 60.143 277.1 60.156 276.978 60.156ZM279.259 60V53.162H280.585L280.715 54.241H280.806C280.893 54.0243 280.997 53.825 281.118 53.643C281.248 53.4523 281.413 53.3007 281.612 53.188C281.811 53.0667 282.054 53.006 282.34 53.006C282.479 53.006 282.604 53.019 282.717 53.045C282.838 53.071 282.929 53.097 282.99 53.123V54.618H282.509C282.24 54.618 282.002 54.657 281.794 54.735C281.586 54.8043 281.408 54.917 281.261 55.073C281.122 55.229 281.018 55.424 280.949 55.658C280.88 55.892 280.845 56.165 280.845 56.477V60H279.259ZM285.597 60.156C285.406 60.156 285.185 60.13 284.934 60.078C284.691 60.0347 284.453 59.948 284.219 59.818C283.994 59.688 283.807 59.4973 283.66 59.246C283.513 58.986 283.439 58.648 283.439 58.232C283.439 57.764 283.543 57.3783 283.751 57.075C283.959 56.763 284.249 56.5203 284.622 56.347C285.003 56.165 285.454 56.0393 285.974 55.97C286.503 55.892 287.079 55.853 287.703 55.853V55.294C287.703 55.0947 287.673 54.917 287.612 54.761C287.551 54.605 287.439 54.4837 287.274 54.397C287.118 54.3017 286.88 54.254 286.559 54.254C286.238 54.254 285.987 54.293 285.805 54.371C285.623 54.449 285.497 54.5443 285.428 54.657C285.359 54.7697 285.324 54.8867 285.324 55.008V55.19H283.79C283.781 55.1467 283.777 55.1033 283.777 55.06C283.777 55.0167 283.777 54.9647 283.777 54.904C283.777 54.514 283.894 54.176 284.128 53.89C284.362 53.604 284.687 53.3873 285.103 53.24C285.519 53.084 286 53.006 286.546 53.006C287.17 53.006 287.681 53.0927 288.08 53.266C288.487 53.4393 288.791 53.6863 288.99 54.007C289.189 54.3277 289.289 54.7177 289.289 55.177V58.401C289.289 58.5657 289.337 58.6827 289.432 58.752C289.527 58.8213 289.631 58.856 289.744 58.856H290.16V59.948C290.073 59.9827 289.948 60.0217 289.783 60.065C289.618 60.117 289.415 60.143 289.172 60.143C288.947 60.143 288.743 60.104 288.561 60.026C288.388 59.9567 288.24 59.8527 288.119 59.714C287.998 59.5753 287.911 59.4107 287.859 59.22H287.781C287.634 59.402 287.456 59.5667 287.248 59.714C287.049 59.8527 286.81 59.961 286.533 60.039C286.264 60.117 285.952 60.156 285.597 60.156ZM286.078 58.856C286.338 58.856 286.568 58.817 286.767 58.739C286.975 58.661 287.144 58.5527 287.274 58.414C287.413 58.2753 287.517 58.1063 287.586 57.907C287.664 57.7077 287.703 57.491 287.703 57.257V56.945C287.226 56.945 286.784 56.9753 286.377 57.036C285.978 57.0967 285.658 57.2093 285.415 57.374C285.181 57.5387 285.064 57.7727 285.064 58.076C285.064 58.232 285.099 58.3707 285.168 58.492C285.246 58.6047 285.359 58.6957 285.506 58.765C285.662 58.8257 285.853 58.856 286.078 58.856ZM291.066 60V53.162H292.392L292.522 54.241H292.613C292.699 54.0243 292.803 53.825 292.925 53.643C293.055 53.4523 293.219 53.3007 293.419 53.188C293.618 53.0667 293.861 53.006 294.147 53.006C294.285 53.006 294.411 53.019 294.524 53.045C294.645 53.071 294.736 53.097 294.797 53.123V54.618H294.316C294.047 54.618 293.809 54.657 293.601 54.735C293.393 54.8043 293.215 54.917 293.068 55.073C292.929 55.229 292.825 55.424 292.756 55.658C292.686 55.892 292.652 56.165 292.652 56.477V60H291.066Z" fill="white"/>
<path opacity="0.5" d="M79 105C79 98.3726 84.3726 93 91 93H302C308.627 93 314 98.3726 314 105C314 111.627 308.627 117 302 117H91C84.3726 117 79 111.627 79 105Z" fill="black" fill-opacity="0.2"/>
<path opacity="0.5" d="M79 139C79 132.373 84.3726 127 91 127H302C308.627 127 314 132.373 314 139C314 145.627 308.627 151 302 151H91C84.3726 151 79 145.627 79 139Z" fill="black" fill-opacity="0.2"/>
<path opacity="0.5" d="M79 173C79 166.373 84.3726 161 91 161H302C308.627 161 314 166.373 314 173C314 179.627 308.627 185 302 185H91C84.3726 185 79 179.627 79 173Z" fill="black" fill-opacity="0.2"/>
<path opacity="0.5" d="M79 207C79 200.373 84.3726 195 91 195H302C308.627 195 314 200.373 314 207C314 213.627 308.627 219 302 219H91C84.3726 219 79 213.627 79 207Z" fill="black" fill-opacity="0.2"/>
<path opacity="0.3" d="M79 256C79 243.85 88.8497 234 101 234H292C304.15 234 314 243.85 314 256V370C314 382.15 304.15 392 292 392H101C88.8497 392 79 382.15 79 370V256Z" fill="black" fill-opacity="0.2"/>
</g>
<defs>
<filter id="filter0_ddd_30_779" x="-20" y="0" width="433" height="598" filterUnits="userSpaceOnUse" color-interpolation-filters="sRGB">
<feFlood flood-opacity="0" result="BackgroundImageFix"/>
<feColorMatrix in="SourceAlpha" type="matrix" values="0 0 0 0 0 0 0 0 0 0 0 0 0 0 0 0 0 0 127 0" result="hardAlpha"/>
<feOffset dy="12"/>
<feGaussianBlur stdDeviation="13.5"/>
<feColorMatrix type="matrix" values="0 0 0 0 0 0 0 0 0 0 0 0 0 0 0 0 0 0 0.03 0"/>
<feBlend mode="normal" in2="BackgroundImageFix" result="effect1_dropShadow_30_779"/>
<feColorMatrix in="SourceAlpha" type="matrix" values="0 0 0 0 0 0 0 0 0 0 0 0 0 0 0 0 0 0 127 0" result="hardAlpha"/>
<feOffset dy="50"/>
<feGaussianBlur stdDeviation="25"/>
<feColorMatrix type="matrix" values="0 0 0 0 0 0 0 0 0 0 0 0 0 0 0 0 0 0 0.03 0"/>
<feBlend mode="normal" in2="effect1_dropShadow_30_779" result="effect2_dropShadow_30_779"/>
<feColorMatrix in="SourceAlpha" type="matrix" values="0 0 0 0 0 0 0 0 0 0 0 0 0 0 0 0 0 0 127 0" result="hardAlpha"/>
<feOffset dy="112"/>
<feGaussianBlur stdDeviation="33.5"/>
<feColorMatrix type="matrix" values="0 0 0 0 0 0 0 0 0 0 0 0 0 0 0 0 0 0 0.02 0"/>
<feBlend mode="normal" in2="effect2_dropShadow_30_779" result="effect3_dropShadow_30_779"/>
<feBlend mode="normal" in="SourceGraphic" in2="effect3_dropShadow_30_779" result="shape"/>
</filter>
</defs>
</svg>
