<svg width="117" height="116" viewBox="0 0 117 116" fill="none" xmlns="http://www.w3.org/2000/svg">
    <path d="M58.4998 110.007C53.2314 110.007 48.0114 108.46 43.9031 105.415L23.1198 89.9C17.6098 85.7916 13.3081 77.1883 13.3081 70.3733V34.4133C13.3081 26.97 18.7698 19.0433 25.7781 16.4333L49.8964 7.39496C54.6814 5.60663 62.2214 5.60663 67.0064 7.39496L91.1248 16.4333C98.1331 19.0433 103.595 26.97 103.595 34.4133V70.325C103.595 77.1883 99.2931 85.7433 93.7831 89.8516L72.9998 105.367C68.9881 108.46 63.7681 110.007 58.4998 110.007ZM52.4581 14.21L28.3398 23.2483C24.2314 24.795 20.6064 30.015 20.6064 34.4616V70.3733C20.6064 74.965 23.8448 81.3933 27.4698 84.1L48.2531 99.615C53.8114 103.772 63.1881 103.772 68.7948 99.615L89.5781 84.1C93.2514 81.3449 96.4414 74.965 96.4414 70.3733V34.4133C96.4414 30.015 92.8164 24.795 88.7081 23.2L64.5898 14.1616C61.3031 13.0016 55.6964 13.0016 52.4581 14.21Z" fill="#664373"/>
    <path d="M52.0235 68.7783C51.1052 68.7783 50.1868 68.44 49.4618 67.715L41.6802 59.9333C40.2785 58.5317 40.2785 56.2117 41.6802 54.81C43.0818 53.4083 45.4018 53.4083 46.8035 54.81L52.0235 60.03L70.2452 41.8083C71.6468 40.4067 73.9668 40.4067 75.3685 41.8083C76.7702 43.21 76.7702 45.53 75.3685 46.9317L54.5852 67.715C53.8602 68.44 52.9418 68.7783 52.0235 68.7783Z" fill="#664373"/>
</svg>
