<svg width="664" height="394" viewBox="0 0 664 394" fill="none" xmlns="http://www.w3.org/2000/svg">
<g filter="url(#filter0_dddd_29_2217)">
<mask id="path-1-inside-1_29_2217" fill="white">
<path d="M184 55C184 42.8497 193.85 33 206 33H458C470.15 33 480 42.8497 480 55V415C480 427.15 470.15 437 458 437H206C193.85 437 184 427.15 184 415V55Z"/>
</mask>
<path d="M184 55C184 42.8497 193.85 33 206 33H458C470.15 33 480 42.8497 480 55V415C480 427.15 470.15 437 458 437H206C193.85 437 184 427.15 184 415V55Z" fill="#E1E1E1"/>
<path d="M184 55C184 42.8497 193.85 33 206 33H458C470.15 33 480 42.8497 480 55V415C480 427.15 470.15 437 458 437H206C193.85 437 184 427.15 184 415V55Z" fill="url(#paint0_linear_29_2217)" fill-opacity="0.16" style="mix-blend-mode:luminosity"/>
<path d="M206 33V34H458V33V32H206V33ZM480 55H479V415H480H481V55H480ZM458 437V436H206V437V438H458V437ZM184 415H185V55H184H183V415H184ZM206 437V436C194.402 436 185 426.598 185 415H184H183C183 427.703 193.297 438 206 438V437ZM480 415H479C479 426.598 469.598 436 458 436V437V438C470.703 438 481 427.703 481 415H480ZM458 33V34C469.598 34 479 43.402 479 55H480H481C481 42.2975 470.703 32 458 32V33ZM206 33V32C193.297 32 183 42.2975 183 55H184H185C185 43.402 194.402 34 206 34V33Z" fill="#241B28" fill-opacity="0.16" mask="url(#path-1-inside-1_29_2217)"/>
<path d="M212 77C212 68.1634 219.163 61 228 61H338C346.837 61 354 68.1634 354 77C354 85.8366 346.837 93 338 93H228C219.163 93 212 85.8366 212 77Z" fill="black" fill-opacity="0.2"/>
<path opacity="0.5" d="M212 135C212 122.85 221.85 113 234 113H430C442.15 113 452 122.85 452 135V387C452 399.15 442.15 409 430 409H234C221.85 409 212 399.15 212 387V135Z" fill="black" fill-opacity="0.2"/>
</g>
<g filter="url(#filter1_dddd_29_2217)">
<mask id="path-5-inside-2_29_2217" fill="white">
<path d="M73 311C73 298.85 82.8497 289 95 289H282C294.15 289 304 298.85 304 311V339C304 351.15 294.15 361 282 361H95C82.8497 361 73 351.15 73 339V311Z"/>
</mask>
<path d="M73 311C73 298.85 82.8497 289 95 289H282C294.15 289 304 298.85 304 311V339C304 351.15 294.15 361 282 361H95C82.8497 361 73 351.15 73 339V311Z" fill="#E1E1E1"/>
<path d="M73 311C73 298.85 82.8497 289 95 289H282C294.15 289 304 298.85 304 311V339C304 351.15 294.15 361 282 361H95C82.8497 361 73 351.15 73 339V311Z" fill="white"/>
<path d="M73 311C73 298.85 82.8497 289 95 289H282C294.15 289 304 298.85 304 311V339C304 351.15 294.15 361 282 361H95C82.8497 361 73 351.15 73 339V311Z" fill="url(#paint1_linear_29_2217)" fill-opacity="0.32" style="mix-blend-mode:luminosity"/>
<path d="M95 289V290H282V289V288H95V289ZM304 311H303V339H304H305V311H304ZM282 361V360H95V361V362H282V361ZM73 339H74V311H73H72V339H73ZM95 361V360C83.402 360 74 350.598 74 339H73H72C72 351.703 82.2975 362 95 362V361ZM304 339H303C303 350.598 293.598 360 282 360V361V362C294.703 362 305 351.703 305 339H304ZM282 289V290C293.598 290 303 299.402 303 311H304H305C305 298.297 294.703 288 282 288V289ZM95 289V288C82.2975 288 72 298.297 72 311H73H74C74 299.402 83.402 290 95 290V289Z" fill="#241B28" fill-opacity="0.16" mask="url(#path-5-inside-2_29_2217)"/>
<path d="M143.14 334V320.28H150.02L152 327.6H152.08L154.02 320.28H160.94V334H156.74V325.2H156.66L154.26 334H149.44L147.06 325.2H146.96V334H143.14ZM167.898 334.2C166.885 334.2 165.978 333.987 165.178 333.56C164.378 333.12 163.745 332.52 163.278 331.76C162.825 330.987 162.598 330.1 162.598 329.1V328.68C162.598 327.667 162.825 326.78 163.278 326.02C163.745 325.26 164.378 324.667 165.178 324.24C165.978 323.8 166.885 323.58 167.898 323.58H168.538C169.551 323.58 170.458 323.8 171.258 324.24C172.058 324.667 172.685 325.26 173.138 326.02C173.605 326.78 173.838 327.667 173.838 328.68V329.1C173.838 330.113 173.605 331.007 173.138 331.78C172.685 332.54 172.058 333.133 171.258 333.56C170.458 333.987 169.551 334.2 168.538 334.2H167.898ZM168.218 331.78C168.485 331.78 168.718 331.72 168.918 331.6C169.131 331.467 169.298 331.293 169.418 331.08C169.538 330.867 169.598 330.633 169.598 330.38V327.4C169.598 327.133 169.538 326.9 169.418 326.7C169.298 326.487 169.131 326.32 168.918 326.2C168.718 326.067 168.485 326 168.218 326C167.965 326 167.731 326.067 167.518 326.2C167.305 326.32 167.138 326.487 167.018 326.7C166.898 326.9 166.838 327.133 166.838 327.4V330.38C166.838 330.633 166.898 330.867 167.018 331.08C167.138 331.293 167.305 331.467 167.518 331.6C167.731 331.72 167.965 331.78 168.218 331.78ZM175.363 334V323.78H178.343L178.743 325.26C179.183 324.673 179.663 324.247 180.183 323.98C180.717 323.713 181.363 323.58 182.123 323.58C182.803 323.58 183.39 323.713 183.883 323.98C184.377 324.233 184.75 324.587 185.003 325.04C185.27 325.48 185.403 325.993 185.403 326.58V334H181.443V327.6C181.443 327.267 181.337 326.987 181.123 326.76C180.923 326.52 180.677 326.4 180.383 326.4C180.197 326.4 180.017 326.453 179.843 326.56C179.683 326.667 179.557 326.813 179.463 327C179.37 327.173 179.323 327.373 179.323 327.6V334H175.363ZM187.336 334V323.8H191.296V334H187.336ZM187.336 322.46V319.6H191.296V322.46H187.336ZM197.533 334.22C196.813 334.22 196.18 334.14 195.633 333.98C195.086 333.807 194.653 333.513 194.333 333.1C194.026 332.687 193.873 332.12 193.873 331.4V326.62H192.753V323.78H194.033L195.413 320.52H197.833V323.78H200.233V326.62H197.833V330.4C197.833 330.987 197.953 331.367 198.193 331.54C198.433 331.7 198.693 331.78 198.973 331.78C199.12 331.78 199.32 331.76 199.573 331.72C199.84 331.667 200.053 331.607 200.213 331.54V333.78C200 333.873 199.72 333.953 199.373 334.02C199.04 334.087 198.706 334.133 198.373 334.16C198.04 334.2 197.76 334.22 197.533 334.22ZM206.492 334.2C205.479 334.2 204.572 333.987 203.772 333.56C202.972 333.12 202.339 332.52 201.872 331.76C201.419 330.987 201.192 330.1 201.192 329.1V328.68C201.192 327.667 201.419 326.78 201.872 326.02C202.339 325.26 202.972 324.667 203.772 324.24C204.572 323.8 205.479 323.58 206.492 323.58H207.132C208.145 323.58 209.052 323.8 209.852 324.24C210.652 324.667 211.279 325.26 211.732 326.02C212.199 326.78 212.432 327.667 212.432 328.68V329.1C212.432 330.113 212.199 331.007 211.732 331.78C211.279 332.54 210.652 333.133 209.852 333.56C209.052 333.987 208.145 334.2 207.132 334.2H206.492ZM206.812 331.78C207.079 331.78 207.312 331.72 207.512 331.6C207.725 331.467 207.892 331.293 208.012 331.08C208.132 330.867 208.192 330.633 208.192 330.38V327.4C208.192 327.133 208.132 326.9 208.012 326.7C207.892 326.487 207.725 326.32 207.512 326.2C207.312 326.067 207.079 326 206.812 326C206.559 326 206.325 326.067 206.112 326.2C205.899 326.32 205.732 326.487 205.612 326.7C205.492 326.9 205.432 327.133 205.432 327.4V330.38C205.432 330.633 205.492 330.867 205.612 331.08C205.732 331.293 205.899 331.467 206.112 331.6C206.325 331.72 206.559 331.78 206.812 331.78ZM213.957 334V323.78H216.917L217.357 325.26C217.397 325.18 217.477 325.053 217.597 324.88C217.73 324.693 217.91 324.5 218.137 324.3C218.364 324.1 218.637 323.933 218.957 323.8C219.277 323.653 219.644 323.58 220.057 323.58C220.71 323.58 221.237 323.7 221.637 323.94C222.05 324.167 222.35 324.513 222.537 324.98C222.737 325.433 222.837 325.993 222.837 326.66C222.837 326.82 222.83 327.013 222.817 327.24C222.804 327.467 222.784 327.693 222.757 327.92H219.517V327.44C219.517 327.253 219.484 327.087 219.417 326.94C219.35 326.78 219.257 326.66 219.137 326.58C219.017 326.487 218.864 326.44 218.677 326.44C218.544 326.44 218.417 326.467 218.297 326.52C218.19 326.573 218.104 326.647 218.037 326.74C217.97 326.82 217.917 326.92 217.877 327.04C217.837 327.16 217.817 327.293 217.817 327.44V334H213.957ZM226.794 334.2C226.247 334.2 225.727 334.107 225.234 333.92C224.74 333.72 224.34 333.407 224.034 332.98C223.727 332.553 223.574 331.98 223.574 331.26C223.574 330.553 223.727 329.967 224.034 329.5C224.34 329.033 224.78 328.667 225.354 328.4C225.94 328.133 226.647 327.947 227.474 327.84C228.3 327.733 229.234 327.68 230.274 327.68V326.98C230.274 326.593 230.147 326.32 229.894 326.16C229.64 325.987 229.334 325.9 228.974 325.9C228.587 325.9 228.274 325.987 228.034 326.16C227.807 326.333 227.694 326.56 227.694 326.84V326.92H223.894C223.88 326.893 223.874 326.853 223.874 326.8C223.874 326.747 223.874 326.693 223.874 326.64C223.874 326.067 224.067 325.553 224.454 325.1C224.84 324.633 225.394 324.267 226.114 324C226.834 323.72 227.687 323.58 228.674 323.58H229.334C230.947 323.58 232.147 323.893 232.934 324.52C233.72 325.133 234.114 325.9 234.114 326.82V331.04C234.114 331.307 234.18 331.5 234.314 331.62C234.447 331.727 234.587 331.78 234.734 331.78C234.854 331.78 234.974 331.767 235.094 331.74C235.214 331.7 235.327 331.653 235.434 331.6V333.74C235.26 333.873 235.007 333.98 234.674 334.06C234.354 334.153 233.934 334.2 233.414 334.2C232.827 334.2 232.327 334.133 231.914 334C231.5 333.853 231.174 333.66 230.934 333.42C230.707 333.18 230.554 332.9 230.474 332.58C230.127 332.98 229.654 333.353 229.054 333.7C228.467 334.033 227.714 334.2 226.794 334.2ZM228.914 331.78C229.154 331.78 229.374 331.727 229.574 331.62C229.787 331.5 229.954 331.333 230.074 331.12C230.207 330.907 230.274 330.66 230.274 330.38V329.5C229.66 329.5 229.167 329.56 228.794 329.68C228.42 329.787 228.147 329.94 227.974 330.14C227.8 330.327 227.714 330.553 227.714 330.82C227.714 331.207 227.834 331.467 228.074 331.6C228.327 331.72 228.607 331.78 228.914 331.78ZM236.574 334V323.78H239.534L239.954 325.26C240.341 324.753 240.754 324.347 241.194 324.04C241.634 323.733 242.228 323.58 242.974 323.58C243.641 323.58 244.214 323.7 244.694 323.94C245.188 324.167 245.581 324.567 245.874 325.14C246.221 324.553 246.634 324.147 247.114 323.92C247.594 323.693 248.154 323.58 248.794 323.58C249.474 323.58 250.054 323.713 250.534 323.98C251.028 324.233 251.401 324.587 251.654 325.04C251.921 325.48 252.054 325.993 252.054 326.58V334H248.174V327.52C248.174 327.187 248.081 326.92 247.894 326.72C247.708 326.52 247.481 326.42 247.214 326.42C247.041 326.42 246.881 326.467 246.734 326.56C246.588 326.653 246.468 326.78 246.374 326.94C246.294 327.1 246.254 327.293 246.254 327.52V334H242.374V327.52C242.374 327.187 242.281 326.92 242.094 326.72C241.908 326.52 241.681 326.42 241.414 326.42C241.241 326.42 241.081 326.467 240.934 326.56C240.788 326.653 240.668 326.78 240.574 326.94C240.494 327.1 240.454 327.293 240.454 327.52V334H236.574ZM259.016 334.2C257.963 334.2 257.023 334.007 256.196 333.62C255.369 333.233 254.716 332.667 254.236 331.92C253.769 331.173 253.536 330.267 253.536 329.2V328.58C253.536 327.513 253.769 326.607 254.236 325.86C254.703 325.113 255.349 324.547 256.176 324.16C257.003 323.773 257.943 323.58 258.996 323.58H259.496C260.549 323.58 261.443 323.78 262.176 324.18C262.909 324.58 263.469 325.127 263.856 325.82C264.243 326.5 264.436 327.287 264.436 328.18V329.42H257.776C257.776 329.847 257.809 330.24 257.876 330.6C257.956 330.96 258.096 331.247 258.296 331.46C258.496 331.673 258.796 331.78 259.196 331.78C259.556 331.78 259.849 331.713 260.076 331.58C260.303 331.447 260.469 331.26 260.576 331.02C260.696 330.767 260.756 330.48 260.756 330.16H264.416C264.416 330.907 264.209 331.587 263.796 332.2C263.383 332.813 262.796 333.3 262.036 333.66C261.276 334.02 260.369 334.2 259.316 334.2H259.016ZM257.776 327.68H260.536C260.536 327.093 260.403 326.667 260.136 326.4C259.883 326.133 259.556 326 259.156 326C258.743 326 258.409 326.147 258.156 326.44C257.903 326.72 257.776 327.133 257.776 327.68ZM265.968 334V330.34H269.788V334H265.968ZM272.608 334V330.34H276.428V334H272.608ZM279.288 334V330.34H283.108V334H279.288Z" fill="#241B28"/>
<path d="M109 338.333C116.364 338.333 122.333 332.364 122.333 325C122.333 317.636 116.364 311.667 109 311.667C101.636 311.667 95.6665 317.636 95.6665 325C95.6665 332.364 101.636 338.333 109 338.333Z" stroke="#664373" stroke-linecap="round" stroke-linejoin="round" stroke-dasharray="4 4"/>
</g>
<g filter="url(#filter2_dddd_29_2217)">
<mask id="path-9-inside-3_29_2217" fill="white">
<path d="M363 180C363 167.85 372.85 158 385 158H572C584.15 158 594 167.85 594 180V208C594 220.15 584.15 230 572 230H385C372.85 230 363 220.15 363 208V180Z"/>
</mask>
<path d="M363 180C363 167.85 372.85 158 385 158H572C584.15 158 594 167.85 594 180V208C594 220.15 584.15 230 572 230H385C372.85 230 363 220.15 363 208V180Z" fill="#E1E1E1"/>
<path d="M363 180C363 167.85 372.85 158 385 158H572C584.15 158 594 167.85 594 180V208C594 220.15 584.15 230 572 230H385C372.85 230 363 220.15 363 208V180Z" fill="white"/>
<path d="M363 180C363 167.85 372.85 158 385 158H572C584.15 158 594 167.85 594 180V208C594 220.15 584.15 230 572 230H385C372.85 230 363 220.15 363 208V180Z" fill="url(#paint2_linear_29_2217)" fill-opacity="0.32" style="mix-blend-mode:luminosity"/>
<path d="M385 158V159H572V158V157H385V158ZM594 180H593V208H594H595V180H594ZM572 230V229H385V230V231H572V230ZM363 208H364V180H363H362V208H363ZM385 230V229C373.402 229 364 219.598 364 208H363H362C362 220.703 372.297 231 385 231V230ZM594 208H593C593 219.598 583.598 229 572 229V230V231C584.703 231 595 220.703 595 208H594ZM572 158V159C583.598 159 593 168.402 593 180H594H595C595 167.297 584.703 157 572 157V158ZM385 158V157C372.297 157 362 167.297 362 180H363H364C364 168.402 373.402 159 385 159V158Z" fill="#241B28" fill-opacity="0.16" mask="url(#path-9-inside-3_29_2217)"/>
<path d="M431.9 201L436.48 187.28H441.7L446.28 201H441.92L441.1 198.56H436.74L435.94 201H431.9ZM437.7 195.66H440.14L438.98 191.5H438.88L437.7 195.66ZM447.18 201V190.78H450.16L450.56 192.26C451 191.673 451.48 191.247 452 190.98C452.533 190.713 453.18 190.58 453.94 190.58C454.62 190.58 455.206 190.713 455.7 190.98C456.193 191.233 456.566 191.587 456.82 192.04C457.086 192.48 457.22 192.993 457.22 193.58V201H453.26V194.6C453.26 194.267 453.153 193.987 452.94 193.76C452.74 193.52 452.493 193.4 452.2 193.4C452.013 193.4 451.833 193.453 451.66 193.56C451.5 193.667 451.373 193.813 451.28 194C451.186 194.173 451.14 194.373 451.14 194.6V201H447.18ZM461.852 201.2C461.306 201.2 460.786 201.107 460.292 200.92C459.799 200.72 459.399 200.407 459.092 199.98C458.786 199.553 458.632 198.98 458.632 198.26C458.632 197.553 458.786 196.967 459.092 196.5C459.399 196.033 459.839 195.667 460.412 195.4C460.999 195.133 461.706 194.947 462.532 194.84C463.359 194.733 464.292 194.68 465.332 194.68V193.98C465.332 193.593 465.206 193.32 464.952 193.16C464.699 192.987 464.392 192.9 464.032 192.9C463.646 192.9 463.332 192.987 463.092 193.16C462.866 193.333 462.752 193.56 462.752 193.84V193.92H458.952C458.939 193.893 458.932 193.853 458.932 193.8C458.932 193.747 458.932 193.693 458.932 193.64C458.932 193.067 459.126 192.553 459.512 192.1C459.899 191.633 460.452 191.267 461.172 191C461.892 190.72 462.746 190.58 463.732 190.58H464.392C466.006 190.58 467.206 190.893 467.992 191.52C468.779 192.133 469.172 192.9 469.172 193.82V198.04C469.172 198.307 469.239 198.5 469.372 198.62C469.506 198.727 469.646 198.78 469.792 198.78C469.912 198.78 470.032 198.767 470.152 198.74C470.272 198.7 470.386 198.653 470.492 198.6V200.74C470.319 200.873 470.066 200.98 469.732 201.06C469.412 201.153 468.992 201.2 468.472 201.2C467.886 201.2 467.386 201.133 466.972 201C466.559 200.853 466.232 200.66 465.992 200.42C465.766 200.18 465.612 199.9 465.532 199.58C465.186 199.98 464.712 200.353 464.112 200.7C463.526 201.033 462.772 201.2 461.852 201.2ZM463.972 198.78C464.212 198.78 464.432 198.727 464.632 198.62C464.846 198.5 465.012 198.333 465.132 198.12C465.266 197.907 465.332 197.66 465.332 197.38V196.5C464.719 196.5 464.226 196.56 463.852 196.68C463.479 196.787 463.206 196.94 463.032 197.14C462.859 197.327 462.772 197.553 462.772 197.82C462.772 198.207 462.892 198.467 463.132 198.6C463.386 198.72 463.666 198.78 463.972 198.78ZM462.632 189.34L464.452 185.78H467.752L467.792 185.84L465.292 189.34H462.632ZM471.633 201V186.6H475.593V201H471.633ZM477.863 201V190.8H481.823V201H477.863ZM477.863 189.46V186.6H481.823V189.46H477.863ZM487.68 201.2C487.147 201.2 486.614 201.133 486.08 201C485.56 200.88 485.087 200.693 484.66 200.44C484.234 200.173 483.894 199.84 483.64 199.44C483.387 199.04 483.26 198.567 483.26 198.02C483.26 197.953 483.26 197.893 483.26 197.84C483.26 197.787 483.267 197.727 483.28 197.66H486.54C486.527 197.687 486.52 197.713 486.52 197.74C486.52 197.753 486.52 197.773 486.52 197.8C486.52 198.053 486.614 198.253 486.8 198.4C486.987 198.547 487.214 198.647 487.48 198.7C487.747 198.753 488 198.78 488.24 198.78C488.374 198.78 488.574 198.773 488.84 198.76C489.107 198.733 489.354 198.68 489.58 198.6C489.82 198.507 489.94 198.36 489.94 198.16C489.94 197.947 489.827 197.787 489.6 197.68C489.374 197.573 489.067 197.493 488.68 197.44C488.307 197.373 487.894 197.313 487.44 197.26C486.987 197.193 486.534 197.1 486.08 196.98C485.627 196.86 485.207 196.687 484.82 196.46C484.447 196.233 484.147 195.927 483.92 195.54C483.694 195.14 483.58 194.633 483.58 194.02C483.58 193.407 483.72 192.88 484 192.44C484.294 192 484.674 191.647 485.14 191.38C485.62 191.1 486.134 190.9 486.68 190.78C487.227 190.647 487.76 190.58 488.28 190.58H488.9C489.34 190.58 489.807 190.633 490.3 190.74C490.807 190.847 491.28 191.013 491.72 191.24C492.174 191.467 492.54 191.753 492.82 192.1C493.1 192.447 493.24 192.853 493.24 193.32C493.24 193.413 493.234 193.507 493.22 193.6C493.22 193.693 493.214 193.773 493.2 193.84H489.92V193.74C489.92 193.593 489.874 193.467 489.78 193.36C489.687 193.253 489.567 193.173 489.42 193.12C489.274 193.053 489.12 193.007 488.96 192.98C488.8 192.953 488.654 192.94 488.52 192.94C488.427 192.94 488.294 192.947 488.12 192.96C487.96 192.96 487.794 192.98 487.62 193.02C487.46 193.047 487.32 193.1 487.2 193.18C487.094 193.26 487.04 193.373 487.04 193.52C487.04 193.733 487.154 193.887 487.38 193.98C487.62 194.073 487.927 194.147 488.3 194.2C488.687 194.24 489.107 194.287 489.56 194.34C490.027 194.393 490.487 194.473 490.94 194.58C491.394 194.687 491.807 194.86 492.18 195.1C492.567 195.327 492.874 195.64 493.1 196.04C493.34 196.44 493.46 196.96 493.46 197.6C493.46 198.28 493.32 198.853 493.04 199.32C492.774 199.773 492.414 200.14 491.96 200.42C491.507 200.7 491 200.9 490.44 201.02C489.88 201.14 489.307 201.2 488.72 201.2H487.68ZM500.012 201.2C498.959 201.2 498.019 201.007 497.192 200.62C496.366 200.233 495.712 199.667 495.232 198.92C494.766 198.173 494.532 197.267 494.532 196.2V195.58C494.532 194.513 494.766 193.607 495.232 192.86C495.699 192.113 496.346 191.547 497.172 191.16C497.999 190.773 498.939 190.58 499.992 190.58H500.492C501.546 190.58 502.439 190.78 503.172 191.18C503.906 191.58 504.466 192.127 504.852 192.82C505.239 193.5 505.432 194.287 505.432 195.18V196.42H498.772C498.772 196.847 498.806 197.24 498.872 197.6C498.952 197.96 499.092 198.247 499.292 198.46C499.492 198.673 499.792 198.78 500.192 198.78C500.552 198.78 500.846 198.713 501.072 198.58C501.299 198.447 501.466 198.26 501.572 198.02C501.692 197.767 501.752 197.48 501.752 197.16H505.412C505.412 197.907 505.206 198.587 504.792 199.2C504.379 199.813 503.792 200.3 503.032 200.66C502.272 201.02 501.366 201.2 500.312 201.2H500.012ZM498.772 194.68H501.532C501.532 194.093 501.399 193.667 501.132 193.4C500.879 193.133 500.552 193 500.152 193C499.739 193 499.406 193.147 499.152 193.44C498.899 193.72 498.772 194.133 498.772 194.68ZM514.431 201.2C513.551 201.2 512.811 201.013 512.211 200.64C511.611 200.253 511.158 199.673 510.851 198.9C510.544 198.127 510.391 197.16 510.391 196V195.78C510.391 194.607 510.578 193.64 510.951 192.88C511.338 192.107 511.844 191.533 512.471 191.16C513.098 190.773 513.764 190.58 514.471 190.58C515.178 190.58 515.738 190.707 516.151 190.96C516.578 191.2 516.898 191.493 517.111 191.84V186.6H521.071V201H517.911L517.551 199.74C517.271 200.087 516.878 200.42 516.371 200.74C515.864 201.047 515.218 201.2 514.431 201.2ZM515.871 198.78C516.111 198.78 516.324 198.72 516.511 198.6C516.698 198.467 516.844 198.293 516.951 198.08C517.058 197.867 517.111 197.633 517.111 197.38V194.48C517.111 194.213 517.058 193.98 516.951 193.78C516.844 193.567 516.698 193.4 516.511 193.28C516.324 193.147 516.111 193.08 515.871 193.08C515.524 193.08 515.231 193.22 514.991 193.5C514.751 193.767 514.631 194.093 514.631 194.48V197.38C514.631 197.633 514.684 197.867 514.791 198.08C514.898 198.293 515.044 198.467 515.231 198.6C515.431 198.72 515.644 198.78 515.871 198.78ZM528.098 201.2C527.045 201.2 526.105 201.007 525.278 200.62C524.451 200.233 523.798 199.667 523.318 198.92C522.851 198.173 522.618 197.267 522.618 196.2V195.58C522.618 194.513 522.851 193.607 523.318 192.86C523.785 192.113 524.431 191.547 525.258 191.16C526.085 190.773 527.025 190.58 528.078 190.58H528.578C529.631 190.58 530.525 190.78 531.258 191.18C531.991 191.58 532.551 192.127 532.938 192.82C533.325 193.5 533.518 194.287 533.518 195.18V196.42H526.858C526.858 196.847 526.891 197.24 526.958 197.6C527.038 197.96 527.178 198.247 527.378 198.46C527.578 198.673 527.878 198.78 528.278 198.78C528.638 198.78 528.931 198.713 529.158 198.58C529.385 198.447 529.551 198.26 529.658 198.02C529.778 197.767 529.838 197.48 529.838 197.16H533.498C533.498 197.907 533.291 198.587 532.878 199.2C532.465 199.813 531.878 200.3 531.118 200.66C530.358 201.02 529.451 201.2 528.398 201.2H528.098ZM526.858 194.68H529.618C529.618 194.093 529.485 193.667 529.218 193.4C528.965 193.133 528.638 193 528.238 193C527.825 193 527.491 193.147 527.238 193.44C526.985 193.72 526.858 194.133 526.858 194.68ZM543.977 201.2C542.924 201.2 541.984 201.007 541.157 200.62C540.33 200.233 539.677 199.667 539.197 198.92C538.73 198.173 538.497 197.267 538.497 196.2V195.58C538.497 194.513 538.73 193.607 539.197 192.86C539.664 192.113 540.31 191.547 541.137 191.16C541.964 190.773 542.904 190.58 543.957 190.58H544.457C545.51 190.58 546.404 190.78 547.137 191.18C547.87 191.58 548.43 192.127 548.817 192.82C549.204 193.5 549.397 194.287 549.397 195.18V196.42H542.737C542.737 196.847 542.77 197.24 542.837 197.6C542.917 197.96 543.057 198.247 543.257 198.46C543.457 198.673 543.757 198.78 544.157 198.78C544.517 198.78 544.81 198.713 545.037 198.58C545.264 198.447 545.43 198.26 545.537 198.02C545.657 197.767 545.717 197.48 545.717 197.16H549.377C549.377 197.907 549.17 198.587 548.757 199.2C548.344 199.813 547.757 200.3 546.997 200.66C546.237 201.02 545.33 201.2 544.277 201.2H543.977ZM542.737 194.68H545.497C545.497 194.093 545.364 193.667 545.097 193.4C544.844 193.133 544.517 193 544.117 193C543.704 193 543.37 193.147 543.117 193.44C542.864 193.72 542.737 194.133 542.737 194.68ZM550.929 201V197.34H554.749V201H550.929ZM557.569 201V197.34H561.389V201H557.569ZM564.249 201V197.34H568.069V201H564.249Z" fill="#241B28"/>
<path d="M399 207.333C406.364 207.333 412.333 201.364 412.333 194C412.333 186.636 406.364 180.667 399 180.667C391.636 180.667 385.667 186.636 385.667 194C385.667 201.364 391.636 207.333 399 207.333Z" stroke="#664373" stroke-linecap="round" stroke-linejoin="round" stroke-dasharray="4 4"/>
</g>
<defs>
<filter id="filter0_dddd_29_2217" x="161" y="27" width="362" height="525" filterUnits="userSpaceOnUse" color-interpolation-filters="sRGB">
<feFlood flood-opacity="0" result="BackgroundImageFix"/>
<feColorMatrix in="SourceAlpha" type="matrix" values="0 0 0 0 0 0 0 0 0 0 0 0 0 0 0 0 0 0 127 0" result="hardAlpha"/>
<feOffset dx="1" dy="5"/>
<feGaussianBlur stdDeviation="5.5"/>
<feColorMatrix type="matrix" values="0 0 0 0 0 0 0 0 0 0 0 0 0 0 0 0 0 0 0.08 0"/>
<feBlend mode="normal" in2="BackgroundImageFix" result="effect1_dropShadow_29_2217"/>
<feColorMatrix in="SourceAlpha" type="matrix" values="0 0 0 0 0 0 0 0 0 0 0 0 0 0 0 0 0 0 127 0" result="hardAlpha"/>
<feOffset dx="2" dy="20"/>
<feGaussianBlur stdDeviation="10.5"/>
<feColorMatrix type="matrix" values="0 0 0 0 0 0 0 0 0 0 0 0 0 0 0 0 0 0 0.06 0"/>
<feBlend mode="normal" in2="effect1_dropShadow_29_2217" result="effect2_dropShadow_29_2217"/>
<feColorMatrix in="SourceAlpha" type="matrix" values="0 0 0 0 0 0 0 0 0 0 0 0 0 0 0 0 0 0 127 0" result="hardAlpha"/>
<feOffset dx="5" dy="46"/>
<feGaussianBlur stdDeviation="14"/>
<feColorMatrix type="matrix" values="0 0 0 0 0 0 0 0 0 0 0 0 0 0 0 0 0 0 0.04 0"/>
<feBlend mode="normal" in2="effect2_dropShadow_29_2217" result="effect3_dropShadow_29_2217"/>
<feColorMatrix in="SourceAlpha" type="matrix" values="0 0 0 0 0 0 0 0 0 0 0 0 0 0 0 0 0 0 127 0" result="hardAlpha"/>
<feOffset dx="10" dy="82"/>
<feGaussianBlur stdDeviation="16.5"/>
<feColorMatrix type="matrix" values="0 0 0 0 0 0 0 0 0 0 0 0 0 0 0 0 0 0 0.01 0"/>
<feBlend mode="normal" in2="effect3_dropShadow_29_2217" result="effect4_dropShadow_29_2217"/>
<feBlend mode="normal" in="SourceGraphic" in2="effect4_dropShadow_29_2217" result="shape"/>
</filter>
<filter id="filter1_dddd_29_2217" x="50" y="283" width="297" height="193" filterUnits="userSpaceOnUse" color-interpolation-filters="sRGB">
<feFlood flood-opacity="0" result="BackgroundImageFix"/>
<feColorMatrix in="SourceAlpha" type="matrix" values="0 0 0 0 0 0 0 0 0 0 0 0 0 0 0 0 0 0 127 0" result="hardAlpha"/>
<feOffset dx="1" dy="5"/>
<feGaussianBlur stdDeviation="5.5"/>
<feColorMatrix type="matrix" values="0 0 0 0 0 0 0 0 0 0 0 0 0 0 0 0 0 0 0.08 0"/>
<feBlend mode="normal" in2="BackgroundImageFix" result="effect1_dropShadow_29_2217"/>
<feColorMatrix in="SourceAlpha" type="matrix" values="0 0 0 0 0 0 0 0 0 0 0 0 0 0 0 0 0 0 127 0" result="hardAlpha"/>
<feOffset dx="2" dy="20"/>
<feGaussianBlur stdDeviation="10.5"/>
<feColorMatrix type="matrix" values="0 0 0 0 0 0 0 0 0 0 0 0 0 0 0 0 0 0 0.06 0"/>
<feBlend mode="normal" in2="effect1_dropShadow_29_2217" result="effect2_dropShadow_29_2217"/>
<feColorMatrix in="SourceAlpha" type="matrix" values="0 0 0 0 0 0 0 0 0 0 0 0 0 0 0 0 0 0 127 0" result="hardAlpha"/>
<feOffset dx="5" dy="46"/>
<feGaussianBlur stdDeviation="14"/>
<feColorMatrix type="matrix" values="0 0 0 0 0 0 0 0 0 0 0 0 0 0 0 0 0 0 0.04 0"/>
<feBlend mode="normal" in2="effect2_dropShadow_29_2217" result="effect3_dropShadow_29_2217"/>
<feColorMatrix in="SourceAlpha" type="matrix" values="0 0 0 0 0 0 0 0 0 0 0 0 0 0 0 0 0 0 127 0" result="hardAlpha"/>
<feOffset dx="10" dy="82"/>
<feGaussianBlur stdDeviation="16.5"/>
<feColorMatrix type="matrix" values="0 0 0 0 0 0 0 0 0 0 0 0 0 0 0 0 0 0 0.01 0"/>
<feBlend mode="normal" in2="effect3_dropShadow_29_2217" result="effect4_dropShadow_29_2217"/>
<feBlend mode="normal" in="SourceGraphic" in2="effect4_dropShadow_29_2217" result="shape"/>
</filter>
<filter id="filter2_dddd_29_2217" x="340" y="152" width="297" height="193" filterUnits="userSpaceOnUse" color-interpolation-filters="sRGB">
<feFlood flood-opacity="0" result="BackgroundImageFix"/>
<feColorMatrix in="SourceAlpha" type="matrix" values="0 0 0 0 0 0 0 0 0 0 0 0 0 0 0 0 0 0 127 0" result="hardAlpha"/>
<feOffset dx="1" dy="5"/>
<feGaussianBlur stdDeviation="5.5"/>
<feColorMatrix type="matrix" values="0 0 0 0 0 0 0 0 0 0 0 0 0 0 0 0 0 0 0.08 0"/>
<feBlend mode="normal" in2="BackgroundImageFix" result="effect1_dropShadow_29_2217"/>
<feColorMatrix in="SourceAlpha" type="matrix" values="0 0 0 0 0 0 0 0 0 0 0 0 0 0 0 0 0 0 127 0" result="hardAlpha"/>
<feOffset dx="2" dy="20"/>
<feGaussianBlur stdDeviation="10.5"/>
<feColorMatrix type="matrix" values="0 0 0 0 0 0 0 0 0 0 0 0 0 0 0 0 0 0 0.06 0"/>
<feBlend mode="normal" in2="effect1_dropShadow_29_2217" result="effect2_dropShadow_29_2217"/>
<feColorMatrix in="SourceAlpha" type="matrix" values="0 0 0 0 0 0 0 0 0 0 0 0 0 0 0 0 0 0 127 0" result="hardAlpha"/>
<feOffset dx="5" dy="46"/>
<feGaussianBlur stdDeviation="14"/>
<feColorMatrix type="matrix" values="0 0 0 0 0 0 0 0 0 0 0 0 0 0 0 0 0 0 0.04 0"/>
<feBlend mode="normal" in2="effect2_dropShadow_29_2217" result="effect3_dropShadow_29_2217"/>
<feColorMatrix in="SourceAlpha" type="matrix" values="0 0 0 0 0 0 0 0 0 0 0 0 0 0 0 0 0 0 127 0" result="hardAlpha"/>
<feOffset dx="10" dy="82"/>
<feGaussianBlur stdDeviation="16.5"/>
<feColorMatrix type="matrix" values="0 0 0 0 0 0 0 0 0 0 0 0 0 0 0 0 0 0 0.01 0"/>
<feBlend mode="normal" in2="effect3_dropShadow_29_2217" result="effect4_dropShadow_29_2217"/>
<feBlend mode="normal" in="SourceGraphic" in2="effect4_dropShadow_29_2217" result="shape"/>
</filter>
<linearGradient id="paint0_linear_29_2217" x1="209.517" y1="-0.666667" x2="543.637" y2="339.909" gradientUnits="userSpaceOnUse">
<stop stop-opacity="0"/>
<stop offset="1" stop-opacity="0.5"/>
</linearGradient>
<linearGradient id="paint1_linear_29_2217" x1="92.9138" y1="283" x2="118.324" y2="396.421" gradientUnits="userSpaceOnUse">
<stop stop-opacity="0"/>
<stop offset="1" stop-color="#928DD3" stop-opacity="0.06"/>
</linearGradient>
<linearGradient id="paint2_linear_29_2217" x1="382.914" y1="152" x2="408.324" y2="265.421" gradientUnits="userSpaceOnUse">
<stop stop-opacity="0"/>
<stop offset="1" stop-color="#928DD3" stop-opacity="0.06"/>
</linearGradient>
</defs>
</svg>
