<svg width="112" height="32" viewBox="0 0 112 32" fill="none" xmlns="http://www.w3.org/2000/svg">
<path d="M6.66641 17.3333C6.66641 19.5312 7.55271 21.522 8.9874 22.9679C9.12577 23.1074 9.19495 23.1771 9.23579 23.2442C9.27475 23.3081 9.29744 23.3632 9.31484 23.4361C9.33308 23.5124 9.33308 23.5993 9.33308 23.7731V26.9333C9.33308 27.3067 9.33308 27.4934 9.40574 27.636C9.46966 27.7614 9.57164 27.8634 9.69708 27.9273C9.83969 28 10.0264 28 10.3997 28H12.9331C13.3064 28 13.4931 28 13.6357 27.9273C13.7612 27.8634 13.8632 27.7614 13.9271 27.636C13.9997 27.4934 13.9997 27.3067 13.9997 26.9333V26.4C13.9997 26.0266 13.9997 25.8399 14.0724 25.6973C14.1363 25.5719 14.2383 25.4699 14.3638 25.406C14.5064 25.3333 14.693 25.3333 15.0664 25.3333H16.9331C17.3064 25.3333 17.4931 25.3333 17.6357 25.406C17.7612 25.4699 17.8632 25.5719 17.9271 25.6973C17.9997 25.8399 17.9997 26.0266 17.9997 26.4V26.9333C17.9997 27.3067 17.9997 27.4934 18.0724 27.636C18.1363 27.7614 18.2383 27.8634 18.3638 27.9273C18.5064 28 18.693 28 19.0664 28H21.5998C21.9732 28 22.1599 28 22.3025 27.9273C22.4279 27.8634 22.5299 27.7614 22.5938 27.636C22.6665 27.4934 22.6665 27.3067 22.6665 26.9333V25.6324C22.6665 25.363 22.6665 25.2283 22.7049 25.1202C22.7416 25.0165 22.7879 24.944 22.8665 24.867C22.9484 24.7867 23.0872 24.7222 23.3648 24.5934C24.6744 23.9854 25.7919 23.0334 26.6013 21.8536C26.7437 21.6461 26.8148 21.5423 26.8908 21.4811C26.9635 21.4225 27.0287 21.3881 27.1182 21.3613C27.2117 21.3333 27.3227 21.3333 27.5448 21.3333H28.2665C28.6399 21.3333 28.8266 21.3333 28.9692 21.2607C29.0946 21.1968 29.1966 21.0948 29.2605 20.9693C29.3332 20.8267 29.3332 20.64 29.3332 20.2667V15.7143C29.3332 15.3589 29.3332 15.1812 29.2671 15.044C29.2016 14.908 29.0918 14.7982 28.9558 14.7327C28.8187 14.6667 28.641 14.6667 28.2855 14.6667C28.0282 14.6667 27.8996 14.6667 27.796 14.6317C27.6842 14.5941 27.6059 14.544 27.5248 14.4584C27.4496 14.379 27.3883 14.2462 27.2655 13.9806C26.8716 13.1283 26.332 12.357 25.6788 11.6987C25.5405 11.5593 25.4713 11.4896 25.4305 11.4225C25.3915 11.3585 25.3688 11.3034 25.3514 11.2306C25.3332 11.1542 25.3332 11.0673 25.3332 10.8936V9.4141C25.3332 8.93404 25.3332 8.69401 25.2332 8.53267C25.1456 8.39134 25.0084 8.28784 24.8485 8.24246C24.6659 8.19066 24.4351 8.2566 23.9735 8.38848L20.8101 9.29229C20.7563 9.30765 20.7294 9.31533 20.7021 9.32072C20.6778 9.32551 20.6533 9.32895 20.6286 9.33101C20.6009 9.33333 20.5729 9.33333 20.517 9.33333H19.9452M6.66641 17.3333C6.66641 14.2612 8.39803 11.5936 10.9385 10.2532M6.66641 17.3333H5.33317C3.86041 17.3333 2.6665 16.1394 2.6665 14.6667C2.6665 13.6796 3.20277 12.8178 3.99984 12.3568M19.9998 8.66667C19.9998 11.244 17.9105 13.3333 15.3332 13.3333C12.7558 13.3333 10.6665 11.244 10.6665 8.66667C10.6665 6.08934 12.7558 4 15.3332 4C17.9105 4 19.9998 6.08934 19.9998 8.66667Z" stroke="#553860" stroke-width="2.5" stroke-linecap="round" stroke-linejoin="round"/>
<path d="M44.192 17.804H40.448L39.648 23.5H36.544L38.592 8.972H46.176L45.824 11.468H41.344L40.768 15.436H44.512L44.192 17.804ZM50.5212 6.892C51.0119 6.892 51.3852 7.06267 51.6412 7.404C51.9185 7.74533 52.0145 8.18267 51.9292 8.716C51.8652 9.228 51.6519 9.65467 51.2892 9.996C50.9265 10.316 50.4999 10.476 50.0092 10.476C49.5399 10.476 49.1665 10.316 48.8892 9.996C48.6119 9.65467 48.5052 9.228 48.5692 8.716C48.6759 8.18267 48.9105 7.74533 49.2732 7.404C49.6359 7.06267 50.0519 6.892 50.5212 6.892ZM49.6572 23.5H46.6812L48.2172 12.364L51.2892 11.948L49.6572 23.5ZM53.9887 12.172H56.6127L56.4847 13.612H56.5487C56.6554 13.548 56.8047 13.42 56.9967 13.228C57.21 13.036 57.4767 12.844 57.7967 12.652C58.586 12.1613 59.3647 11.916 60.1327 11.916C61.1994 11.916 61.9034 12.236 62.2447 12.876C62.586 13.516 62.6607 14.508 62.4687 15.852L61.3807 23.5H58.4687L59.3967 16.588C59.5034 15.7773 59.4927 15.2333 59.3647 14.956C59.2367 14.6573 58.9487 14.508 58.5007 14.508C58.1167 14.508 57.7647 14.6253 57.4447 14.86C56.8474 15.3293 56.5167 15.628 56.4527 15.756L55.3647 23.5H52.3887L53.9887 12.172ZM71.9952 11.468H69.0512L67.3552 23.5H64.2832L65.9472 11.468H62.9712L63.2912 8.972H72.3792L71.9952 11.468ZM75.8734 23.5H72.8974L74.4974 12.172H77.1214L77.0254 13.676H77.0574C77.3774 13.164 77.7828 12.7373 78.2734 12.396C78.7641 12.0547 79.1908 11.884 79.5534 11.884C79.9161 11.884 80.1508 11.916 80.2574 11.98C80.3854 12.0227 80.5028 12.0653 80.6094 12.108L80.0014 14.7C79.8734 14.6787 79.7028 14.636 79.4894 14.572C79.2974 14.508 79.0734 14.476 78.8174 14.476C78.5614 14.476 78.2948 14.5613 78.0174 14.732C77.7401 14.9027 77.3881 15.18 76.9614 15.564L75.8734 23.5ZM88.3236 14.316C87.9396 14.2733 87.4382 14.252 86.8196 14.252C86.2009 14.252 85.6782 14.508 85.2516 15.02C84.8462 15.532 84.5476 16.46 84.3556 17.804C84.1849 19.1267 84.1956 20.0333 84.3876 20.524C84.6009 21.0147 85.0062 21.26 85.6036 21.26C85.9662 21.26 86.3182 21.1533 86.6596 20.94C87.0222 20.7053 87.3102 20.46 87.5236 20.204L88.3236 14.316ZM87.5236 22.156C86.3076 23.244 85.1236 23.788 83.9716 23.788C82.3076 23.788 81.3582 22.7533 81.1236 20.684C81.0382 19.9587 81.0702 19.0627 81.2196 17.996C81.3689 16.908 81.6249 15.98 81.9876 15.212C82.3502 14.444 82.7769 13.8147 83.2676 13.324C84.1849 12.428 85.3262 11.98 86.6916 11.98C88.3129 11.98 89.9449 12.14 91.5876 12.46L90.0196 23.5H87.5236V22.156ZM99.9445 14.572C99.2405 14.3373 98.6432 14.22 98.1525 14.22C97.4058 14.22 96.8192 14.5187 96.3925 15.116C95.9658 15.692 95.6565 16.6307 95.4645 17.932C95.2938 19.212 95.3472 20.1187 95.6245 20.652C95.9232 21.164 96.3392 21.42 96.8725 21.42C97.4272 21.42 97.9072 21.3453 98.3125 21.196C98.7178 21.0253 98.9952 20.9187 99.1445 20.876L99.5605 22.732C98.3872 23.436 97.2672 23.788 96.2005 23.788C93.1285 23.788 91.8592 21.8573 92.3925 17.996C92.9258 13.9427 94.8138 11.916 98.0565 11.916C98.9738 11.916 99.8272 12.0653 100.616 12.364L99.9445 14.572ZM103.182 7.628L106.19 7.212L104.814 17.068L108.366 12.172H111.726L107.342 17.228L110.478 23.5H106.958L104.654 18.092L103.918 23.5H100.942L103.182 7.628Z" fill="#553860"/>
</svg>
