<svg width="18" height="18" viewBox="0 0 18 18" fill="none" xmlns="http://www.w3.org/2000/svg">
<mask id="path-1-inside-1_310_1610" fill="white">
<path d="M16.5 17.0625H1.5C1.1925 17.0625 0.9375 16.8075 0.9375 16.5C0.9375 16.1925 1.1925 15.9375 1.5 15.9375H16.5C16.8075 15.9375 17.0625 16.1925 17.0625 16.5C17.0625 16.8075 16.8075 17.0625 16.5 17.0625Z"/>
</mask>
<path d="M16.5 17.0625H1.5C1.1925 17.0625 0.9375 16.8075 0.9375 16.5C0.9375 16.1925 1.1925 15.9375 1.5 15.9375H16.5C16.8075 15.9375 17.0625 16.1925 17.0625 16.5C17.0625 16.8075 16.8075 17.0625 16.5 17.0625Z" fill="#664373"/>
<path d="M16.5 17.0625V15.5625H1.5V17.0625V18.5625H16.5V17.0625ZM1.5 17.0625V15.5625C2.02093 15.5625 2.4375 15.9791 2.4375 16.5H0.9375H-0.5625C-0.5625 17.6359 0.364073 18.5625 1.5 18.5625V17.0625ZM0.9375 16.5H2.4375C2.4375 17.0209 2.02093 17.4375 1.5 17.4375V15.9375V14.4375C0.364073 14.4375 -0.5625 15.3641 -0.5625 16.5H0.9375ZM1.5 15.9375V17.4375H16.5V15.9375V14.4375H1.5V15.9375ZM16.5 15.9375V17.4375C15.9791 17.4375 15.5625 17.0209 15.5625 16.5H17.0625H18.5625C18.5625 15.3641 17.6359 14.4375 16.5 14.4375V15.9375ZM17.0625 16.5H15.5625C15.5625 15.9791 15.9791 15.5625 16.5 15.5625V17.0625V18.5625C17.6359 18.5625 18.5625 17.6359 18.5625 16.5H17.0625Z" fill="#664373" mask="url(#path-1-inside-1_310_1610)"/>
<mask id="path-3-inside-2_310_1610" fill="white">
<path d="M10.6875 17.0625H7.3125C7.005 17.0625 6.75 16.8075 6.75 16.5V3C6.75 1.71 7.4625 0.9375 8.6625 0.9375H9.3375C10.5375 0.9375 11.25 1.71 11.25 3V16.5C11.25 16.8075 10.995 17.0625 10.6875 17.0625ZM7.875 15.9375H10.125V3C10.125 2.1375 9.72 2.0625 9.3375 2.0625H8.6625C8.28 2.0625 7.875 2.1375 7.875 3V15.9375Z"/>
</mask>
<path d="M10.6875 17.0625H7.3125C7.005 17.0625 6.75 16.8075 6.75 16.5V3C6.75 1.71 7.4625 0.9375 8.6625 0.9375H9.3375C10.5375 0.9375 11.25 1.71 11.25 3V16.5C11.25 16.8075 10.995 17.0625 10.6875 17.0625ZM7.875 15.9375H10.125V3C10.125 2.1375 9.72 2.0625 9.3375 2.0625H8.6625C8.28 2.0625 7.875 2.1375 7.875 3V15.9375Z" fill="#664373"/>
<path d="M10.125 15.9375V17.4375H11.625V15.9375H10.125ZM10.6875 17.0625V15.5625H7.3125V17.0625V18.5625H10.6875V17.0625ZM7.3125 17.0625V15.5625C7.83343 15.5625 8.25 15.9791 8.25 16.5H6.75H5.25C5.25 17.6359 6.17657 18.5625 7.3125 18.5625V17.0625ZM6.75 16.5H8.25V3H6.75H5.25V16.5H6.75ZM6.75 3H8.25C8.25 2.62252 8.35176 2.50966 8.35689 2.50411C8.36215 2.49843 8.37288 2.48747 8.40612 2.4744C8.44307 2.45988 8.52288 2.4375 8.6625 2.4375V0.9375V-0.5625C7.72983 -0.5625 6.82074 -0.252452 6.15561 0.465888C5.50449 1.16909 5.25 2.08748 5.25 3H6.75ZM8.6625 0.9375V2.4375H9.3375V0.9375V-0.5625H8.6625V0.9375ZM9.3375 0.9375V2.4375C9.47712 2.4375 9.55693 2.45988 9.59388 2.4744C9.62712 2.48747 9.63785 2.49843 9.64311 2.50411C9.64824 2.50966 9.75 2.62252 9.75 3H11.25H12.75C12.75 2.08748 12.4955 1.16909 11.8444 0.465888C11.1793 -0.252452 10.2702 -0.5625 9.3375 -0.5625V0.9375ZM11.25 3H9.75V16.5H11.25H12.75V3H11.25ZM11.25 16.5H9.75C9.75 15.9791 10.1666 15.5625 10.6875 15.5625V17.0625V18.5625C11.8234 18.5625 12.75 17.6359 12.75 16.5H11.25ZM7.875 15.9375V17.4375H10.125V15.9375V14.4375H7.875V15.9375ZM10.125 15.9375H11.625V3H10.125H8.625V15.9375H10.125ZM10.125 3H11.625C11.625 2.38152 11.4844 1.60678 10.8455 1.06437C10.25 0.558707 9.55326 0.5625 9.3375 0.5625V2.0625V3.5625C9.39616 3.5625 9.36377 3.56701 9.29474 3.55158C9.21273 3.53325 9.05873 3.48276 8.90384 3.35125C8.56313 3.06197 8.625 2.75598 8.625 3H10.125ZM9.3375 2.0625V0.5625H8.6625V2.0625V3.5625H9.3375V2.0625ZM8.6625 2.0625V0.5625C8.44674 0.5625 7.75003 0.558707 7.15447 1.06437C6.51563 1.60678 6.375 2.38152 6.375 3H7.875H9.375C9.375 2.75598 9.43687 3.06197 9.09616 3.35125C8.94127 3.48276 8.78727 3.53325 8.70526 3.55158C8.63623 3.56701 8.60384 3.5625 8.6625 3.5625V2.0625ZM7.875 3H6.375V15.9375H7.875H9.375V3H7.875Z" fill="#664373" mask="url(#path-3-inside-2_310_1610)"/>
<mask id="path-5-inside-3_310_1610" fill="white">
<path d="M5.25 17.0625H2.25C1.9425 17.0625 1.6875 16.8075 1.6875 16.5V7.5C1.6875 6.21 2.3475 5.4375 3.45 5.4375H4.05C5.1525 5.4375 5.8125 6.21 5.8125 7.5V16.5C5.8125 16.8075 5.5575 17.0625 5.25 17.0625ZM2.8125 15.9375H4.6875V7.5C4.6875 6.5625 4.275 6.5625 4.05 6.5625H3.45C3.225 6.5625 2.8125 6.5625 2.8125 7.5V15.9375Z"/>
</mask>
<path d="M5.25 17.0625H2.25C1.9425 17.0625 1.6875 16.8075 1.6875 16.5V7.5C1.6875 6.21 2.3475 5.4375 3.45 5.4375H4.05C5.1525 5.4375 5.8125 6.21 5.8125 7.5V16.5C5.8125 16.8075 5.5575 17.0625 5.25 17.0625ZM2.8125 15.9375H4.6875V7.5C4.6875 6.5625 4.275 6.5625 4.05 6.5625H3.45C3.225 6.5625 2.8125 6.5625 2.8125 7.5V15.9375Z" fill="#664373"/>
<path d="M4.6875 15.9375V17.4375H6.1875V15.9375H4.6875ZM5.25 17.0625V15.5625H2.25V17.0625V18.5625H5.25V17.0625ZM2.25 17.0625V15.5625C2.77093 15.5625 3.1875 15.9791 3.1875 16.5H1.6875H0.1875C0.1875 17.6359 1.11407 18.5625 2.25 18.5625V17.0625ZM1.6875 16.5H3.1875V7.5H1.6875H0.1875V16.5H1.6875ZM1.6875 7.5H3.1875C3.1875 7.09499 3.29124 6.96466 3.29569 6.95945C3.29682 6.95813 3.29387 6.95986 3.2983 6.95796C3.30609 6.95464 3.35017 6.9375 3.45 6.9375V5.4375V3.9375C2.52466 3.9375 1.64218 4.2765 1.01494 5.01055C0.413765 5.71409 0.1875 6.61501 0.1875 7.5H1.6875ZM3.45 5.4375V6.9375H4.05V5.4375V3.9375H3.45V5.4375ZM4.05 5.4375V6.9375C4.14983 6.9375 4.19391 6.95464 4.2017 6.95796C4.20613 6.95986 4.20318 6.95813 4.20431 6.95945C4.20876 6.96466 4.3125 7.09499 4.3125 7.5H5.8125H7.3125C7.3125 6.61501 7.08624 5.71409 6.48506 5.01055C5.85782 4.2765 4.97534 3.9375 4.05 3.9375V5.4375ZM5.8125 7.5H4.3125V16.5H5.8125H7.3125V7.5H5.8125ZM5.8125 16.5H4.3125C4.3125 15.9791 4.72907 15.5625 5.25 15.5625V17.0625V18.5625C6.38593 18.5625 7.3125 17.6359 7.3125 16.5H5.8125ZM2.8125 15.9375V17.4375H4.6875V15.9375V14.4375H2.8125V15.9375ZM4.6875 15.9375H6.1875V7.5H4.6875H3.1875V15.9375H4.6875ZM4.6875 7.5H6.1875C6.1875 6.87754 6.06106 6.10446 5.45215 5.56078C4.84597 5.01955 4.12122 5.0625 4.05 5.0625V6.5625V8.0625C4.20378 8.0625 3.79778 8.10545 3.4541 7.79859C3.10769 7.48929 3.1875 7.18496 3.1875 7.5H4.6875ZM4.05 6.5625V5.0625H3.45V6.5625V8.0625H4.05V6.5625ZM3.45 6.5625V5.0625C3.37878 5.0625 2.65403 5.01955 2.04785 5.56078C1.43894 6.10446 1.3125 6.87754 1.3125 7.5H2.8125H4.3125C4.3125 7.18496 4.39231 7.48929 4.0459 7.79859C3.70222 8.10545 3.29622 8.0625 3.45 8.0625V6.5625ZM2.8125 7.5H1.3125V15.9375H2.8125H4.3125V7.5H2.8125Z" fill="#664373" mask="url(#path-5-inside-3_310_1610)"/>
<mask id="path-7-inside-4_310_1610" fill="white">
<path d="M15.75 17.0625H12.75C12.4425 17.0625 12.1875 16.8075 12.1875 16.5V11.25C12.1875 9.96 12.8475 9.1875 13.95 9.1875H14.55C15.6525 9.1875 16.3125 9.96 16.3125 11.25V16.5C16.3125 16.8075 16.0575 17.0625 15.75 17.0625ZM13.3125 15.9375H15.1875V11.25C15.1875 10.3125 14.775 10.3125 14.55 10.3125H13.95C13.725 10.3125 13.3125 10.3125 13.3125 11.25V15.9375Z"/>
</mask>
<path d="M15.75 17.0625H12.75C12.4425 17.0625 12.1875 16.8075 12.1875 16.5V11.25C12.1875 9.96 12.8475 9.1875 13.95 9.1875H14.55C15.6525 9.1875 16.3125 9.96 16.3125 11.25V16.5C16.3125 16.8075 16.0575 17.0625 15.75 17.0625ZM13.3125 15.9375H15.1875V11.25C15.1875 10.3125 14.775 10.3125 14.55 10.3125H13.95C13.725 10.3125 13.3125 10.3125 13.3125 11.25V15.9375Z" fill="#664373"/>
<path d="M16.3125 16.5H17.8125H16.3125ZM15.1875 15.9375V17.4375H16.6875V15.9375H15.1875ZM15.75 17.0625V15.5625H12.75V17.0625V18.5625H15.75V17.0625ZM12.75 17.0625V15.5625C13.2709 15.5625 13.6875 15.9791 13.6875 16.5H12.1875H10.6875C10.6875 17.6359 11.6141 18.5625 12.75 18.5625V17.0625ZM12.1875 16.5H13.6875V11.25H12.1875H10.6875V16.5H12.1875ZM12.1875 11.25H13.6875C13.6875 10.845 13.7912 10.7147 13.7957 10.7094C13.7968 10.7081 13.7939 10.7099 13.7983 10.708C13.8061 10.7046 13.8502 10.6875 13.95 10.6875V9.1875V7.6875C13.0247 7.6875 12.1422 8.0265 11.5149 8.76055C10.9138 9.46409 10.6875 10.365 10.6875 11.25H12.1875ZM13.95 9.1875V10.6875H14.55V9.1875V7.6875H13.95V9.1875ZM14.55 9.1875V10.6875C14.6498 10.6875 14.6939 10.7046 14.7017 10.708C14.7061 10.7099 14.7032 10.7081 14.7043 10.7094C14.7088 10.7147 14.8125 10.845 14.8125 11.25H16.3125H17.8125C17.8125 10.365 17.5862 9.46409 16.9851 8.76055C16.3578 8.0265 15.4753 7.6875 14.55 7.6875V9.1875ZM16.3125 11.25H14.8125V16.5H16.3125H17.8125V11.25H16.3125ZM16.3125 16.5H14.8125C14.8125 15.9791 15.2291 15.5625 15.75 15.5625V17.0625V18.5625C16.8859 18.5625 17.8125 17.6359 17.8125 16.5H16.3125ZM13.3125 15.9375V17.4375H15.1875V15.9375V14.4375H13.3125V15.9375ZM15.1875 15.9375H16.6875V11.25H15.1875H13.6875V15.9375H15.1875ZM15.1875 11.25H16.6875C16.6875 10.6275 16.5611 9.85445 15.9521 9.31078C15.346 8.76955 14.6212 8.8125 14.55 8.8125V10.3125V11.8125C14.7038 11.8125 14.2978 11.8555 13.9541 11.5486C13.6077 11.2393 13.6875 10.935 13.6875 11.25H15.1875ZM14.55 10.3125V8.8125H13.95V10.3125V11.8125H14.55V10.3125ZM13.95 10.3125V8.8125C13.8788 8.8125 13.154 8.76955 12.5479 9.31078C11.9389 9.85445 11.8125 10.6275 11.8125 11.25H13.3125H14.8125C14.8125 10.935 14.8923 11.2393 14.5459 11.5486C14.2022 11.8555 13.7962 11.8125 13.95 11.8125V10.3125ZM13.3125 11.25H11.8125V15.9375H13.3125H14.8125V11.25H13.3125Z" fill="#664373" mask="url(#path-7-inside-4_310_1610)"/>
</svg>
