<svg width="117" height="116" viewBox="0 0 117 116" fill="none" xmlns="http://www.w3.org/2000/svg">
    <path d="M52.8932 65.4434H45.6432C40.0848 65.4434 35.5898 60.8034 35.5898 55.0517C35.5898 53.07 37.2332 51.4267 39.2148 51.4267C41.1965 51.4267 42.8398 53.07 42.8398 55.0517C42.8398 56.7917 44.0965 58.1934 45.6432 58.1934H52.8932C54.0048 58.1934 54.8748 57.1784 54.8748 55.9217C54.8748 54.23 54.5848 54.1334 53.4732 53.7467L41.8248 49.6867C37.6198 48.2367 35.5415 45.2884 35.5415 40.6967C35.5415 35.4767 39.6982 31.175 44.7732 31.175H52.0232C57.5815 31.175 62.0765 35.8151 62.0765 41.5667C62.0765 43.5484 60.4332 45.1917 58.4515 45.1917C56.4698 45.1917 54.8265 43.5484 54.8265 41.5667C54.8265 39.8267 53.5698 38.425 52.0232 38.425H44.7732C43.6615 38.425 42.7915 39.44 42.7915 40.6967C42.7915 42.3884 43.0815 42.485 44.1932 42.8717L55.8415 46.9317C60.0465 48.43 62.0765 51.3784 62.0765 55.9217C62.1248 61.19 57.9682 65.4434 52.8932 65.4434Z" fill="#664373"/>
    <path d="M48.8335 69.3101C46.8518 69.3101 45.2085 67.6667 45.2085 65.6851V62.1084C45.2085 60.1267 46.8518 58.4834 48.8335 58.4834C50.8152 58.4834 52.4585 60.1267 52.4585 62.1084V65.6851C52.4585 67.7151 50.8152 69.3101 48.8335 69.3101Z" fill="#664373"/>
    <path d="M48.8335 38.3767C46.8518 38.3767 45.2085 36.7334 45.2085 34.7517V30.9817C45.2085 29 46.8518 27.3567 48.8335 27.3567C50.8152 27.3567 52.4585 29 52.4585 30.9817V34.7517C52.4585 36.7334 50.8152 38.3767 48.8335 38.3767Z" fill="#664373"/>
    <path d="M48.7848 90.4801C25.4882 90.4801 6.5415 71.5334 6.5415 48.2367C6.5415 24.9401 25.4882 5.99341 48.7848 5.99341C72.0815 5.99341 91.0282 24.9401 91.0282 48.2367C91.0282 71.5334 72.0332 90.4801 48.7848 90.4801ZM48.7848 13.2917C29.4998 13.2917 13.7915 29.0001 13.7915 48.2851C13.7915 67.5701 29.4998 83.2301 48.7848 83.2301C68.0698 83.2301 83.7782 67.5217 83.7782 48.2367C83.7782 28.9517 68.0698 13.2917 48.7848 13.2917Z" fill="#664373"/>
    <path d="M82.7633 109.813C73.8216 109.813 65.4116 105.463 60.2399 98.1166C59.0799 96.4732 59.4666 94.2016 61.11 93.0416C62.7533 91.8816 65.025 92.2682 66.185 93.9116C70.0033 99.3249 76.19 102.515 82.7633 102.515C93.9766 102.515 103.063 93.4282 103.063 82.2149C103.063 75.6899 99.8733 69.5032 94.5566 65.6849C92.9133 64.5249 92.575 62.2532 93.735 60.6099C94.895 58.9666 97.1666 58.6282 98.81 59.7882C106.012 64.9599 110.313 73.3216 110.313 82.2149C110.313 97.4882 97.9883 109.813 82.7633 109.813Z" fill="#664373"/>
</svg>
