<svg width="25" height="24" viewBox="0 0 25 24" fill="none" xmlns="http://www.w3.org/2000/svg">
  <path d="M14.0667 17.4201H11.5567C9.91666 17.4201 8.58666 16.0401 8.58666 14.3401C8.58666 13.9301 8.92666 13.5901 9.33666 13.5901C9.74666 13.5901 10.0867 13.9301 10.0867 14.3401C10.0867 15.2101 10.7467 15.9201 11.5567 15.9201H14.0667C14.7167 15.9201 15.2567 15.3401 15.2567 14.6401C15.2567 13.7701 14.9467 13.6001 14.4367 13.4201L10.4067 12.0001C9.62666 11.7301 8.57666 11.1501 8.57666 9.36008C8.57666 7.82008 9.78666 6.58008 11.2667 6.58008H13.7767C15.4167 6.58008 16.7467 7.96008 16.7467 9.66008C16.7467 10.0701 16.4067 10.4101 15.9967 10.4101C15.5867 10.4101 15.2467 10.0701 15.2467 9.66008C15.2467 8.79008 14.5867 8.08008 13.7767 8.08008H11.2667C10.6167 8.08008 10.0767 8.66008 10.0767 9.36008C10.0767 10.2301 10.3867 10.4001 10.8967 10.5801L14.9267 12.0001C15.7067 12.2701 16.7567 12.8501 16.7567 14.6401C16.7467 16.1701 15.5467 17.4201 14.0667 17.4201Z" fill="#241B28"/>
  <path d="M12.6666 18.75C12.2566 18.75 11.9166 18.41 11.9166 18V6C11.9166 5.59 12.2566 5.25 12.6666 5.25C13.0766 5.25 13.4166 5.59 13.4166 6V18C13.4166 18.41 13.0766 18.75 12.6666 18.75Z" fill="#241B28"/>
  <path d="M15.6666 22.75H9.66663C4.23663 22.75 1.91663 20.43 1.91663 15V9C1.91663 3.57 4.23663 1.25 9.66663 1.25H15.6666C21.0966 1.25 23.4166 3.57 23.4166 9V15C23.4166 20.43 21.0966 22.75 15.6666 22.75ZM9.66663 2.75C5.05663 2.75 3.41663 4.39 3.41663 9V15C3.41663 19.61 5.05663 21.25 9.66663 21.25H15.6666C20.2766 21.25 21.9166 19.61 21.9166 15V9C21.9166 4.39 20.2766 2.75 15.6666 2.75H9.66663Z" fill="#241B28"/>
</svg>
