<svg width="117" height="116" viewBox="0 0 117 116" fill="none" xmlns="http://www.w3.org/2000/svg">
    <path d="M58.5001 78.9284C46.9484 78.9284 37.5718 69.5518 37.5718 58.0001C37.5718 46.4484 46.9484 37.0718 58.5001 37.0718C70.0518 37.0718 79.4284 46.4484 79.4284 58.0001C79.4284 69.5518 70.0518 78.9284 58.5001 78.9284ZM58.5001 44.3218C50.9601 44.3218 44.8218 50.4601 44.8218 58.0001C44.8218 65.5401 50.9601 71.6784 58.5001 71.6784C66.0401 71.6784 72.1784 65.5401 72.1784 58.0001C72.1784 50.4601 66.0401 44.3218 58.5001 44.3218Z" fill="#664373"/>
    <path d="M58.5002 101.597C40.3269 101.597 23.1685 90.9633 11.3752 72.5C6.25188 64.525 6.25188 51.5233 11.3752 43.5C23.2169 25.0367 40.3752 14.4033 58.5002 14.4033C76.6252 14.4033 93.7835 25.0367 105.577 43.5C110.7 51.475 110.7 64.4767 105.577 72.5C93.7835 90.9633 76.6252 101.597 58.5002 101.597ZM58.5002 21.6533C42.8885 21.6533 27.9535 31.03 17.5135 47.415C13.8885 53.07 13.8885 62.93 17.5135 68.585C27.9535 84.97 42.8885 94.3467 58.5002 94.3467C74.1119 94.3467 89.0469 84.97 99.4869 68.585C103.112 62.93 103.112 53.07 99.4869 47.415C89.0469 31.03 74.1119 21.6533 58.5002 21.6533Z" fill="#664373"/>
</svg>
