<svg width="1160" height="916" viewBox="0 0 1160 916" fill="none" xmlns="http://www.w3.org/2000/svg">
<g filter="url(#filter0_ddd_29_2196)">
<mask id="path-1-outside-1_29_2196" maskUnits="userSpaceOnUse" x="67" y="15" width="1026" height="722" fill="black">
<rect fill="white" x="67" y="15" width="1026" height="722"/>
<path d="M68 38C68 25.8497 77.8497 16 90 16H1070C1082.15 16 1092 25.8497 1092 38V714C1092 726.15 1082.15 736 1070 736H90C77.8497 736 68 726.15 68 714V38Z"/>
</mask>
<path d="M68 38C68 25.8497 77.8497 16 90 16H1070C1082.15 16 1092 25.8497 1092 38V714C1092 726.15 1082.15 736 1070 736H90C77.8497 736 68 726.15 68 714V38Z" fill="#E1E1E1"/>
<path d="M90 16V17H1070V16V15H90V16ZM1092 38H1091V714H1092H1093V38H1092ZM1070 736V735H90V736V737H1070V736ZM68 714H69V38H68H67V714H68ZM90 736V735C78.402 735 69 725.598 69 714H68H67C67 726.703 77.2975 737 90 737V736ZM1092 714H1091C1091 725.598 1081.6 735 1070 735V736V737C1082.7 737 1093 726.703 1093 714H1092ZM1070 16V17C1081.6 17 1091 26.402 1091 38H1092H1093C1093 25.2975 1082.7 15 1070 15V16ZM90 16V15C77.2975 15 67 25.2974 67 38H68H69C69 26.402 78.402 17 90 17V16Z" fill="black" fill-opacity="0.16" mask="url(#path-1-outside-1_29_2196)"/>
<path opacity="0.5" d="M108 143C108 131.402 117.402 122 129 122H270C281.598 122 291 131.402 291 143C291 154.598 281.598 164 270 164H129C117.402 164 108 154.598 108 143Z" fill="black" fill-opacity="0.2"/>
<path opacity="0.5" d="M108 209C108 197.402 117.402 188 129 188H235C246.598 188 256 197.402 256 209C256 220.598 246.598 230 235 230H129C117.402 230 108 220.598 108 209Z" fill="black" fill-opacity="0.2"/>
<path opacity="0.5" d="M108 275C108 263.402 117.402 254 129 254H252C263.598 254 273 263.402 273 275C273 286.598 263.598 296 252 296H129C117.402 296 108 286.598 108 275Z" fill="black" fill-opacity="0.2"/>
<path opacity="0.3" d="M323 144C323 131.85 332.85 122 345 122H1030C1042.15 122 1052 131.85 1052 144V674C1052 686.15 1042.15 696 1030 696H345C332.85 696 323 686.15 323 674V144Z" fill="black" fill-opacity="0.2"/>
<path opacity="0.5" d="M108 341C108 329.402 117.402 320 129 320H235C246.598 320 256 329.402 256 341C256 352.598 246.598 362 235 362H129C117.402 362 108 352.598 108 341Z" fill="black" fill-opacity="0.2"/>
<path d="M122.708 73.0417C122.708 77.2313 124.398 81.0264 127.133 83.7826C127.396 84.0485 127.528 84.1814 127.606 84.3092C127.68 84.4312 127.724 84.5361 127.757 84.675C127.792 84.8206 127.792 84.9862 127.792 85.3175V91.3417C127.792 92.0534 127.792 92.4093 127.93 92.6811C128.052 92.9202 128.246 93.1147 128.486 93.2365C128.757 93.375 129.113 93.375 129.825 93.375H134.654C135.366 93.375 135.722 93.375 135.994 93.2365C136.233 93.1147 136.427 92.9202 136.549 92.6811C136.687 92.4093 136.687 92.0534 136.687 91.3417V90.325C136.687 89.6133 136.687 89.2574 136.826 88.9856C136.948 88.7464 137.142 88.552 137.381 88.4302C137.653 88.2917 138.009 88.2917 138.721 88.2917H142.279C142.991 88.2917 143.347 88.2917 143.619 88.4302C143.858 88.552 144.052 88.7464 144.174 88.9856C144.312 89.2574 144.312 89.6133 144.312 90.325V91.3417C144.312 92.0534 144.312 92.4093 144.451 92.6811C144.573 92.9202 144.767 93.1147 145.006 93.2365C145.278 93.375 145.634 93.375 146.346 93.375H151.175C151.887 93.375 152.243 93.375 152.515 93.2365C152.754 93.1147 152.948 92.9202 153.07 92.6811C153.208 92.4093 153.208 92.0534 153.208 91.3417V88.8618C153.208 88.3483 153.208 88.0915 153.282 87.8854C153.352 87.6878 153.44 87.5495 153.59 87.4027C153.746 87.2496 154.01 87.1268 154.54 86.8811C157.036 85.7221 159.166 83.9075 160.709 81.6583C160.981 81.2628 161.116 81.0651 161.261 80.9483C161.4 80.8366 161.524 80.7711 161.694 80.72C161.873 80.6667 162.084 80.6667 162.508 80.6667H163.883C164.595 80.6667 164.951 80.6667 165.223 80.5282C165.462 80.4063 165.656 80.2119 165.778 79.9728C165.917 79.7009 165.917 79.3451 165.917 78.6333V69.9554C165.917 69.2779 165.917 68.9391 165.791 68.6777C165.666 68.4184 165.457 68.2091 165.197 68.0842C164.936 67.9583 164.597 67.9583 163.92 67.9583C163.429 67.9583 163.184 67.9583 162.987 67.8918C162.774 67.82 162.624 67.7245 162.47 67.5613C162.326 67.4099 162.209 67.1568 161.975 66.6506C161.224 65.0258 160.196 63.5556 158.951 62.3007C158.687 62.0349 158.555 61.902 158.477 61.7741C158.403 61.6522 158.36 61.5472 158.327 61.4083C158.292 61.2627 158.292 61.0971 158.292 60.7659V57.9456C158.292 57.0305 158.292 56.573 158.101 56.2654C157.934 55.996 157.673 55.7987 157.368 55.7122C157.02 55.6134 156.58 55.7391 155.7 55.9905L149.67 57.7134C149.567 57.7427 149.516 57.7574 149.464 57.7676C149.418 57.7768 149.371 57.7833 149.324 57.7872C149.271 57.7917 149.218 57.7917 149.111 57.7917H148.021M122.708 73.0417C122.708 67.1855 126.009 62.1003 130.852 59.5452M122.708 73.0417H120.167C117.359 73.0417 115.083 70.7658 115.083 67.9583C115.083 66.0768 116.106 64.434 117.625 63.5551M148.125 56.5208C148.125 61.4339 144.142 65.4167 139.229 65.4167C134.316 65.4167 130.333 61.4339 130.333 56.5208C130.333 51.6078 134.316 47.625 139.229 47.625C144.142 47.625 148.125 51.6078 148.125 56.5208Z" stroke="#553860" stroke-width="4" stroke-linecap="round" stroke-linejoin="round"/>
<path d="M188.653 70.5067H182.413L181.08 80H175.907L179.32 55.7867H191.96L191.373 59.9467H183.907L182.947 66.56H189.187L188.653 70.5067ZM199.202 52.32C200.02 52.32 200.642 52.6044 201.069 53.1733C201.531 53.7422 201.691 54.4711 201.549 55.36C201.442 56.2133 201.086 56.9244 200.482 57.4933C199.878 58.0267 199.166 58.2933 198.349 58.2933C197.566 58.2933 196.944 58.0267 196.482 57.4933C196.02 56.9244 195.842 56.2133 195.949 55.36C196.126 54.4711 196.518 53.7422 197.122 53.1733C197.726 52.6044 198.42 52.32 199.202 52.32ZM197.762 80H192.802L195.362 61.44L200.482 60.7467L197.762 80ZM204.981 61.12H209.354L209.141 63.52H209.248C209.426 63.4133 209.674 63.2 209.994 62.88C210.35 62.56 210.794 62.24 211.328 61.92C212.643 61.1022 213.941 60.6933 215.221 60.6933C216.999 60.6933 218.172 61.2267 218.741 62.2933C219.31 63.36 219.434 65.0133 219.114 67.2533L217.301 80H212.448L213.994 68.48C214.172 67.1289 214.154 66.2222 213.941 65.76C213.728 65.2622 213.248 65.0133 212.501 65.0133C211.861 65.0133 211.274 65.2089 210.741 65.6C209.746 66.3822 209.194 66.88 209.088 67.0933L207.274 80H202.314L204.981 61.12ZM234.992 59.9467H230.085L227.259 80H222.139L224.912 59.9467H219.952L220.485 55.7867H235.632L234.992 59.9467ZM241.456 80H236.496L239.162 61.12H243.536L243.376 63.6267H243.429C243.962 62.7733 244.638 62.0622 245.456 61.4933C246.274 60.9244 246.985 60.64 247.589 60.64C248.194 60.64 248.585 60.6933 248.762 60.8C248.976 60.8711 249.171 60.9422 249.349 61.0133L248.336 65.3333C248.122 65.2978 247.838 65.2267 247.482 65.12C247.162 65.0133 246.789 64.96 246.362 64.96C245.936 64.96 245.491 65.1022 245.029 65.3867C244.567 65.6711 243.98 66.1333 243.269 66.7733L241.456 80ZM262.206 64.6933C261.566 64.6222 260.73 64.5867 259.699 64.5867C258.668 64.5867 257.797 65.0133 257.086 65.8667C256.41 66.72 255.913 68.2667 255.593 70.5067C255.308 72.7111 255.326 74.2222 255.646 75.04C256.001 75.8578 256.677 76.2667 257.673 76.2667C258.277 76.2667 258.864 76.0889 259.433 75.7333C260.037 75.3422 260.517 74.9333 260.873 74.5067L262.206 64.6933ZM260.873 77.76C258.846 79.5733 256.873 80.48 254.953 80.48C252.179 80.48 250.597 78.7556 250.206 75.3067C250.064 74.0978 250.117 72.6044 250.366 70.8267C250.615 69.0133 251.041 67.4667 251.646 66.1867C252.25 64.9067 252.961 63.8578 253.779 63.04C255.308 61.5467 257.21 60.8 259.486 60.8C262.188 60.8 264.908 61.0667 267.646 61.6L265.033 80H260.873V77.76ZM281.574 65.12C280.401 64.7289 279.405 64.5333 278.587 64.5333C277.343 64.5333 276.365 65.0311 275.654 66.0267C274.943 66.9867 274.427 68.5511 274.107 70.72C273.823 72.8533 273.912 74.3644 274.374 75.2533C274.872 76.1067 275.565 76.5333 276.454 76.5333C277.379 76.5333 278.179 76.4089 278.854 76.16C279.53 75.8756 279.992 75.6978 280.241 75.6267L280.934 78.72C278.979 79.8933 277.112 80.48 275.334 80.48C270.214 80.48 268.099 77.2622 268.987 70.8267C269.876 64.0711 273.023 60.6933 278.427 60.6933C279.956 60.6933 281.379 60.9422 282.694 61.44L281.574 65.12ZM286.97 53.5467L291.983 52.8533L289.69 69.28L295.61 61.12H301.21L293.903 69.5467L299.13 80H293.263L289.423 70.9867L288.196 80H283.236L286.97 53.5467Z" fill="#553860"/>
<rect x="867" y="46.5" width="194" height="48" rx="8" fill="#664373"/>
<path d="M890.56 77.74C889.16 77.74 887.96 77.4933 886.96 77C885.973 76.5067 885.213 75.74 884.68 74.7C884.16 73.6467 883.9 72.2933 883.9 70.64C883.9 68.2267 884.487 66.44 885.66 65.28C886.833 64.12 888.467 63.54 890.56 63.54C891.693 63.54 892.713 63.7333 893.62 64.12C894.54 64.5067 895.267 65.0933 895.8 65.88C896.347 66.6533 896.62 67.64 896.62 68.84H893.96C893.96 68.1733 893.813 67.6133 893.52 67.16C893.24 66.6933 892.847 66.34 892.34 66.1C891.833 65.86 891.253 65.74 890.6 65.74C889.693 65.74 888.94 65.92 888.34 66.28C887.74 66.6267 887.293 67.1467 887 67.84C886.72 68.5333 886.58 69.3933 886.58 70.42V70.86C886.58 71.9 886.72 72.7667 887 73.46C887.293 74.1533 887.733 74.6733 888.32 75.02C888.92 75.3667 889.68 75.54 890.6 75.54C891.293 75.54 891.9 75.4267 892.42 75.2C892.94 74.96 893.34 74.6133 893.62 74.16C893.913 73.6933 894.06 73.1267 894.06 72.46H896.62C896.62 73.66 896.353 74.6533 895.82 75.44C895.287 76.2133 894.56 76.7933 893.64 77.18C892.733 77.5533 891.707 77.74 890.56 77.74ZM898.714 77.5V66.98H900.754L900.954 68.64H901.094C901.227 68.3067 901.387 68 901.574 67.72C901.774 67.4267 902.027 67.1933 902.334 67.02C902.641 66.8333 903.014 66.74 903.454 66.74C903.667 66.74 903.861 66.76 904.034 66.8C904.221 66.84 904.361 66.88 904.454 66.92V69.22H903.714C903.301 69.22 902.934 69.28 902.614 69.4C902.294 69.5067 902.021 69.68 901.794 69.92C901.581 70.16 901.421 70.46 901.314 70.82C901.207 71.18 901.154 71.6 901.154 72.08V77.5H898.714ZM905.96 65.36V63.04H908.4V65.36H905.96ZM905.96 77.5V66.98H908.4V77.5H905.96ZM913.699 77.74C913.406 77.74 913.066 77.7 912.679 77.62C912.306 77.5533 911.939 77.42 911.579 77.22C911.233 77.02 910.946 76.7267 910.719 76.34C910.493 75.94 910.379 75.42 910.379 74.78C910.379 74.06 910.539 73.4667 910.859 73C911.179 72.52 911.626 72.1467 912.199 71.88C912.786 71.6 913.479 71.4067 914.279 71.3C915.093 71.18 915.979 71.12 916.939 71.12V70.26C916.939 69.9533 916.893 69.68 916.799 69.44C916.706 69.2 916.533 69.0133 916.279 68.88C916.039 68.7333 915.673 68.66 915.179 68.66C914.686 68.66 914.299 68.72 914.019 68.84C913.739 68.96 913.546 69.1067 913.439 69.28C913.333 69.4533 913.279 69.6333 913.279 69.82V70.1H910.919C910.906 70.0333 910.899 69.9667 910.899 69.9C910.899 69.8333 910.899 69.7533 910.899 69.66C910.899 69.06 911.079 68.54 911.439 68.1C911.799 67.66 912.299 67.3267 912.939 67.1C913.579 66.86 914.319 66.74 915.159 66.74C916.119 66.74 916.906 66.8733 917.519 67.14C918.146 67.4067 918.613 67.7867 918.919 68.28C919.226 68.7733 919.379 69.3733 919.379 70.08V75.04C919.379 75.2933 919.453 75.4733 919.599 75.58C919.746 75.6867 919.906 75.74 920.079 75.74H920.719V77.42C920.586 77.4733 920.393 77.5333 920.139 77.6C919.886 77.68 919.573 77.72 919.199 77.72C918.853 77.72 918.539 77.66 918.259 77.54C917.993 77.4333 917.766 77.2733 917.579 77.06C917.393 76.8467 917.259 76.5933 917.179 76.3H917.059C916.833 76.58 916.559 76.8333 916.239 77.06C915.933 77.2733 915.566 77.44 915.139 77.56C914.726 77.68 914.246 77.74 913.699 77.74ZM914.439 75.74C914.839 75.74 915.193 75.68 915.499 75.56C915.819 75.44 916.079 75.2733 916.279 75.06C916.493 74.8467 916.653 74.5867 916.759 74.28C916.879 73.9733 916.939 73.64 916.939 73.28V72.8C916.206 72.8 915.526 72.8467 914.899 72.94C914.286 73.0333 913.793 73.2067 913.419 73.46C913.059 73.7133 912.879 74.0733 912.879 74.54C912.879 74.78 912.933 74.9933 913.039 75.18C913.159 75.3533 913.333 75.4933 913.559 75.6C913.799 75.6933 914.093 75.74 914.439 75.74ZM922.113 77.5V66.98H924.153L924.353 68.64H924.493C924.626 68.3067 924.786 68 924.973 67.72C925.173 67.4267 925.426 67.1933 925.733 67.02C926.039 66.8333 926.413 66.74 926.853 66.74C927.066 66.74 927.259 66.76 927.433 66.8C927.619 66.84 927.759 66.88 927.853 66.92V69.22H927.113C926.699 69.22 926.333 69.28 926.013 69.4C925.693 69.5067 925.419 69.68 925.193 69.92C924.979 70.16 924.819 70.46 924.713 70.82C924.606 71.18 924.553 71.6 924.553 72.08V77.5H922.113ZM932.972 77.5V66.98H935.012L935.212 68.38H935.352C935.579 68.06 935.839 67.78 936.132 67.54C936.425 67.2867 936.759 67.0933 937.132 66.96C937.519 66.8133 937.939 66.74 938.392 66.74C939.005 66.74 939.552 66.8667 940.032 67.12C940.512 67.3733 940.885 67.7933 941.152 68.38H941.292C941.519 68.06 941.785 67.78 942.092 67.54C942.399 67.2867 942.752 67.0933 943.152 66.96C943.552 66.8133 943.985 66.74 944.452 66.74C945.079 66.74 945.632 66.8533 946.112 67.08C946.592 67.3067 946.972 67.68 947.252 68.2C947.532 68.72 947.672 69.4133 947.672 70.28V77.5H945.232V70.78C945.232 70.42 945.192 70.12 945.112 69.88C945.032 69.6267 944.919 69.4333 944.772 69.3C944.639 69.1533 944.465 69.0467 944.252 68.98C944.052 68.9133 943.832 68.88 943.592 68.88C943.205 68.88 942.859 68.9867 942.552 69.2C942.245 69.4133 941.999 69.7067 941.812 70.08C941.639 70.4533 941.552 70.8867 941.552 71.38V77.5H939.112V70.78C939.112 70.42 939.072 70.12 938.992 69.88C938.912 69.6267 938.799 69.4333 938.652 69.3C938.519 69.1533 938.345 69.0467 938.132 68.98C937.932 68.9133 937.712 68.88 937.472 68.88C937.085 68.88 936.732 68.9867 936.412 69.2C936.105 69.4133 935.859 69.7067 935.672 70.08C935.499 70.4533 935.412 70.8867 935.412 71.38V77.5H932.972ZM950.198 65.36V63.04H952.638V65.36H950.198ZM950.198 77.5V66.98H952.638V77.5H950.198ZM955.238 77.5V66.98H957.278L957.478 68.38H957.618C957.858 68.06 958.138 67.78 958.458 67.54C958.791 67.2867 959.164 67.0933 959.578 66.96C960.004 66.8133 960.471 66.74 960.978 66.74C961.644 66.74 962.231 66.86 962.738 67.1C963.258 67.34 963.664 67.7267 963.958 68.26C964.251 68.7933 964.398 69.5067 964.398 70.4V77.5H961.938V70.84C961.938 70.4667 961.891 70.16 961.798 69.92C961.718 69.6667 961.591 69.4667 961.418 69.32C961.258 69.16 961.058 69.0467 960.818 68.98C960.578 68.9133 960.311 68.88 960.018 68.88C959.578 68.88 959.178 68.9867 958.818 69.2C958.471 69.4133 958.191 69.7067 957.978 70.08C957.778 70.4533 957.678 70.8867 957.678 71.38V77.5H955.238ZM966.917 77.5V63.04H969.357V68.18H969.497C969.724 67.9 969.991 67.6533 970.297 67.44C970.604 67.2267 970.951 67.06 971.337 66.94C971.737 66.8067 972.177 66.74 972.657 66.74C973.324 66.74 973.911 66.86 974.417 67.1C974.937 67.34 975.344 67.7267 975.637 68.26C975.931 68.7933 976.077 69.5067 976.077 70.4V77.5H973.617V70.84C973.617 70.4667 973.571 70.16 973.477 69.92C973.397 69.6667 973.271 69.4667 973.097 69.32C972.937 69.16 972.737 69.0467 972.497 68.98C972.257 68.9133 971.991 68.88 971.697 68.88C971.257 68.88 970.857 68.9867 970.497 69.2C970.151 69.4133 969.871 69.7067 969.657 70.08C969.457 70.4533 969.357 70.8867 969.357 71.38V77.5H966.917ZM981.297 77.74C981.004 77.74 980.664 77.7 980.277 77.62C979.904 77.5533 979.537 77.42 979.177 77.22C978.83 77.02 978.544 76.7267 978.317 76.34C978.09 75.94 977.977 75.42 977.977 74.78C977.977 74.06 978.137 73.4667 978.457 73C978.777 72.52 979.224 72.1467 979.797 71.88C980.384 71.6 981.077 71.4067 981.877 71.3C982.69 71.18 983.577 71.12 984.537 71.12V70.26C984.537 69.9533 984.49 69.68 984.397 69.44C984.304 69.2 984.13 69.0133 983.877 68.88C983.637 68.7333 983.27 68.66 982.777 68.66C982.284 68.66 981.897 68.72 981.617 68.84C981.337 68.96 981.144 69.1067 981.037 69.28C980.93 69.4533 980.877 69.6333 980.877 69.82V70.1H978.517C978.504 70.0333 978.497 69.9667 978.497 69.9C978.497 69.8333 978.497 69.7533 978.497 69.66C978.497 69.06 978.677 68.54 979.037 68.1C979.397 67.66 979.897 67.3267 980.537 67.1C981.177 66.86 981.917 66.74 982.757 66.74C983.717 66.74 984.504 66.8733 985.117 67.14C985.744 67.4067 986.21 67.7867 986.517 68.28C986.824 68.7733 986.977 69.3733 986.977 70.08V75.04C986.977 75.2933 987.05 75.4733 987.197 75.58C987.344 75.6867 987.504 75.74 987.677 75.74H988.317V77.42C988.184 77.4733 987.99 77.5333 987.737 77.6C987.484 77.68 987.17 77.72 986.797 77.72C986.45 77.72 986.137 77.66 985.857 77.54C985.59 77.4333 985.364 77.2733 985.177 77.06C984.99 76.8467 984.857 76.5933 984.777 76.3H984.657C984.43 76.58 984.157 76.8333 983.837 77.06C983.53 77.2733 983.164 77.44 982.737 77.56C982.324 77.68 981.844 77.74 981.297 77.74ZM982.037 75.74C982.437 75.74 982.79 75.68 983.097 75.56C983.417 75.44 983.677 75.2733 983.877 75.06C984.09 74.8467 984.25 74.5867 984.357 74.28C984.477 73.9733 984.537 73.64 984.537 73.28V72.8C983.804 72.8 983.124 72.8467 982.497 72.94C981.884 73.0333 981.39 73.2067 981.017 73.46C980.657 73.7133 980.477 74.0733 980.477 74.54C980.477 74.78 980.53 74.9933 980.637 75.18C980.757 75.3533 980.93 75.4933 981.157 75.6C981.397 75.6933 981.69 75.74 982.037 75.74ZM998.094 77.74C997.001 77.74 996.087 77.5467 995.354 77.16C994.634 76.76 994.094 76.1533 993.734 75.34C993.374 74.5267 993.194 73.4933 993.194 72.24C993.194 70.9733 993.374 69.94 993.734 69.14C994.107 68.3267 994.654 67.7267 995.374 67.34C996.107 66.94 997.014 66.74 998.094 66.74C998.801 66.74 999.427 66.8267 999.974 67C1000.52 67.1733 1000.99 67.44 1001.37 67.8C1001.77 68.1467 1002.07 68.58 1002.27 69.1C1002.47 69.62 1002.57 70.2267 1002.57 70.92H1000.09C1000.09 70.4267 1000.02 70.02 999.874 69.7C999.727 69.38 999.501 69.14 999.194 68.98C998.901 68.8067 998.521 68.72 998.054 68.72C997.507 68.72 997.061 68.8467 996.714 69.1C996.367 69.3533 996.107 69.7333 995.934 70.24C995.774 70.7333 995.694 71.36 995.694 72.12V72.38C995.694 73.1267 995.774 73.7533 995.934 74.26C996.107 74.7667 996.374 75.1467 996.734 75.4C997.094 75.64 997.567 75.76 998.154 75.76C998.607 75.76 998.981 75.68 999.274 75.52C999.581 75.3467 999.814 75.0933 999.974 74.76C1000.13 74.4267 1000.21 74.0267 1000.21 73.56H1002.57C1002.57 74.2133 1002.47 74.8 1002.27 75.32C1002.07 75.84 1001.78 76.28 1001.39 76.64C1001.01 77 1000.53 77.2733 999.974 77.46C999.427 77.6467 998.801 77.74 998.094 77.74ZM1009.33 77.74C1008.18 77.74 1007.22 77.5467 1006.45 77.16C1005.68 76.76 1005.1 76.1533 1004.71 75.34C1004.32 74.5267 1004.13 73.4933 1004.13 72.24C1004.13 70.9733 1004.32 69.94 1004.71 69.14C1005.1 68.3267 1005.68 67.7267 1006.45 67.34C1007.22 66.94 1008.18 66.74 1009.33 66.74C1010.49 66.74 1011.45 66.94 1012.21 67.34C1012.98 67.7267 1013.56 68.3267 1013.95 69.14C1014.34 69.94 1014.53 70.9733 1014.53 72.24C1014.53 73.4933 1014.34 74.5267 1013.95 75.34C1013.56 76.1533 1012.98 76.76 1012.21 77.16C1011.45 77.5467 1010.49 77.74 1009.33 77.74ZM1009.33 75.74C1009.97 75.74 1010.48 75.62 1010.87 75.38C1011.27 75.1267 1011.56 74.7533 1011.73 74.26C1011.92 73.7533 1012.01 73.1267 1012.01 72.38V72.1C1012.01 71.3533 1011.92 70.7333 1011.73 70.24C1011.56 69.7333 1011.27 69.36 1010.87 69.12C1010.48 68.8667 1009.97 68.74 1009.33 68.74C1008.69 68.74 1008.17 68.8667 1007.77 69.12C1007.38 69.36 1007.1 69.7333 1006.91 70.24C1006.74 70.7333 1006.65 71.3533 1006.65 72.1V72.38C1006.65 73.1267 1006.74 73.7533 1006.91 74.26C1007.1 74.7533 1007.38 75.1267 1007.77 75.38C1008.17 75.62 1008.69 75.74 1009.33 75.74ZM1016.6 77.5V66.98H1018.64L1018.84 68.38H1018.98C1019.22 68.06 1019.5 67.78 1019.82 67.54C1020.16 67.2867 1020.53 67.0933 1020.94 66.96C1021.37 66.8133 1021.84 66.74 1022.34 66.74C1023.01 66.74 1023.6 66.86 1024.1 67.1C1024.62 67.34 1025.03 67.7267 1025.32 68.26C1025.62 68.7933 1025.76 69.5067 1025.76 70.4V77.5H1023.3V70.84C1023.3 70.4667 1023.26 70.16 1023.16 69.92C1023.08 69.6667 1022.96 69.4667 1022.78 69.32C1022.62 69.16 1022.42 69.0467 1022.18 68.98C1021.94 68.9133 1021.68 68.88 1021.38 68.88C1020.94 68.88 1020.54 68.9867 1020.18 69.2C1019.84 69.4133 1019.56 69.7067 1019.34 70.08C1019.14 70.4533 1019.04 70.8867 1019.04 71.38V77.5H1016.6ZM1031.06 77.74C1030.41 77.74 1029.9 77.6133 1029.52 77.36C1029.15 77.0933 1028.88 76.76 1028.72 76.36C1028.58 75.9467 1028.5 75.5267 1028.5 75.1V68.98H1027.24V66.98H1028.56L1029 64.04H1030.94V66.98H1032.76V68.98H1030.94V74.86C1030.94 75.14 1031.02 75.36 1031.16 75.52C1031.31 75.6667 1031.53 75.74 1031.82 75.74H1032.76V77.42C1032.63 77.4733 1032.46 77.52 1032.26 77.56C1032.08 77.6133 1031.88 77.6533 1031.66 77.68C1031.45 77.72 1031.25 77.74 1031.06 77.74ZM1037.27 77.74C1036.98 77.74 1036.64 77.7 1036.25 77.62C1035.88 77.5533 1035.51 77.42 1035.15 77.22C1034.81 77.02 1034.52 76.7267 1034.29 76.34C1034.07 75.94 1033.95 75.42 1033.95 74.78C1033.95 74.06 1034.11 73.4667 1034.43 73C1034.75 72.52 1035.2 72.1467 1035.77 71.88C1036.36 71.6 1037.05 71.4067 1037.85 71.3C1038.67 71.18 1039.55 71.12 1040.51 71.12V70.26C1040.51 69.9533 1040.47 69.68 1040.37 69.44C1040.28 69.2 1040.11 69.0133 1039.85 68.88C1039.61 68.7333 1039.25 68.66 1038.75 68.66C1038.26 68.66 1037.87 68.72 1037.59 68.84C1037.31 68.96 1037.12 69.1067 1037.01 69.28C1036.91 69.4533 1036.85 69.6333 1036.85 69.82V70.1H1034.49C1034.48 70.0333 1034.47 69.9667 1034.47 69.9C1034.47 69.8333 1034.47 69.7533 1034.47 69.66C1034.47 69.06 1034.65 68.54 1035.01 68.1C1035.37 67.66 1035.87 67.3267 1036.51 67.1C1037.15 66.86 1037.89 66.74 1038.73 66.74C1039.69 66.74 1040.48 66.8733 1041.09 67.14C1041.72 67.4067 1042.19 67.7867 1042.49 68.28C1042.8 68.7733 1042.95 69.3733 1042.95 70.08V75.04C1042.95 75.2933 1043.03 75.4733 1043.17 75.58C1043.32 75.6867 1043.48 75.74 1043.65 75.74H1044.29V77.42C1044.16 77.4733 1043.97 77.5333 1043.71 77.6C1043.46 77.68 1043.15 77.72 1042.77 77.72C1042.43 77.72 1042.11 77.66 1041.83 77.54C1041.57 77.4333 1041.34 77.2733 1041.15 77.06C1040.97 76.8467 1040.83 76.5933 1040.75 76.3H1040.63C1040.41 76.58 1040.13 76.8333 1039.81 77.06C1039.51 77.2733 1039.14 77.44 1038.71 77.56C1038.3 77.68 1037.82 77.74 1037.27 77.74ZM1038.01 75.74C1038.41 75.74 1038.77 75.68 1039.07 75.56C1039.39 75.44 1039.65 75.2733 1039.85 75.06C1040.07 74.8467 1040.23 74.5867 1040.33 74.28C1040.45 73.9733 1040.51 73.64 1040.51 73.28V72.8C1039.78 72.8 1039.1 72.8467 1038.47 72.94C1037.86 73.0333 1037.37 73.2067 1036.99 73.46C1036.63 73.7133 1036.45 74.0733 1036.45 74.54C1036.45 74.78 1036.51 74.9933 1036.61 75.18C1036.73 75.3533 1036.91 75.4933 1037.13 75.6C1037.37 75.6933 1037.67 75.74 1038.01 75.74Z" fill="#C3C3C3"/>
</g>
<defs>
<filter id="filter0_ddd_29_2196" x="0" y="0" width="1160" height="916" filterUnits="userSpaceOnUse" color-interpolation-filters="sRGB">
<feFlood flood-opacity="0" result="BackgroundImageFix"/>
<feColorMatrix in="SourceAlpha" type="matrix" values="0 0 0 0 0 0 0 0 0 0 0 0 0 0 0 0 0 0 127 0" result="hardAlpha"/>
<feOffset dy="12"/>
<feGaussianBlur stdDeviation="13.5"/>
<feColorMatrix type="matrix" values="0 0 0 0 0 0 0 0 0 0 0 0 0 0 0 0 0 0 0.03 0"/>
<feBlend mode="normal" in2="BackgroundImageFix" result="effect1_dropShadow_29_2196"/>
<feColorMatrix in="SourceAlpha" type="matrix" values="0 0 0 0 0 0 0 0 0 0 0 0 0 0 0 0 0 0 127 0" result="hardAlpha"/>
<feOffset dy="50"/>
<feGaussianBlur stdDeviation="25"/>
<feColorMatrix type="matrix" values="0 0 0 0 0 0 0 0 0 0 0 0 0 0 0 0 0 0 0.03 0"/>
<feBlend mode="normal" in2="effect1_dropShadow_29_2196" result="effect2_dropShadow_29_2196"/>
<feColorMatrix in="SourceAlpha" type="matrix" values="0 0 0 0 0 0 0 0 0 0 0 0 0 0 0 0 0 0 127 0" result="hardAlpha"/>
<feOffset dy="112"/>
<feGaussianBlur stdDeviation="33.5"/>
<feColorMatrix type="matrix" values="0 0 0 0 0 0 0 0 0 0 0 0 0 0 0 0 0 0 0.02 0"/>
<feBlend mode="normal" in2="effect2_dropShadow_29_2196" result="effect3_dropShadow_29_2196"/>
<feBlend mode="normal" in="SourceGraphic" in2="effect3_dropShadow_29_2196" result="shape"/>
</filter>
</defs>
</svg>
