<svg width="664" height="394" viewBox="0 0 664 394" fill="none" xmlns="http://www.w3.org/2000/svg">
<g filter="url(#filter0_dddd_29_2246)">
<mask id="path-1-inside-1_29_2246" fill="white">
<path d="M184 55C184 42.8497 193.85 33 206 33H458C470.15 33 480 42.8497 480 55V415C480 427.15 470.15 437 458 437H206C193.85 437 184 427.15 184 415V55Z"/>
</mask>
<path d="M184 55C184 42.8497 193.85 33 206 33H458C470.15 33 480 42.8497 480 55V415C480 427.15 470.15 437 458 437H206C193.85 437 184 427.15 184 415V55Z" fill="#E1E1E1"/>
<path d="M184 55C184 42.8497 193.85 33 206 33H458C470.15 33 480 42.8497 480 55V415C480 427.15 470.15 437 458 437H206C193.85 437 184 427.15 184 415V55Z" fill="url(#paint0_linear_29_2246)" fill-opacity="0.16" style="mix-blend-mode:luminosity"/>
<path d="M206 33V34H458V33V32H206V33ZM480 55H479V415H480H481V55H480ZM458 437V436H206V437V438H458V437ZM184 415H185V55H184H183V415H184ZM206 437V436C194.402 436 185 426.598 185 415H184H183C183 427.703 193.297 438 206 438V437ZM480 415H479C479 426.598 469.598 436 458 436V437V438C470.703 438 481 427.703 481 415H480ZM458 33V34C469.598 34 479 43.402 479 55H480H481C481 42.2975 470.703 32 458 32V33ZM206 33V32C193.297 32 183 42.2975 183 55H184H185C185 43.402 194.402 34 206 34V33Z" fill="#241B28" fill-opacity="0.16" mask="url(#path-1-inside-1_29_2246)"/>
<path d="M212 77C212 68.1634 219.163 61 228 61H338C346.837 61 354 68.1634 354 77C354 85.8366 346.837 93 338 93H228C219.163 93 212 85.8366 212 77Z" fill="black" fill-opacity="0.2"/>
<path opacity="0.5" d="M212 135C212 122.85 221.85 113 234 113H430C442.15 113 452 122.85 452 135V387C452 399.15 442.15 409 430 409H234C221.85 409 212 399.15 212 387V135Z" fill="black" fill-opacity="0.2"/>
</g>
<g filter="url(#filter1_dddd_29_2246)">
<mask id="path-5-inside-2_29_2246" fill="white">
<path d="M73 311C73 298.85 82.8497 289 95 289H282C294.15 289 304 298.85 304 311V339C304 351.15 294.15 361 282 361H95C82.8497 361 73 351.15 73 339V311Z"/>
</mask>
<path d="M73 311C73 298.85 82.8497 289 95 289H282C294.15 289 304 298.85 304 311V339C304 351.15 294.15 361 282 361H95C82.8497 361 73 351.15 73 339V311Z" fill="#E1E1E1"/>
<path d="M73 311C73 298.85 82.8497 289 95 289H282C294.15 289 304 298.85 304 311V339C304 351.15 294.15 361 282 361H95C82.8497 361 73 351.15 73 339V311Z" fill="white"/>
<path d="M73 311C73 298.85 82.8497 289 95 289H282C294.15 289 304 298.85 304 311V339C304 351.15 294.15 361 282 361H95C82.8497 361 73 351.15 73 339V311Z" fill="url(#paint1_linear_29_2246)" fill-opacity="0.32" style="mix-blend-mode:luminosity"/>
<path d="M95 289V290H282V289V288H95V289ZM304 311H303V339H304H305V311H304ZM282 361V360H95V361V362H282V361ZM73 339H74V311H73H72V339H73ZM95 361V360C83.402 360 74 350.598 74 339H73H72C72 351.703 82.2975 362 95 362V361ZM304 339H303C303 350.598 293.598 360 282 360V361V362C294.703 362 305 351.703 305 339H304ZM282 289V290C293.598 290 303 299.402 303 311H304H305C305 298.297 294.703 288 282 288V289ZM95 289V288C82.2975 288 72 298.297 72 311H73H74C74 299.402 83.402 290 95 290V289Z" fill="#241B28" fill-opacity="0.16" mask="url(#path-5-inside-2_29_2246)"/>
<path d="M153 334.2C152.387 334.2 151.873 334.12 151.46 333.96C151.047 333.787 150.727 333.513 150.5 333.14C150.287 332.767 150.18 332.26 150.18 331.62C150.18 331.42 150.167 331.18 150.14 330.9C150.113 330.62 150.04 330.353 149.92 330.1C149.813 329.833 149.64 329.613 149.4 329.44C149.16 329.253 148.827 329.16 148.4 329.16H147.24V334H143.14V320.28H150.82C151.473 320.28 152.087 320.413 152.66 320.68C153.247 320.933 153.72 321.313 154.08 321.82C154.453 322.313 154.64 322.933 154.64 323.68C154.64 324.307 154.527 324.873 154.3 325.38C154.073 325.873 153.773 326.293 153.4 326.64C153.027 326.973 152.62 327.227 152.18 327.4V327.5C152.567 327.62 152.9 327.787 153.18 328C153.46 328.213 153.687 328.467 153.86 328.76C154.033 329.04 154.16 329.333 154.24 329.64C154.333 329.947 154.38 330.247 154.38 330.54C154.38 330.74 154.387 330.973 154.4 331.24C154.413 331.493 154.447 331.74 154.5 331.98C154.567 332.22 154.667 332.433 154.8 332.62C154.947 332.807 155.147 332.933 155.4 333V333.82C155.04 333.967 154.647 334.067 154.22 334.12C153.793 334.173 153.387 334.2 153 334.2ZM147.24 326.1H149.28C149.48 326.1 149.66 326.04 149.82 325.92C149.993 325.787 150.127 325.613 150.22 325.4C150.313 325.187 150.36 324.94 150.36 324.66C150.36 324.233 150.26 323.92 150.06 323.72C149.86 323.52 149.62 323.42 149.34 323.42H147.24V326.1ZM161.653 334.2C160.599 334.2 159.659 334.007 158.833 333.62C158.006 333.233 157.353 332.667 156.873 331.92C156.406 331.173 156.173 330.267 156.173 329.2V328.58C156.173 327.513 156.406 326.607 156.873 325.86C157.339 325.113 157.986 324.547 158.813 324.16C159.639 323.773 160.579 323.58 161.633 323.58H162.133C163.186 323.58 164.079 323.78 164.813 324.18C165.546 324.58 166.106 325.127 166.493 325.82C166.879 326.5 167.073 327.287 167.073 328.18V329.42H160.413C160.413 329.847 160.446 330.24 160.513 330.6C160.593 330.96 160.733 331.247 160.933 331.46C161.133 331.673 161.433 331.78 161.833 331.78C162.193 331.78 162.486 331.713 162.713 331.58C162.939 331.447 163.106 331.26 163.213 331.02C163.333 330.767 163.393 330.48 163.393 330.16H167.053C167.053 330.907 166.846 331.587 166.433 332.2C166.019 332.813 165.433 333.3 164.673 333.66C163.913 334.02 163.006 334.2 161.953 334.2H161.653ZM160.413 327.68H163.173C163.173 327.093 163.039 326.667 162.773 326.4C162.519 326.133 162.193 326 161.793 326C161.379 326 161.046 326.147 160.793 326.44C160.539 326.72 160.413 327.133 160.413 327.68ZM168.645 334V319.6H172.605V334H168.645ZM177.302 334.2C176.755 334.2 176.235 334.107 175.742 333.92C175.248 333.72 174.848 333.407 174.542 332.98C174.235 332.553 174.082 331.98 174.082 331.26C174.082 330.553 174.235 329.967 174.542 329.5C174.848 329.033 175.288 328.667 175.862 328.4C176.448 328.133 177.155 327.947 177.982 327.84C178.808 327.733 179.742 327.68 180.782 327.68V326.98C180.782 326.593 180.655 326.32 180.402 326.16C180.148 325.987 179.842 325.9 179.482 325.9C179.095 325.9 178.782 325.987 178.542 326.16C178.315 326.333 178.202 326.56 178.202 326.84V326.92H174.402C174.388 326.893 174.382 326.853 174.382 326.8C174.382 326.747 174.382 326.693 174.382 326.64C174.382 326.067 174.575 325.553 174.962 325.1C175.348 324.633 175.902 324.267 176.622 324C177.342 323.72 178.195 323.58 179.182 323.58H179.842C181.455 323.58 182.655 323.893 183.442 324.52C184.228 325.133 184.622 325.9 184.622 326.82V331.04C184.622 331.307 184.688 331.5 184.822 331.62C184.955 331.727 185.095 331.78 185.242 331.78C185.362 331.78 185.482 331.767 185.602 331.74C185.722 331.7 185.835 331.653 185.942 331.6V333.74C185.768 333.873 185.515 333.98 185.182 334.06C184.862 334.153 184.442 334.2 183.922 334.2C183.335 334.2 182.835 334.133 182.422 334C182.008 333.853 181.682 333.66 181.442 333.42C181.215 333.18 181.062 332.9 180.982 332.58C180.635 332.98 180.162 333.353 179.562 333.7C178.975 334.033 178.222 334.2 177.302 334.2ZM179.422 331.78C179.662 331.78 179.882 331.727 180.082 331.62C180.295 331.5 180.462 331.333 180.582 331.12C180.715 330.907 180.782 330.66 180.782 330.38V329.5C180.168 329.5 179.675 329.56 179.302 329.68C178.928 329.787 178.655 329.94 178.482 330.14C178.308 330.327 178.222 330.553 178.222 330.82C178.222 331.207 178.342 331.467 178.582 331.6C178.835 331.72 179.115 331.78 179.422 331.78ZM191.322 334.22C190.602 334.22 189.969 334.14 189.422 333.98C188.875 333.807 188.442 333.513 188.122 333.1C187.815 332.687 187.662 332.12 187.662 331.4V326.62H186.542V323.78H187.822L189.202 320.52H191.622V323.78H194.022V326.62H191.622V330.4C191.622 330.987 191.742 331.367 191.982 331.54C192.222 331.7 192.482 331.78 192.762 331.78C192.909 331.78 193.109 331.76 193.362 331.72C193.629 331.667 193.842 331.607 194.002 331.54V333.78C193.789 333.873 193.509 333.953 193.162 334.02C192.829 334.087 192.495 334.133 192.162 334.16C191.829 334.2 191.549 334.22 191.322 334.22ZM200.281 334.2C199.268 334.2 198.361 333.987 197.561 333.56C196.761 333.12 196.128 332.52 195.661 331.76C195.208 330.987 194.981 330.1 194.981 329.1V328.68C194.981 327.667 195.208 326.78 195.661 326.02C196.128 325.26 196.761 324.667 197.561 324.24C198.361 323.8 199.268 323.58 200.281 323.58H200.921C201.934 323.58 202.841 323.8 203.641 324.24C204.441 324.667 205.068 325.26 205.521 326.02C205.988 326.78 206.221 327.667 206.221 328.68V329.1C206.221 330.113 205.988 331.007 205.521 331.78C205.068 332.54 204.441 333.133 203.641 333.56C202.841 333.987 201.934 334.2 200.921 334.2H200.281ZM200.601 331.78C200.868 331.78 201.101 331.72 201.301 331.6C201.514 331.467 201.681 331.293 201.801 331.08C201.921 330.867 201.981 330.633 201.981 330.38V327.4C201.981 327.133 201.921 326.9 201.801 326.7C201.681 326.487 201.514 326.32 201.301 326.2C201.101 326.067 200.868 326 200.601 326C200.348 326 200.114 326.067 199.901 326.2C199.688 326.32 199.521 326.487 199.401 326.7C199.281 326.9 199.221 327.133 199.221 327.4V330.38C199.221 330.633 199.281 330.867 199.401 331.08C199.521 331.293 199.688 331.467 199.901 331.6C200.114 331.72 200.348 331.78 200.601 331.78ZM199.161 322.34L200.981 318.78H204.281L204.321 318.84L201.821 322.34H199.161ZM207.746 334V323.78H210.706L211.146 325.26C211.186 325.18 211.266 325.053 211.386 324.88C211.519 324.693 211.699 324.5 211.926 324.3C212.153 324.1 212.426 323.933 212.746 323.8C213.066 323.653 213.433 323.58 213.846 323.58C214.499 323.58 215.026 323.7 215.426 323.94C215.839 324.167 216.139 324.513 216.326 324.98C216.526 325.433 216.626 325.993 216.626 326.66C216.626 326.82 216.619 327.013 216.606 327.24C216.593 327.467 216.573 327.693 216.546 327.92H213.306V327.44C213.306 327.253 213.273 327.087 213.206 326.94C213.139 326.78 213.046 326.66 212.926 326.58C212.806 326.487 212.653 326.44 212.466 326.44C212.333 326.44 212.206 326.467 212.086 326.52C211.979 326.573 211.893 326.647 211.826 326.74C211.759 326.82 211.706 326.92 211.666 327.04C211.626 327.16 211.606 327.293 211.606 327.44V334H207.746ZM217.883 334V323.8H221.843V334H217.883ZM217.883 322.46V319.6H221.843V322.46H217.883ZM228.66 334.2C227.647 334.2 226.74 333.987 225.94 333.56C225.14 333.12 224.507 332.52 224.04 331.76C223.587 330.987 223.36 330.1 223.36 329.1V328.68C223.36 327.667 223.587 326.78 224.04 326.02C224.507 325.26 225.14 324.667 225.94 324.24C226.74 323.8 227.647 323.58 228.66 323.58H229.3C230.313 323.58 231.22 323.8 232.02 324.24C232.82 324.667 233.447 325.26 233.9 326.02C234.367 326.78 234.6 327.667 234.6 328.68V329.1C234.6 330.113 234.367 331.007 233.9 331.78C233.447 332.54 232.82 333.133 232.02 333.56C231.22 333.987 230.313 334.2 229.3 334.2H228.66ZM228.98 331.78C229.247 331.78 229.48 331.72 229.68 331.6C229.893 331.467 230.06 331.293 230.18 331.08C230.3 330.867 230.36 330.633 230.36 330.38V327.4C230.36 327.133 230.3 326.9 230.18 326.7C230.06 326.487 229.893 326.32 229.68 326.2C229.48 326.067 229.247 326 228.98 326C228.727 326 228.493 326.067 228.28 326.2C228.067 326.32 227.9 326.487 227.78 326.7C227.66 326.9 227.6 327.133 227.6 327.4V330.38C227.6 330.633 227.66 330.867 227.78 331.08C227.9 331.293 228.067 331.467 228.28 331.6C228.493 331.72 228.727 331.78 228.98 331.78ZM239.985 334.2C239.452 334.2 238.918 334.133 238.385 334C237.865 333.88 237.392 333.693 236.965 333.44C236.538 333.173 236.198 332.84 235.945 332.44C235.692 332.04 235.565 331.567 235.565 331.02C235.565 330.953 235.565 330.893 235.565 330.84C235.565 330.787 235.572 330.727 235.585 330.66H238.845C238.832 330.687 238.825 330.713 238.825 330.74C238.825 330.753 238.825 330.773 238.825 330.8C238.825 331.053 238.918 331.253 239.105 331.4C239.292 331.547 239.518 331.647 239.785 331.7C240.052 331.753 240.305 331.78 240.545 331.78C240.678 331.78 240.878 331.773 241.145 331.76C241.412 331.733 241.658 331.68 241.885 331.6C242.125 331.507 242.245 331.36 242.245 331.16C242.245 330.947 242.132 330.787 241.905 330.68C241.678 330.573 241.372 330.493 240.985 330.44C240.612 330.373 240.198 330.313 239.745 330.26C239.292 330.193 238.838 330.1 238.385 329.98C237.932 329.86 237.512 329.687 237.125 329.46C236.752 329.233 236.452 328.927 236.225 328.54C235.998 328.14 235.885 327.633 235.885 327.02C235.885 326.407 236.025 325.88 236.305 325.44C236.598 325 236.978 324.647 237.445 324.38C237.925 324.1 238.438 323.9 238.985 323.78C239.532 323.647 240.065 323.58 240.585 323.58H241.205C241.645 323.58 242.112 323.633 242.605 323.74C243.112 323.847 243.585 324.013 244.025 324.24C244.478 324.467 244.845 324.753 245.125 325.1C245.405 325.447 245.545 325.853 245.545 326.32C245.545 326.413 245.538 326.507 245.525 326.6C245.525 326.693 245.518 326.773 245.505 326.84H242.225V326.74C242.225 326.593 242.178 326.467 242.085 326.36C241.992 326.253 241.872 326.173 241.725 326.12C241.578 326.053 241.425 326.007 241.265 325.98C241.105 325.953 240.958 325.94 240.825 325.94C240.732 325.94 240.598 325.947 240.425 325.96C240.265 325.96 240.098 325.98 239.925 326.02C239.765 326.047 239.625 326.1 239.505 326.18C239.398 326.26 239.345 326.373 239.345 326.52C239.345 326.733 239.458 326.887 239.685 326.98C239.925 327.073 240.232 327.147 240.605 327.2C240.992 327.24 241.412 327.287 241.865 327.34C242.332 327.393 242.792 327.473 243.245 327.58C243.698 327.687 244.112 327.86 244.485 328.1C244.872 328.327 245.178 328.64 245.405 329.04C245.645 329.44 245.765 329.96 245.765 330.6C245.765 331.28 245.625 331.853 245.345 332.32C245.078 332.773 244.718 333.14 244.265 333.42C243.812 333.7 243.305 333.9 242.745 334.02C242.185 334.14 241.612 334.2 241.025 334.2H239.985ZM251.944 334V326.62H250.664V323.78H251.944V322.46C251.944 321.38 252.284 320.607 252.964 320.14C253.644 319.673 254.524 319.44 255.604 319.44C255.831 319.44 256.111 319.46 256.444 319.5C256.777 319.527 257.111 319.573 257.444 319.64C257.791 319.707 258.071 319.787 258.284 319.88V322.08C258.137 322.027 257.931 321.98 257.664 321.94C257.397 321.9 257.191 321.88 257.044 321.88C256.884 321.88 256.711 321.9 256.524 321.94C256.351 321.98 256.204 322.08 256.084 322.24C255.964 322.4 255.904 322.667 255.904 323.04V323.78H258.304V326.62H255.904V334H251.944ZM259.264 334V323.8H263.204V334H259.264ZM259.264 322.46V319.6H263.204V322.46H259.264ZM265.148 334V330.34H268.968V334H265.148ZM271.788 334V330.34H275.608V334H271.788ZM278.468 334V330.34H282.288V334H278.468Z" fill="#241B28"/>
<path d="M109 338.333C116.364 338.333 122.333 332.364 122.333 325C122.333 317.636 116.364 311.667 109 311.667C101.636 311.667 95.6665 317.636 95.6665 325C95.6665 332.364 101.636 338.333 109 338.333Z" stroke="#664373" stroke-linecap="round" stroke-linejoin="round" stroke-dasharray="4 4"/>
</g>
<g filter="url(#filter2_dddd_29_2246)">
<mask id="path-9-inside-3_29_2246" fill="white">
<path d="M363 180C363 167.85 372.85 158 385 158H572C584.15 158 594 167.85 594 180V208C594 220.15 584.15 230 572 230H385C372.85 230 363 220.15 363 208V180Z"/>
</mask>
<path d="M363 180C363 167.85 372.85 158 385 158H572C584.15 158 594 167.85 594 180V208C594 220.15 584.15 230 572 230H385C372.85 230 363 220.15 363 208V180Z" fill="#E1E1E1"/>
<path d="M363 180C363 167.85 372.85 158 385 158H572C584.15 158 594 167.85 594 180V208C594 220.15 584.15 230 572 230H385C372.85 230 363 220.15 363 208V180Z" fill="white"/>
<path d="M363 180C363 167.85 372.85 158 385 158H572C584.15 158 594 167.85 594 180V208C594 220.15 584.15 230 572 230H385C372.85 230 363 220.15 363 208V180Z" fill="url(#paint2_linear_29_2246)" fill-opacity="0.32" style="mix-blend-mode:luminosity"/>
<path d="M385 158V159H572V158V157H385V158ZM594 180H593V208H594H595V180H594ZM572 230V229H385V230V231H572V230ZM363 208H364V180H363H362V208H363ZM385 230V229C373.402 229 364 219.598 364 208H363H362C362 220.703 372.297 231 385 231V230ZM594 208H593C593 219.598 583.598 229 572 229V230V231C584.703 231 595 220.703 595 208H594ZM572 158V159C583.598 159 593 168.402 593 180H594H595C595 167.297 584.703 157 572 157V158ZM385 158V157C372.297 157 362 167.297 362 180H363H364C364 168.402 373.402 159 385 159V158Z" fill="#241B28" fill-opacity="0.16" mask="url(#path-9-inside-3_29_2246)"/>
<path d="M431.9 201L436.48 187.28H441.7L446.28 201H441.92L441.1 198.56H436.74L435.94 201H431.9ZM437.7 195.66H440.14L438.98 191.5H438.88L437.7 195.66ZM447.18 201V190.78H450.16L450.56 192.26C451 191.673 451.48 191.247 452 190.98C452.533 190.713 453.18 190.58 453.94 190.58C454.62 190.58 455.206 190.713 455.7 190.98C456.193 191.233 456.566 191.587 456.82 192.04C457.086 192.48 457.22 192.993 457.22 193.58V201H453.26V194.6C453.26 194.267 453.153 193.987 452.94 193.76C452.74 193.52 452.493 193.4 452.2 193.4C452.013 193.4 451.833 193.453 451.66 193.56C451.5 193.667 451.373 193.813 451.28 194C451.186 194.173 451.14 194.373 451.14 194.6V201H447.18ZM461.852 201.2C461.306 201.2 460.786 201.107 460.292 200.92C459.799 200.72 459.399 200.407 459.092 199.98C458.786 199.553 458.632 198.98 458.632 198.26C458.632 197.553 458.786 196.967 459.092 196.5C459.399 196.033 459.839 195.667 460.412 195.4C460.999 195.133 461.706 194.947 462.532 194.84C463.359 194.733 464.292 194.68 465.332 194.68V193.98C465.332 193.593 465.206 193.32 464.952 193.16C464.699 192.987 464.392 192.9 464.032 192.9C463.646 192.9 463.332 192.987 463.092 193.16C462.866 193.333 462.752 193.56 462.752 193.84V193.92H458.952C458.939 193.893 458.932 193.853 458.932 193.8C458.932 193.747 458.932 193.693 458.932 193.64C458.932 193.067 459.126 192.553 459.512 192.1C459.899 191.633 460.452 191.267 461.172 191C461.892 190.72 462.746 190.58 463.732 190.58H464.392C466.006 190.58 467.206 190.893 467.992 191.52C468.779 192.133 469.172 192.9 469.172 193.82V198.04C469.172 198.307 469.239 198.5 469.372 198.62C469.506 198.727 469.646 198.78 469.792 198.78C469.912 198.78 470.032 198.767 470.152 198.74C470.272 198.7 470.386 198.653 470.492 198.6V200.74C470.319 200.873 470.066 200.98 469.732 201.06C469.412 201.153 468.992 201.2 468.472 201.2C467.886 201.2 467.386 201.133 466.972 201C466.559 200.853 466.232 200.66 465.992 200.42C465.766 200.18 465.612 199.9 465.532 199.58C465.186 199.98 464.712 200.353 464.112 200.7C463.526 201.033 462.772 201.2 461.852 201.2ZM463.972 198.78C464.212 198.78 464.432 198.727 464.632 198.62C464.846 198.5 465.012 198.333 465.132 198.12C465.266 197.907 465.332 197.66 465.332 197.38V196.5C464.719 196.5 464.226 196.56 463.852 196.68C463.479 196.787 463.206 196.94 463.032 197.14C462.859 197.327 462.772 197.553 462.772 197.82C462.772 198.207 462.892 198.467 463.132 198.6C463.386 198.72 463.666 198.78 463.972 198.78ZM462.632 189.34L464.452 185.78H467.752L467.792 185.84L465.292 189.34H462.632ZM471.633 201V186.6H475.593V201H471.633ZM477.863 201V190.8H481.823V201H477.863ZM477.863 189.46V186.6H481.823V189.46H477.863ZM487.68 201.2C487.147 201.2 486.614 201.133 486.08 201C485.56 200.88 485.087 200.693 484.66 200.44C484.234 200.173 483.894 199.84 483.64 199.44C483.387 199.04 483.26 198.567 483.26 198.02C483.26 197.953 483.26 197.893 483.26 197.84C483.26 197.787 483.267 197.727 483.28 197.66H486.54C486.527 197.687 486.52 197.713 486.52 197.74C486.52 197.753 486.52 197.773 486.52 197.8C486.52 198.053 486.614 198.253 486.8 198.4C486.987 198.547 487.214 198.647 487.48 198.7C487.747 198.753 488 198.78 488.24 198.78C488.374 198.78 488.574 198.773 488.84 198.76C489.107 198.733 489.354 198.68 489.58 198.6C489.82 198.507 489.94 198.36 489.94 198.16C489.94 197.947 489.827 197.787 489.6 197.68C489.374 197.573 489.067 197.493 488.68 197.44C488.307 197.373 487.894 197.313 487.44 197.26C486.987 197.193 486.534 197.1 486.08 196.98C485.627 196.86 485.207 196.687 484.82 196.46C484.447 196.233 484.147 195.927 483.92 195.54C483.694 195.14 483.58 194.633 483.58 194.02C483.58 193.407 483.72 192.88 484 192.44C484.294 192 484.674 191.647 485.14 191.38C485.62 191.1 486.134 190.9 486.68 190.78C487.227 190.647 487.76 190.58 488.28 190.58H488.9C489.34 190.58 489.807 190.633 490.3 190.74C490.807 190.847 491.28 191.013 491.72 191.24C492.174 191.467 492.54 191.753 492.82 192.1C493.1 192.447 493.24 192.853 493.24 193.32C493.24 193.413 493.234 193.507 493.22 193.6C493.22 193.693 493.214 193.773 493.2 193.84H489.92V193.74C489.92 193.593 489.874 193.467 489.78 193.36C489.687 193.253 489.567 193.173 489.42 193.12C489.274 193.053 489.12 193.007 488.96 192.98C488.8 192.953 488.654 192.94 488.52 192.94C488.427 192.94 488.294 192.947 488.12 192.96C487.96 192.96 487.794 192.98 487.62 193.02C487.46 193.047 487.32 193.1 487.2 193.18C487.094 193.26 487.04 193.373 487.04 193.52C487.04 193.733 487.154 193.887 487.38 193.98C487.62 194.073 487.927 194.147 488.3 194.2C488.687 194.24 489.107 194.287 489.56 194.34C490.027 194.393 490.487 194.473 490.94 194.58C491.394 194.687 491.807 194.86 492.18 195.1C492.567 195.327 492.874 195.64 493.1 196.04C493.34 196.44 493.46 196.96 493.46 197.6C493.46 198.28 493.32 198.853 493.04 199.32C492.774 199.773 492.414 200.14 491.96 200.42C491.507 200.7 491 200.9 490.44 201.02C489.88 201.14 489.307 201.2 488.72 201.2H487.68ZM500.012 201.2C498.959 201.2 498.019 201.007 497.192 200.62C496.366 200.233 495.712 199.667 495.232 198.92C494.766 198.173 494.532 197.267 494.532 196.2V195.58C494.532 194.513 494.766 193.607 495.232 192.86C495.699 192.113 496.346 191.547 497.172 191.16C497.999 190.773 498.939 190.58 499.992 190.58H500.492C501.546 190.58 502.439 190.78 503.172 191.18C503.906 191.58 504.466 192.127 504.852 192.82C505.239 193.5 505.432 194.287 505.432 195.18V196.42H498.772C498.772 196.847 498.806 197.24 498.872 197.6C498.952 197.96 499.092 198.247 499.292 198.46C499.492 198.673 499.792 198.78 500.192 198.78C500.552 198.78 500.846 198.713 501.072 198.58C501.299 198.447 501.466 198.26 501.572 198.02C501.692 197.767 501.752 197.48 501.752 197.16H505.412C505.412 197.907 505.206 198.587 504.792 199.2C504.379 199.813 503.792 200.3 503.032 200.66C502.272 201.02 501.366 201.2 500.312 201.2H500.012ZM498.772 194.68H501.532C501.532 194.093 501.399 193.667 501.132 193.4C500.879 193.133 500.552 193 500.152 193C499.739 193 499.406 193.147 499.152 193.44C498.899 193.72 498.772 194.133 498.772 194.68ZM510.864 201.2C510.331 201.2 509.797 201.133 509.264 201C508.744 200.88 508.271 200.693 507.844 200.44C507.417 200.173 507.077 199.84 506.824 199.44C506.571 199.04 506.444 198.567 506.444 198.02C506.444 197.953 506.444 197.893 506.444 197.84C506.444 197.787 506.451 197.727 506.464 197.66H509.724C509.711 197.687 509.704 197.713 509.704 197.74C509.704 197.753 509.704 197.773 509.704 197.8C509.704 198.053 509.797 198.253 509.984 198.4C510.171 198.547 510.397 198.647 510.664 198.7C510.931 198.753 511.184 198.78 511.424 198.78C511.557 198.78 511.757 198.773 512.024 198.76C512.291 198.733 512.537 198.68 512.764 198.6C513.004 198.507 513.124 198.36 513.124 198.16C513.124 197.947 513.011 197.787 512.784 197.68C512.557 197.573 512.251 197.493 511.864 197.44C511.491 197.373 511.077 197.313 510.624 197.26C510.171 197.193 509.717 197.1 509.264 196.98C508.811 196.86 508.391 196.687 508.004 196.46C507.631 196.233 507.331 195.927 507.104 195.54C506.877 195.14 506.764 194.633 506.764 194.02C506.764 193.407 506.904 192.88 507.184 192.44C507.477 192 507.857 191.647 508.324 191.38C508.804 191.1 509.317 190.9 509.864 190.78C510.411 190.647 510.944 190.58 511.464 190.58H512.084C512.524 190.58 512.991 190.633 513.484 190.74C513.991 190.847 514.464 191.013 514.904 191.24C515.357 191.467 515.724 191.753 516.004 192.1C516.284 192.447 516.424 192.853 516.424 193.32C516.424 193.413 516.417 193.507 516.404 193.6C516.404 193.693 516.397 193.773 516.384 193.84H513.104V193.74C513.104 193.593 513.057 193.467 512.964 193.36C512.871 193.253 512.751 193.173 512.604 193.12C512.457 193.053 512.304 193.007 512.144 192.98C511.984 192.953 511.837 192.94 511.704 192.94C511.611 192.94 511.477 192.947 511.304 192.96C511.144 192.96 510.977 192.98 510.804 193.02C510.644 193.047 510.504 193.1 510.384 193.18C510.277 193.26 510.224 193.373 510.224 193.52C510.224 193.733 510.337 193.887 510.564 193.98C510.804 194.073 511.111 194.147 511.484 194.2C511.871 194.24 512.291 194.287 512.744 194.34C513.211 194.393 513.671 194.473 514.124 194.58C514.577 194.687 514.991 194.86 515.364 195.1C515.751 195.327 516.057 195.64 516.284 196.04C516.524 196.44 516.644 196.96 516.644 197.6C516.644 198.28 516.504 198.853 516.224 199.32C515.957 199.773 515.597 200.14 515.144 200.42C514.691 200.7 514.184 200.9 513.624 201.02C513.064 201.14 512.491 201.2 511.904 201.2H510.864ZM527.063 201.2C526.01 201.2 525.07 201.007 524.243 200.62C523.416 200.233 522.763 199.667 522.283 198.92C521.816 198.173 521.583 197.267 521.583 196.2V195.58C521.583 194.513 521.816 193.607 522.283 192.86C522.75 192.113 523.396 191.547 524.223 191.16C525.05 190.773 525.99 190.58 527.043 190.58H527.543C528.596 190.58 529.49 190.78 530.223 191.18C530.956 191.58 531.516 192.127 531.903 192.82C532.29 193.5 532.483 194.287 532.483 195.18V196.42H525.823C525.823 196.847 525.856 197.24 525.923 197.6C526.003 197.96 526.143 198.247 526.343 198.46C526.543 198.673 526.843 198.78 527.243 198.78C527.603 198.78 527.896 198.713 528.123 198.58C528.35 198.447 528.516 198.26 528.623 198.02C528.743 197.767 528.803 197.48 528.803 197.16H532.463C532.463 197.907 532.256 198.587 531.843 199.2C531.43 199.813 530.843 200.3 530.083 200.66C529.323 201.02 528.416 201.2 527.363 201.2H527.063ZM525.823 194.68H528.583C528.583 194.093 528.45 193.667 528.183 193.4C527.93 193.133 527.603 193 527.203 193C526.79 193 526.456 193.147 526.203 193.44C525.95 193.72 525.823 194.133 525.823 194.68ZM534.055 201V190.78H537.015L537.435 192.26C537.821 191.753 538.235 191.347 538.675 191.04C539.115 190.733 539.708 190.58 540.455 190.58C541.121 190.58 541.695 190.7 542.175 190.94C542.668 191.167 543.061 191.567 543.355 192.14C543.701 191.553 544.115 191.147 544.595 190.92C545.075 190.693 545.635 190.58 546.275 190.58C546.955 190.58 547.535 190.713 548.015 190.98C548.508 191.233 548.881 191.587 549.135 192.04C549.401 192.48 549.535 192.993 549.535 193.58V201H545.655V194.52C545.655 194.187 545.561 193.92 545.375 193.72C545.188 193.52 544.961 193.42 544.695 193.42C544.521 193.42 544.361 193.467 544.215 193.56C544.068 193.653 543.948 193.78 543.855 193.94C543.775 194.1 543.735 194.293 543.735 194.52V201H539.855V194.52C539.855 194.187 539.761 193.92 539.575 193.72C539.388 193.52 539.161 193.42 538.895 193.42C538.721 193.42 538.561 193.467 538.415 193.56C538.268 193.653 538.148 193.78 538.055 193.94C537.975 194.1 537.935 194.293 537.935 194.52V201H534.055ZM551.437 201V197.34H555.257V201H551.437ZM558.077 201V197.34H561.897V201H558.077ZM564.757 201V197.34H568.577V201H564.757Z" fill="#241B28"/>
<path d="M399 207.333C406.364 207.333 412.333 201.364 412.333 194C412.333 186.636 406.364 180.667 399 180.667C391.636 180.667 385.667 186.636 385.667 194C385.667 201.364 391.636 207.333 399 207.333Z" stroke="#664373" stroke-linecap="round" stroke-linejoin="round" stroke-dasharray="4 4"/>
</g>
<defs>
<filter id="filter0_dddd_29_2246" x="161" y="27" width="362" height="525" filterUnits="userSpaceOnUse" color-interpolation-filters="sRGB">
<feFlood flood-opacity="0" result="BackgroundImageFix"/>
<feColorMatrix in="SourceAlpha" type="matrix" values="0 0 0 0 0 0 0 0 0 0 0 0 0 0 0 0 0 0 127 0" result="hardAlpha"/>
<feOffset dx="1" dy="5"/>
<feGaussianBlur stdDeviation="5.5"/>
<feColorMatrix type="matrix" values="0 0 0 0 0 0 0 0 0 0 0 0 0 0 0 0 0 0 0.08 0"/>
<feBlend mode="normal" in2="BackgroundImageFix" result="effect1_dropShadow_29_2246"/>
<feColorMatrix in="SourceAlpha" type="matrix" values="0 0 0 0 0 0 0 0 0 0 0 0 0 0 0 0 0 0 127 0" result="hardAlpha"/>
<feOffset dx="2" dy="20"/>
<feGaussianBlur stdDeviation="10.5"/>
<feColorMatrix type="matrix" values="0 0 0 0 0 0 0 0 0 0 0 0 0 0 0 0 0 0 0.06 0"/>
<feBlend mode="normal" in2="effect1_dropShadow_29_2246" result="effect2_dropShadow_29_2246"/>
<feColorMatrix in="SourceAlpha" type="matrix" values="0 0 0 0 0 0 0 0 0 0 0 0 0 0 0 0 0 0 127 0" result="hardAlpha"/>
<feOffset dx="5" dy="46"/>
<feGaussianBlur stdDeviation="14"/>
<feColorMatrix type="matrix" values="0 0 0 0 0 0 0 0 0 0 0 0 0 0 0 0 0 0 0.04 0"/>
<feBlend mode="normal" in2="effect2_dropShadow_29_2246" result="effect3_dropShadow_29_2246"/>
<feColorMatrix in="SourceAlpha" type="matrix" values="0 0 0 0 0 0 0 0 0 0 0 0 0 0 0 0 0 0 127 0" result="hardAlpha"/>
<feOffset dx="10" dy="82"/>
<feGaussianBlur stdDeviation="16.5"/>
<feColorMatrix type="matrix" values="0 0 0 0 0 0 0 0 0 0 0 0 0 0 0 0 0 0 0.01 0"/>
<feBlend mode="normal" in2="effect3_dropShadow_29_2246" result="effect4_dropShadow_29_2246"/>
<feBlend mode="normal" in="SourceGraphic" in2="effect4_dropShadow_29_2246" result="shape"/>
</filter>
<filter id="filter1_dddd_29_2246" x="50" y="283" width="297" height="193" filterUnits="userSpaceOnUse" color-interpolation-filters="sRGB">
<feFlood flood-opacity="0" result="BackgroundImageFix"/>
<feColorMatrix in="SourceAlpha" type="matrix" values="0 0 0 0 0 0 0 0 0 0 0 0 0 0 0 0 0 0 127 0" result="hardAlpha"/>
<feOffset dx="1" dy="5"/>
<feGaussianBlur stdDeviation="5.5"/>
<feColorMatrix type="matrix" values="0 0 0 0 0 0 0 0 0 0 0 0 0 0 0 0 0 0 0.08 0"/>
<feBlend mode="normal" in2="BackgroundImageFix" result="effect1_dropShadow_29_2246"/>
<feColorMatrix in="SourceAlpha" type="matrix" values="0 0 0 0 0 0 0 0 0 0 0 0 0 0 0 0 0 0 127 0" result="hardAlpha"/>
<feOffset dx="2" dy="20"/>
<feGaussianBlur stdDeviation="10.5"/>
<feColorMatrix type="matrix" values="0 0 0 0 0 0 0 0 0 0 0 0 0 0 0 0 0 0 0.06 0"/>
<feBlend mode="normal" in2="effect1_dropShadow_29_2246" result="effect2_dropShadow_29_2246"/>
<feColorMatrix in="SourceAlpha" type="matrix" values="0 0 0 0 0 0 0 0 0 0 0 0 0 0 0 0 0 0 127 0" result="hardAlpha"/>
<feOffset dx="5" dy="46"/>
<feGaussianBlur stdDeviation="14"/>
<feColorMatrix type="matrix" values="0 0 0 0 0 0 0 0 0 0 0 0 0 0 0 0 0 0 0.04 0"/>
<feBlend mode="normal" in2="effect2_dropShadow_29_2246" result="effect3_dropShadow_29_2246"/>
<feColorMatrix in="SourceAlpha" type="matrix" values="0 0 0 0 0 0 0 0 0 0 0 0 0 0 0 0 0 0 127 0" result="hardAlpha"/>
<feOffset dx="10" dy="82"/>
<feGaussianBlur stdDeviation="16.5"/>
<feColorMatrix type="matrix" values="0 0 0 0 0 0 0 0 0 0 0 0 0 0 0 0 0 0 0.01 0"/>
<feBlend mode="normal" in2="effect3_dropShadow_29_2246" result="effect4_dropShadow_29_2246"/>
<feBlend mode="normal" in="SourceGraphic" in2="effect4_dropShadow_29_2246" result="shape"/>
</filter>
<filter id="filter2_dddd_29_2246" x="340" y="152" width="297" height="193" filterUnits="userSpaceOnUse" color-interpolation-filters="sRGB">
<feFlood flood-opacity="0" result="BackgroundImageFix"/>
<feColorMatrix in="SourceAlpha" type="matrix" values="0 0 0 0 0 0 0 0 0 0 0 0 0 0 0 0 0 0 127 0" result="hardAlpha"/>
<feOffset dx="1" dy="5"/>
<feGaussianBlur stdDeviation="5.5"/>
<feColorMatrix type="matrix" values="0 0 0 0 0 0 0 0 0 0 0 0 0 0 0 0 0 0 0.08 0"/>
<feBlend mode="normal" in2="BackgroundImageFix" result="effect1_dropShadow_29_2246"/>
<feColorMatrix in="SourceAlpha" type="matrix" values="0 0 0 0 0 0 0 0 0 0 0 0 0 0 0 0 0 0 127 0" result="hardAlpha"/>
<feOffset dx="2" dy="20"/>
<feGaussianBlur stdDeviation="10.5"/>
<feColorMatrix type="matrix" values="0 0 0 0 0 0 0 0 0 0 0 0 0 0 0 0 0 0 0.06 0"/>
<feBlend mode="normal" in2="effect1_dropShadow_29_2246" result="effect2_dropShadow_29_2246"/>
<feColorMatrix in="SourceAlpha" type="matrix" values="0 0 0 0 0 0 0 0 0 0 0 0 0 0 0 0 0 0 127 0" result="hardAlpha"/>
<feOffset dx="5" dy="46"/>
<feGaussianBlur stdDeviation="14"/>
<feColorMatrix type="matrix" values="0 0 0 0 0 0 0 0 0 0 0 0 0 0 0 0 0 0 0.04 0"/>
<feBlend mode="normal" in2="effect2_dropShadow_29_2246" result="effect3_dropShadow_29_2246"/>
<feColorMatrix in="SourceAlpha" type="matrix" values="0 0 0 0 0 0 0 0 0 0 0 0 0 0 0 0 0 0 127 0" result="hardAlpha"/>
<feOffset dx="10" dy="82"/>
<feGaussianBlur stdDeviation="16.5"/>
<feColorMatrix type="matrix" values="0 0 0 0 0 0 0 0 0 0 0 0 0 0 0 0 0 0 0.01 0"/>
<feBlend mode="normal" in2="effect3_dropShadow_29_2246" result="effect4_dropShadow_29_2246"/>
<feBlend mode="normal" in="SourceGraphic" in2="effect4_dropShadow_29_2246" result="shape"/>
</filter>
<linearGradient id="paint0_linear_29_2246" x1="209.517" y1="-0.666667" x2="543.637" y2="339.909" gradientUnits="userSpaceOnUse">
<stop stop-opacity="0"/>
<stop offset="1" stop-opacity="0.5"/>
</linearGradient>
<linearGradient id="paint1_linear_29_2246" x1="92.9138" y1="283" x2="118.324" y2="396.421" gradientUnits="userSpaceOnUse">
<stop stop-opacity="0"/>
<stop offset="1" stop-color="#928DD3" stop-opacity="0.06"/>
</linearGradient>
<linearGradient id="paint2_linear_29_2246" x1="382.914" y1="152" x2="408.324" y2="265.421" gradientUnits="userSpaceOnUse">
<stop stop-opacity="0"/>
<stop offset="1" stop-color="#928DD3" stop-opacity="0.06"/>
</linearGradient>
</defs>
</svg>
