<svg width="33" height="32" viewBox="0 0 33 32" fill="none" xmlns="http://www.w3.org/2000/svg">
<path d="M7.16659 17.3333C7.16659 19.5312 8.0529 21.522 9.48758 22.9679C9.62595 23.1074 9.69513 23.1771 9.73597 23.2442C9.77493 23.3081 9.79762 23.3632 9.81502 23.4361C9.83326 23.5124 9.83326 23.5993 9.83326 23.7731V26.9333C9.83326 27.3067 9.83326 27.4934 9.90592 27.636C9.96984 27.7614 10.0718 27.8634 10.1973 27.9273C10.3399 28 10.5266 28 10.8999 28H13.4333C13.8066 28 13.9933 28 14.1359 27.9273C14.2614 27.8634 14.3634 27.7614 14.4273 27.636C14.4999 27.4934 14.4999 27.3067 14.4999 26.9333V26.4C14.4999 26.0266 14.4999 25.8399 14.5726 25.6973C14.6365 25.5719 14.7385 25.4699 14.8639 25.406C15.0065 25.3333 15.1932 25.3333 15.5666 25.3333H17.4333C17.8066 25.3333 17.9933 25.3333 18.1359 25.406C18.2614 25.4699 18.3634 25.5719 18.4273 25.6973C18.4999 25.8399 18.4999 26.0266 18.4999 26.4V26.9333C18.4999 27.3067 18.4999 27.4934 18.5726 27.636C18.6365 27.7614 18.7385 27.8634 18.8639 27.9273C19.0065 28 19.1932 28 19.5666 28H22.1C22.4734 28 22.6601 28 22.8027 27.9273C22.9281 27.8634 23.0301 27.7614 23.094 27.636C23.1667 27.4934 23.1667 27.3067 23.1667 26.9333V25.6324C23.1667 25.363 23.1667 25.2283 23.205 25.1202C23.2418 25.0165 23.2881 24.944 23.3666 24.867C23.4486 24.7867 23.5874 24.7222 23.8649 24.5934C25.1746 23.9854 26.2921 23.0334 27.1015 21.8536C27.2439 21.6461 27.315 21.5423 27.391 21.4811C27.4637 21.4225 27.5289 21.3881 27.6183 21.3613C27.7119 21.3333 27.8229 21.3333 28.045 21.3333H28.7667C29.1401 21.3333 29.3267 21.3333 29.4694 21.2607C29.5948 21.1968 29.6968 21.0948 29.7607 20.9693C29.8334 20.8267 29.8334 20.64 29.8334 20.2667V15.7143C29.8334 15.3589 29.8334 15.1812 29.7673 15.044C29.7018 14.908 29.592 14.7982 29.456 14.7327C29.3189 14.6667 29.1411 14.6667 28.7857 14.6667C28.5284 14.6667 28.3998 14.6667 28.2961 14.6317C28.1844 14.5941 28.1061 14.544 28.025 14.4584C27.9498 14.379 27.8885 14.2462 27.7657 13.9806C27.3718 13.1283 26.8322 12.357 26.179 11.6987C26.0407 11.5593 25.9715 11.4896 25.9306 11.4225C25.8917 11.3585 25.869 11.3034 25.8516 11.2306C25.8334 11.1542 25.8334 11.0673 25.8334 10.8936V9.4141C25.8334 8.93404 25.8334 8.69401 25.7334 8.53267C25.6458 8.39134 25.5086 8.28784 25.3486 8.24246C25.166 8.19066 24.9352 8.2566 24.4737 8.38848L21.3102 9.29229C21.2565 9.30765 21.2296 9.31533 21.2023 9.32072C21.178 9.32551 21.1535 9.32895 21.1288 9.33101C21.1011 9.33333 21.0731 9.33333 21.0172 9.33333H20.4454M7.16659 17.3333C7.16659 14.2612 8.89821 11.5936 11.4386 10.2532M7.16659 17.3333H5.83335C4.36059 17.3333 3.16669 16.1394 3.16669 14.6667C3.16669 13.6796 3.70295 12.8178 4.50002 12.3568M20.5 8.66667C20.5 11.244 18.4107 13.3333 15.8334 13.3333C13.256 13.3333 11.1667 11.244 11.1667 8.66667C11.1667 6.08934 13.256 4 15.8334 4C18.4107 4 20.5 6.08934 20.5 8.66667Z" stroke="#553860" stroke-width="2.5" stroke-linecap="round" stroke-linejoin="round"/>
</svg>
