<svg width="117" height="116" viewBox="0 0 117 116" fill="none" xmlns="http://www.w3.org/2000/svg">
    <path d="M87.9834 85.7917H29.0166C17.8033 85.7917 11.375 79.3634 11.375 68.1501V9.66675C11.375 7.68508 13.0183 6.04175 15 6.04175H102C103.982 6.04175 105.625 7.68508 105.625 9.66675V68.1501C105.625 79.3634 99.1967 85.7917 87.9834 85.7917ZM18.625 13.2917V68.1501C18.625 75.3518 21.815 78.5417 29.0166 78.5417H87.935C95.1367 78.5417 98.3266 75.3518 98.3266 68.1501V13.2917H18.625Z" fill="#664373"/>
    <path d="M106.833 13.2917H10.1665C8.18484 13.2917 6.5415 11.6484 6.5415 9.66675C6.5415 7.68508 8.18484 6.04175 10.1665 6.04175H106.833C108.815 6.04175 110.458 7.68508 110.458 9.66675C110.458 11.6484 108.815 13.2917 106.833 13.2917Z" fill="#664373"/>
    <path d="M39.168 109.958C37.8146 109.958 36.5579 109.233 35.9296 107.977C35.0112 106.188 35.7363 104.013 37.573 103.095L54.8763 94.4435V82.1667C54.8763 80.1851 56.5196 78.5417 58.5013 78.5417C60.4829 78.5417 62.1263 80.1851 62.1263 82.1667V96.6667C62.1263 98.0201 61.3529 99.2768 60.0962 99.9051L40.7629 109.572C40.2796 109.813 39.6996 109.958 39.168 109.958Z" fill="#664373"/>
    <path d="M77.8333 109.958C77.3016 109.958 76.7217 109.813 76.2383 109.572L56.905 99.905C55.1167 98.9867 54.3915 96.8116 55.2615 95.0233C56.1799 93.2349 58.3549 92.51 60.1432 93.38L79.4766 103.047C81.2649 103.965 81.9899 106.14 81.1199 107.928C80.4432 109.233 79.1383 109.958 77.8333 109.958Z" fill="#664373"/>
    <path d="M36.7498 56.7915C35.7348 56.7915 34.6715 56.3566 33.9465 55.4866C32.6415 53.9399 32.8831 51.6683 34.4298 50.3633L49.6549 37.6516C51.0565 36.4916 52.8448 36.0082 54.5364 36.2982C56.2764 36.5882 57.7748 37.6515 58.6932 39.1981L63.7681 47.6565L77.9298 35.8633C79.4764 34.6066 81.7481 34.7998 83.0531 36.3465C84.3581 37.8931 84.1165 40.1648 82.5699 41.4698L67.3447 54.1815C65.9431 55.3415 64.1548 55.8248 62.4632 55.5348C60.7232 55.2448 59.2248 54.1816 58.3064 52.6349L53.2315 44.1766L39.0699 55.9698C38.3932 56.5015 37.5715 56.7915 36.7498 56.7915Z" fill="#664373"/>
</svg>
