<svg width="664" height="394" viewBox="0 0 664 394" fill="none" xmlns="http://www.w3.org/2000/svg">
<g filter="url(#filter0_dddd_29_2263)">
<mask id="path-1-inside-1_29_2263" fill="white">
<path d="M153 55C153 42.8497 162.85 33 175 33H488C500.15 33 510 42.8497 510 55V415C510 427.15 500.15 437 488 437H175C162.85 437 153 427.15 153 415V55Z"/>
</mask>
<path d="M153 55C153 42.8497 162.85 33 175 33H488C500.15 33 510 42.8497 510 55V415C510 427.15 500.15 437 488 437H175C162.85 437 153 427.15 153 415V55Z" fill="#E1E1E1"/>
<path d="M153 55C153 42.8497 162.85 33 175 33H488C500.15 33 510 42.8497 510 55V415C510 427.15 500.15 437 488 437H175C162.85 437 153 427.15 153 415V55Z" fill="url(#paint0_linear_29_2263)" fill-opacity="0.32" style="mix-blend-mode:luminosity"/>
<path d="M175 33V34H488V33V32H175V33ZM510 55H509V415H510H511V55H510ZM488 437V436H175V437V438H488V437ZM153 415H154V55H153H152V415H153ZM175 437V436C163.402 436 154 426.598 154 415H153H152C152 427.703 162.297 438 175 438V437ZM510 415H509C509 426.598 499.598 436 488 436V437V438C500.703 438 511 427.703 511 415H510ZM488 33V34C499.598 34 509 43.402 509 55H510H511C511 42.2975 500.703 32 488 32V33ZM175 33V32C162.297 32 152 42.2975 152 55H153H154C154 43.402 163.402 34 175 34V33Z" fill="#241B28" fill-opacity="0.16" mask="url(#path-1-inside-1_29_2263)"/>
<path d="M190.66 87.28C189.428 87.28 188.28 87.0933 187.216 86.72C186.152 86.3467 185.219 85.8053 184.416 85.096C183.613 84.368 182.988 83.4813 182.54 82.436C182.092 81.3907 181.868 80.2053 181.868 78.88V75.912C181.868 74.6427 182.101 73.4947 182.568 72.468C183.035 71.4413 183.679 70.564 184.5 69.836C185.321 69.0893 186.255 68.52 187.3 68.128C188.364 67.7173 189.475 67.512 190.632 67.512H191.416C192.555 67.512 193.609 67.68 194.58 68.016C195.569 68.352 196.428 68.8653 197.156 69.556C197.884 70.228 198.444 71.0773 198.836 72.104C199.247 73.112 199.452 74.2973 199.452 75.66H193.936C193.936 74.708 193.833 73.9613 193.628 73.42C193.423 72.86 193.096 72.468 192.648 72.244C192.219 72.0013 191.659 71.88 190.968 71.88C190.539 71.88 190.147 71.9547 189.792 72.104C189.456 72.2347 189.167 72.4213 188.924 72.664C188.681 72.9067 188.495 73.2053 188.364 73.56C188.233 73.896 188.168 74.2693 188.168 74.68V80.112C188.168 80.6533 188.271 81.1387 188.476 81.568C188.7 81.9973 189.017 82.3333 189.428 82.576C189.857 82.8 190.371 82.912 190.968 82.912C191.771 82.912 192.405 82.8 192.872 82.576C193.339 82.352 193.675 81.9693 193.88 81.428C194.085 80.8867 194.188 80.14 194.188 79.188L199.452 79.16C199.452 80.4107 199.247 81.54 198.836 82.548C198.444 83.556 197.884 84.4147 197.156 85.124C196.428 85.8147 195.579 86.3467 194.608 86.72C193.637 87.0933 192.583 87.28 191.444 87.28H190.66ZM201.233 87V72.692H205.377L205.993 74.764C206.049 74.652 206.161 74.4747 206.329 74.232C206.516 73.9707 206.768 73.7 207.085 73.42C207.403 73.14 207.785 72.9067 208.233 72.72C208.681 72.5147 209.195 72.412 209.773 72.412C210.688 72.412 211.425 72.58 211.985 72.916C212.564 73.2333 212.984 73.7187 213.245 74.372C213.525 75.0067 213.665 75.7907 213.665 76.724C213.665 76.948 213.656 77.2187 213.637 77.536C213.619 77.8533 213.591 78.1707 213.553 78.488H209.017V77.816C209.017 77.5547 208.971 77.3213 208.877 77.116C208.784 76.892 208.653 76.724 208.485 76.612C208.317 76.4813 208.103 76.416 207.841 76.416C207.655 76.416 207.477 76.4533 207.309 76.528C207.16 76.6027 207.039 76.7053 206.945 76.836C206.852 76.948 206.777 77.088 206.721 77.256C206.665 77.424 206.637 77.6107 206.637 77.816V87H201.233ZM215.145 87V72.72H220.689V87H215.145ZM215.145 70.844V66.84H220.689V70.844H215.145ZM223.205 92.068V72.692H227.629L228.133 74.344C228.506 73.8587 229.029 73.42 229.701 73.028C230.391 72.6173 231.213 72.412 232.165 72.412C233.322 72.412 234.349 72.6547 235.245 73.14C236.159 73.6253 236.869 74.3813 237.373 75.408C237.895 76.4347 238.157 77.7693 238.157 79.412V80C238.157 81.624 237.886 82.9773 237.345 84.06C236.822 85.1427 236.122 85.9547 235.245 86.496C234.386 87.0187 233.453 87.28 232.445 87.28C231.455 87.28 230.662 87.112 230.065 86.776C229.486 86.4213 229.047 86.0013 228.749 85.516V92.068H223.205ZM230.485 83.892C230.821 83.892 231.119 83.808 231.381 83.64C231.642 83.4533 231.847 83.2107 231.997 82.912C232.146 82.6133 232.221 82.2867 232.221 81.932V77.872C232.221 77.4987 232.146 77.172 231.997 76.892C231.847 76.5933 231.642 76.36 231.381 76.192C231.119 76.0053 230.821 75.912 230.485 75.912C230.167 75.912 229.869 76.0053 229.589 76.192C229.327 76.36 229.122 76.5933 228.973 76.892C228.823 77.172 228.749 77.4987 228.749 77.872V81.932C228.749 82.2867 228.823 82.6133 228.973 82.912C229.122 83.2107 229.327 83.4533 229.589 83.64C229.869 83.808 230.167 83.892 230.485 83.892ZM245.95 87.308C244.942 87.308 244.056 87.196 243.29 86.972C242.525 86.7293 241.918 86.3187 241.47 85.74C241.041 85.1613 240.826 84.368 240.826 83.36V76.668H239.258V72.692H241.05L242.982 68.128H246.37V72.692H249.73V76.668H246.37V81.96C246.37 82.7813 246.538 83.3133 246.874 83.556C247.21 83.78 247.574 83.892 247.966 83.892C248.172 83.892 248.452 83.864 248.806 83.808C249.18 83.7333 249.478 83.6493 249.702 83.556V86.692C249.404 86.8227 249.012 86.9347 248.526 87.028C248.06 87.1213 247.593 87.1867 247.126 87.224C246.66 87.28 246.268 87.308 245.95 87.308ZM258.213 87.28C256.794 87.28 255.525 86.9813 254.405 86.384C253.285 85.768 252.398 84.928 251.745 83.864C251.11 82.7813 250.793 81.54 250.793 80.14V79.552C250.793 78.1333 251.11 76.892 251.745 75.828C252.398 74.764 253.285 73.9333 254.405 73.336C255.525 72.72 256.794 72.412 258.213 72.412H259.109C260.528 72.412 261.797 72.72 262.917 73.336C264.037 73.9333 264.914 74.764 265.549 75.828C266.202 76.892 266.529 78.1333 266.529 79.552V80.14C266.529 81.5587 266.202 82.8093 265.549 83.892C264.914 84.956 264.037 85.7867 262.917 86.384C261.797 86.9813 260.528 87.28 259.109 87.28H258.213ZM258.661 83.892C259.034 83.892 259.361 83.808 259.641 83.64C259.94 83.4533 260.173 83.2107 260.341 82.912C260.509 82.6133 260.593 82.2867 260.593 81.932V77.76C260.593 77.3867 260.509 77.06 260.341 76.78C260.173 76.4813 259.94 76.248 259.641 76.08C259.361 75.8933 259.034 75.8 258.661 75.8C258.306 75.8 257.98 75.8933 257.681 76.08C257.382 76.248 257.149 76.4813 256.981 76.78C256.813 77.06 256.729 77.3867 256.729 77.76V81.932C256.729 82.2867 256.813 82.6133 256.981 82.912C257.149 83.2107 257.382 83.4533 257.681 83.64C257.98 83.808 258.306 83.892 258.661 83.892ZM270.736 92.264C270.12 92.264 269.532 92.1053 268.972 91.788C268.431 91.4893 267.983 91.088 267.628 90.584C267.273 90.08 267.096 89.52 267.096 88.904C267.096 88.2133 267.283 87.588 267.656 87.028C268.048 86.468 268.571 86.0293 269.224 85.712C268.813 85.432 268.487 85.0773 268.244 84.648C268.001 84.2187 267.88 83.7613 267.88 83.276C267.88 82.5667 268.132 81.9413 268.636 81.4C269.14 80.84 269.747 80.4667 270.456 80.28C269.859 80 269.345 79.608 268.916 79.104C268.505 78.5813 268.3 77.9187 268.3 77.116C268.3 76.276 268.533 75.5013 269 74.792C269.467 74.0827 270.176 73.5133 271.128 73.084C272.08 72.636 273.284 72.412 274.74 72.412C275.263 72.412 275.739 72.4307 276.168 72.468C276.616 72.4867 277.017 72.524 277.372 72.58C278.156 72.0573 278.679 71.5813 278.94 71.152C279.201 70.704 279.332 70.3587 279.332 70.116H283.476C283.476 70.844 283.345 71.46 283.084 71.964C282.841 72.4493 282.487 72.8413 282.02 73.14C281.572 73.4387 281.031 73.6813 280.396 73.868L280.368 73.952C280.835 74.344 281.217 74.792 281.516 75.296C281.815 75.8 281.964 76.332 281.964 76.892C281.964 77.7133 281.703 78.4693 281.18 79.16C280.676 79.8507 280.004 80.4013 279.164 80.812C278.324 81.204 277.391 81.4 276.364 81.4H274.432C273.853 81.4 273.443 81.484 273.2 81.652C272.957 81.82 272.836 82.016 272.836 82.24C272.836 82.4827 272.939 82.688 273.144 82.856C273.349 83.024 273.779 83.108 274.432 83.108H278.632C280.181 83.108 281.376 83.5187 282.216 84.34C283.056 85.1613 283.476 86.2067 283.476 87.476C283.476 88.316 283.243 89.1 282.776 89.828C282.309 90.556 281.675 91.144 280.872 91.592C280.088 92.04 279.183 92.264 278.156 92.264H270.736ZM273.088 89.072H277.092C277.484 89.072 277.811 88.96 278.072 88.736C278.352 88.512 278.492 88.2413 278.492 87.924C278.492 87.6067 278.352 87.3267 278.072 87.084C277.811 86.86 277.484 86.748 277.092 86.748H273.088C272.696 86.748 272.36 86.86 272.08 87.084C271.819 87.308 271.688 87.5787 271.688 87.896C271.688 88.2133 271.819 88.484 272.08 88.708C272.36 88.9507 272.696 89.072 273.088 89.072ZM275.244 78.684C275.729 78.684 276.131 78.516 276.448 78.18C276.784 77.8253 276.952 77.4053 276.952 76.92C276.952 76.4347 276.784 76.024 276.448 75.688C276.131 75.3333 275.729 75.156 275.244 75.156C274.759 75.156 274.348 75.3333 274.012 75.688C273.695 76.024 273.536 76.4347 273.536 76.92C273.536 77.4053 273.695 77.8253 274.012 78.18C274.348 78.516 274.759 78.684 275.244 78.684ZM284.62 87V72.692H288.764L289.38 74.764C289.436 74.652 289.548 74.4747 289.716 74.232C289.902 73.9707 290.154 73.7 290.472 73.42C290.789 73.14 291.172 72.9067 291.62 72.72C292.068 72.5147 292.581 72.412 293.16 72.412C294.074 72.412 294.812 72.58 295.372 72.916C295.95 73.2333 296.37 73.7187 296.632 74.372C296.912 75.0067 297.052 75.7907 297.052 76.724C297.052 76.948 297.042 77.2187 297.024 77.536C297.005 77.8533 296.977 78.1707 296.94 78.488H292.404V77.816C292.404 77.5547 292.357 77.3213 292.264 77.116C292.17 76.892 292.04 76.724 291.872 76.612C291.704 76.4813 291.489 76.416 291.228 76.416C291.041 76.416 290.864 76.4533 290.696 76.528C290.546 76.6027 290.425 76.7053 290.332 76.836C290.238 76.948 290.164 77.088 290.108 77.256C290.052 77.424 290.024 77.6107 290.024 77.816V87H284.62ZM302.311 87.28C301.546 87.28 300.818 87.1493 300.127 86.888C299.436 86.608 298.876 86.1693 298.447 85.572C298.018 84.9747 297.803 84.172 297.803 83.164C297.803 82.1747 298.018 81.3533 298.447 80.7C298.876 80.0467 299.492 79.5333 300.295 79.16C301.116 78.7867 302.106 78.5253 303.263 78.376C304.42 78.2267 305.727 78.152 307.183 78.152V77.172C307.183 76.6307 307.006 76.248 306.651 76.024C306.296 75.7813 305.867 75.66 305.363 75.66C304.822 75.66 304.383 75.7813 304.047 76.024C303.73 76.2667 303.571 76.584 303.571 76.976V77.088H298.251C298.232 77.0507 298.223 76.9947 298.223 76.92C298.223 76.8453 298.223 76.7707 298.223 76.696C298.223 75.8933 298.494 75.1747 299.035 74.54C299.576 73.8867 300.351 73.3733 301.359 73C302.367 72.608 303.562 72.412 304.943 72.412H305.867C308.126 72.412 309.806 72.8507 310.907 73.728C312.008 74.5867 312.559 75.66 312.559 76.948V82.856C312.559 83.2293 312.652 83.5 312.839 83.668C313.026 83.8173 313.222 83.892 313.427 83.892C313.595 83.892 313.763 83.8733 313.931 83.836C314.099 83.78 314.258 83.7147 314.407 83.64V86.636C314.164 86.8227 313.81 86.972 313.343 87.084C312.895 87.2147 312.307 87.28 311.579 87.28C310.758 87.28 310.058 87.1867 309.479 87C308.9 86.7947 308.443 86.524 308.107 86.188C307.79 85.852 307.575 85.46 307.463 85.012C306.978 85.572 306.315 86.0947 305.475 86.58C304.654 87.0467 303.599 87.28 302.311 87.28ZM305.279 83.892C305.615 83.892 305.923 83.8173 306.203 83.668C306.502 83.5 306.735 83.2667 306.903 82.968C307.09 82.6693 307.183 82.324 307.183 81.932V80.7C306.324 80.7 305.634 80.784 305.111 80.952C304.588 81.1013 304.206 81.316 303.963 81.596C303.72 81.8573 303.599 82.1747 303.599 82.548C303.599 83.0893 303.767 83.4533 304.103 83.64C304.458 83.808 304.85 83.892 305.279 83.892ZM316.816 87V76.668H315.024V72.692H316.816V70.844C316.816 69.332 317.292 68.2493 318.244 67.596C319.196 66.9427 320.428 66.616 321.94 66.616C322.257 66.616 322.649 66.644 323.116 66.7C323.582 66.7373 324.049 66.8027 324.516 66.896C325.001 66.9893 325.393 67.1013 325.692 67.232V70.312C325.486 70.2373 325.197 70.172 324.824 70.116C324.45 70.06 324.161 70.032 323.956 70.032C323.732 70.032 323.489 70.06 323.228 70.116C322.985 70.172 322.78 70.312 322.612 70.536C322.444 70.76 322.36 71.1333 322.36 71.656V72.692H325.72V76.668H322.36V87H316.816ZM327.064 87V72.72H332.58V87H327.064ZM327.064 70.844V66.84H332.58V70.844H327.064ZM338.857 87.28C338.091 87.28 337.363 87.1493 336.673 86.888C335.982 86.608 335.422 86.1693 334.993 85.572C334.563 84.9747 334.349 84.172 334.349 83.164C334.349 82.1747 334.563 81.3533 334.993 80.7C335.422 80.0467 336.038 79.5333 336.841 79.16C337.662 78.7867 338.651 78.5253 339.809 78.376C340.966 78.2267 342.273 78.152 343.729 78.152V77.172C343.729 76.6307 343.551 76.248 343.197 76.024C342.842 75.7813 342.413 75.66 341.909 75.66C341.367 75.66 340.929 75.7813 340.593 76.024C340.275 76.2667 340.117 76.584 340.117 76.976V77.088H334.797C334.778 77.0507 334.769 76.9947 334.769 76.92C334.769 76.8453 334.769 76.7707 334.769 76.696C334.769 75.8933 335.039 75.1747 335.581 74.54C336.122 73.8867 336.897 73.3733 337.905 73C338.913 72.608 340.107 72.412 341.489 72.412H342.413C344.671 72.412 346.351 72.8507 347.453 73.728C348.554 74.5867 349.105 75.66 349.105 76.948V82.856C349.105 83.2293 349.198 83.5 349.385 83.668C349.571 83.8173 349.767 83.892 349.973 83.892C350.141 83.892 350.309 83.8733 350.477 83.836C350.645 83.78 350.803 83.7147 350.953 83.64V86.636C350.71 86.8227 350.355 86.972 349.889 87.084C349.441 87.2147 348.853 87.28 348.125 87.28C347.303 87.28 346.603 87.1867 346.025 87C345.446 86.7947 344.989 86.524 344.653 86.188C344.335 85.852 344.121 85.46 344.009 85.012C343.523 85.572 342.861 86.0947 342.021 86.58C341.199 87.0467 340.145 87.28 338.857 87.28ZM341.825 83.892C342.161 83.892 342.469 83.8173 342.749 83.668C343.047 83.5 343.281 83.2667 343.449 82.968C343.635 82.6693 343.729 82.324 343.729 81.932V80.7C342.87 80.7 342.179 80.784 341.657 80.952C341.134 81.1013 340.751 81.316 340.509 81.596C340.266 81.8573 340.145 82.1747 340.145 82.548C340.145 83.0893 340.313 83.4533 340.649 83.64C341.003 83.808 341.395 83.892 341.825 83.892ZM362.387 87.28C361.155 87.28 360.119 87.0187 359.279 86.496C358.439 85.9547 357.805 85.1427 357.375 84.06C356.946 82.9773 356.731 81.624 356.731 80V79.692C356.731 78.0493 356.993 76.696 357.515 75.632C358.057 74.5493 358.766 73.7467 359.643 73.224C360.521 72.6827 361.454 72.412 362.443 72.412C363.433 72.412 364.217 72.5893 364.795 72.944C365.393 73.28 365.841 73.6907 366.139 74.176V66.84H371.683V87H367.259L366.755 85.236C366.363 85.7213 365.813 86.188 365.103 86.636C364.394 87.0653 363.489 87.28 362.387 87.28ZM364.403 83.892C364.739 83.892 365.038 83.808 365.299 83.64C365.561 83.4533 365.766 83.2107 365.915 82.912C366.065 82.6133 366.139 82.2867 366.139 81.932V77.872C366.139 77.4987 366.065 77.172 365.915 76.892C365.766 76.5933 365.561 76.36 365.299 76.192C365.038 76.0053 364.739 75.912 364.403 75.912C363.918 75.912 363.507 76.108 363.171 76.5C362.835 76.8733 362.667 77.3307 362.667 77.872V81.932C362.667 82.2867 362.742 82.6133 362.891 82.912C363.041 83.2107 363.246 83.4533 363.507 83.64C363.787 83.808 364.086 83.892 364.403 83.892ZM381.241 87.28C379.766 87.28 378.45 87.0093 377.293 86.468C376.136 85.9267 375.221 85.1333 374.549 84.088C373.896 83.0427 373.569 81.7733 373.569 80.28V79.412C373.569 77.9187 373.896 76.6493 374.549 75.604C375.202 74.5587 376.108 73.7653 377.265 73.224C378.422 72.6827 379.738 72.412 381.213 72.412H381.913C383.388 72.412 384.638 72.692 385.665 73.252C386.692 73.812 387.476 74.5773 388.017 75.548C388.558 76.5 388.829 77.6013 388.829 78.852V80.588H379.505C379.505 81.1853 379.552 81.736 379.645 82.24C379.757 82.744 379.953 83.1453 380.233 83.444C380.513 83.7427 380.933 83.892 381.493 83.892C381.997 83.892 382.408 83.7987 382.725 83.612C383.042 83.4253 383.276 83.164 383.425 82.828C383.593 82.4733 383.677 82.072 383.677 81.624H388.801C388.801 82.6693 388.512 83.6213 387.933 84.48C387.354 85.3387 386.533 86.02 385.469 86.524C384.405 87.028 383.136 87.28 381.661 87.28H381.241ZM379.505 78.152H383.369C383.369 77.3307 383.182 76.7333 382.809 76.36C382.454 75.9867 381.997 75.8 381.437 75.8C380.858 75.8 380.392 76.0053 380.037 76.416C379.682 76.808 379.505 77.3867 379.505 78.152ZM395.884 92.068V72.692H400.308L400.812 74.344C401.185 73.8587 401.708 73.42 402.38 73.028C403.07 72.6173 403.892 72.412 404.844 72.412C406.001 72.412 407.028 72.6547 407.924 73.14C408.838 73.6253 409.548 74.3813 410.052 75.408C410.574 76.4347 410.836 77.7693 410.836 79.412V80C410.836 81.624 410.565 82.9773 410.024 84.06C409.501 85.1427 408.801 85.9547 407.924 86.496C407.065 87.0187 406.132 87.28 405.124 87.28C404.134 87.28 403.341 87.112 402.744 86.776C402.165 86.4213 401.726 86.0013 401.428 85.516V92.068H395.884ZM403.164 83.892C403.5 83.892 403.798 83.808 404.06 83.64C404.321 83.4533 404.526 83.2107 404.676 82.912C404.825 82.6133 404.9 82.2867 404.9 81.932V77.872C404.9 77.4987 404.825 77.172 404.676 76.892C404.526 76.5933 404.321 76.36 404.06 76.192C403.798 76.0053 403.5 75.912 403.164 75.912C402.846 75.912 402.548 76.0053 402.268 76.192C402.006 76.36 401.801 76.5933 401.652 76.892C401.502 77.172 401.428 77.4987 401.428 77.872V81.932C401.428 82.2867 401.502 82.6133 401.652 82.912C401.801 83.2107 402.006 83.4533 402.268 83.64C402.548 83.808 402.846 83.892 403.164 83.892ZM419.441 87.28C418.023 87.28 416.753 86.9813 415.633 86.384C414.513 85.768 413.627 84.928 412.973 83.864C412.339 82.7813 412.021 81.54 412.021 80.14V79.552C412.021 78.1333 412.339 76.892 412.973 75.828C413.627 74.764 414.513 73.9333 415.633 73.336C416.753 72.72 418.023 72.412 419.441 72.412H420.337C421.756 72.412 423.025 72.72 424.145 73.336C425.265 73.9333 426.143 74.764 426.777 75.828C427.431 76.892 427.757 78.1333 427.757 79.552V80.14C427.757 81.5587 427.431 82.8093 426.777 83.892C426.143 84.956 425.265 85.7867 424.145 86.384C423.025 86.9813 421.756 87.28 420.337 87.28H419.441ZM419.889 83.892C420.263 83.892 420.589 83.808 420.869 83.64C421.168 83.4533 421.401 83.2107 421.569 82.912C421.737 82.6133 421.821 82.2867 421.821 81.932V77.76C421.821 77.3867 421.737 77.06 421.569 76.78C421.401 76.4813 421.168 76.248 420.869 76.08C420.589 75.8933 420.263 75.8 419.889 75.8C419.535 75.8 419.208 75.8933 418.909 76.08C418.611 76.248 418.377 76.4813 418.209 76.78C418.041 77.06 417.957 77.3867 417.957 77.76V81.932C417.957 82.2867 418.041 82.6133 418.209 82.912C418.377 83.2107 418.611 83.4533 418.909 83.64C419.208 83.808 419.535 83.892 419.889 83.892ZM429.613 87V72.692H433.785L434.345 74.764C434.961 73.9427 435.633 73.3453 436.361 72.972C437.107 72.5987 438.013 72.412 439.077 72.412C440.029 72.412 440.85 72.5987 441.541 72.972C442.231 73.3267 442.754 73.8213 443.109 74.456C443.482 75.072 443.669 75.7907 443.669 76.612V87H438.125V78.04C438.125 77.5733 437.975 77.1813 437.677 76.864C437.397 76.528 437.051 76.36 436.641 76.36C436.379 76.36 436.127 76.4347 435.885 76.584C435.661 76.7333 435.483 76.9387 435.353 77.2C435.222 77.4427 435.157 77.7227 435.157 78.04V87H429.613ZM452.03 87.308C451.022 87.308 450.136 87.196 449.37 86.972C448.605 86.7293 447.998 86.3187 447.55 85.74C447.121 85.1613 446.906 84.368 446.906 83.36V76.668H445.338V72.692H447.13L449.062 68.128H452.45V72.692H455.81V76.668H452.45V81.96C452.45 82.7813 452.618 83.3133 452.954 83.556C453.29 83.78 453.654 83.892 454.046 83.892C454.252 83.892 454.532 83.864 454.886 83.808C455.26 83.7333 455.558 83.6493 455.782 83.556V86.692C455.484 86.8227 455.092 86.9347 454.606 87.028C454.14 87.1213 453.673 87.1867 453.206 87.224C452.74 87.28 452.348 87.308 452.03 87.308ZM461.325 87.28C460.56 87.28 459.832 87.1493 459.141 86.888C458.45 86.608 457.89 86.1693 457.461 85.572C457.032 84.9747 456.817 84.172 456.817 83.164C456.817 82.1747 457.032 81.3533 457.461 80.7C457.89 80.0467 458.506 79.5333 459.309 79.16C460.13 78.7867 461.12 78.5253 462.277 78.376C463.434 78.2267 464.741 78.152 466.197 78.152V77.172C466.197 76.6307 466.02 76.248 465.665 76.024C465.31 75.7813 464.881 75.66 464.377 75.66C463.836 75.66 463.397 75.7813 463.061 76.024C462.744 76.2667 462.585 76.584 462.585 76.976V77.088H457.265C457.246 77.0507 457.237 76.9947 457.237 76.92C457.237 76.8453 457.237 76.7707 457.237 76.696C457.237 75.8933 457.508 75.1747 458.049 74.54C458.59 73.8867 459.365 73.3733 460.373 73C461.381 72.608 462.576 72.412 463.957 72.412H464.881C467.14 72.412 468.82 72.8507 469.921 73.728C471.022 74.5867 471.573 75.66 471.573 76.948V82.856C471.573 83.2293 471.666 83.5 471.853 83.668C472.04 83.8173 472.236 83.892 472.441 83.892C472.609 83.892 472.777 83.8733 472.945 83.836C473.113 83.78 473.272 83.7147 473.421 83.64V86.636C473.178 86.8227 472.824 86.972 472.357 87.084C471.909 87.2147 471.321 87.28 470.593 87.28C469.772 87.28 469.072 87.1867 468.493 87C467.914 86.7947 467.457 86.524 467.121 86.188C466.804 85.852 466.589 85.46 466.477 85.012C465.992 85.572 465.329 86.0947 464.489 86.58C463.668 87.0467 462.613 87.28 461.325 87.28ZM464.293 83.892C464.629 83.892 464.937 83.8173 465.217 83.668C465.516 83.5 465.749 83.2667 465.917 82.968C466.104 82.6693 466.197 82.324 466.197 81.932V80.7C465.338 80.7 464.648 80.784 464.125 80.952C463.602 81.1013 463.22 81.316 462.977 81.596C462.734 81.8573 462.613 82.1747 462.613 82.548C462.613 83.0893 462.781 83.4533 463.117 83.64C463.472 83.808 463.864 83.892 464.293 83.892Z" fill="#241B28"/>
<path opacity="0.5" d="M181 135C181 122.85 190.85 113 203 113H460C472.15 113 482 122.85 482 135V195C482 207.15 472.15 217 460 217H203C190.85 217 181 207.15 181 195V135Z" fill="black" fill-opacity="0.2"/>
<path opacity="0.5" d="M181 259C181 246.85 190.85 237 203 237H460C472.15 237 482 246.85 482 259V319C482 331.15 472.15 341 460 341H203C190.85 341 181 331.15 181 319V259Z" fill="black" fill-opacity="0.2"/>
<path d="M181 383C181 370.85 190.85 361 203 361H338C350.15 361 360 370.85 360 383V387C360 399.15 350.15 409 338 409H203C190.85 409 181 399.15 181 387V383Z" fill="#664373"/>
<path d="M196.9 392L201.48 378.28H206.7L211.28 392H206.92L206.1 389.56H201.74L200.94 392H196.9ZM202.7 386.66H205.14L203.98 382.5H203.88L202.7 386.66ZM216.7 392.2C215.806 392.2 214.98 391.98 214.22 391.54C213.46 391.1 212.846 390.507 212.38 389.76C211.926 389.013 211.7 388.193 211.7 387.3V386.48C211.7 385.8 211.833 385.167 212.1 384.58C212.366 383.993 212.733 383.473 213.2 383.02C213.666 382.567 214.2 382.213 214.8 381.96C215.413 381.707 216.06 381.58 216.74 381.58H217.34C218.353 381.58 219.213 381.773 219.92 382.16C220.626 382.533 221.16 383.047 221.52 383.7C221.893 384.353 222.08 385.093 222.08 385.92H218.7C218.7 385.493 218.653 385.14 218.56 384.86C218.466 384.58 218.32 384.367 218.12 384.22C217.92 384.073 217.653 384 217.32 384C216.933 384 216.606 384.14 216.34 384.42C216.073 384.687 215.94 385.013 215.94 385.4V388.38C215.94 388.767 216.053 389.1 216.28 389.38C216.506 389.647 216.866 389.78 217.36 389.78C217.76 389.78 218.073 389.727 218.3 389.62C218.526 389.5 218.686 389.3 218.78 389.02C218.873 388.74 218.92 388.353 218.92 387.86H222.08C222.08 388.78 221.88 389.567 221.48 390.22C221.08 390.86 220.52 391.353 219.8 391.7C219.08 392.033 218.24 392.2 217.28 392.2H216.7ZM228.586 392.2C227.533 392.2 226.593 392.007 225.766 391.62C224.94 391.233 224.286 390.667 223.806 389.92C223.34 389.173 223.106 388.267 223.106 387.2V386.58C223.106 385.513 223.34 384.607 223.806 383.86C224.273 383.113 224.92 382.547 225.746 382.16C226.573 381.773 227.513 381.58 228.566 381.58H229.066C230.12 381.58 231.013 381.78 231.746 382.18C232.48 382.58 233.04 383.127 233.426 383.82C233.813 384.5 234.006 385.287 234.006 386.18V387.42H227.346C227.346 387.847 227.38 388.24 227.446 388.6C227.526 388.96 227.666 389.247 227.866 389.46C228.066 389.673 228.366 389.78 228.766 389.78C229.126 389.78 229.42 389.713 229.646 389.58C229.873 389.447 230.04 389.26 230.146 389.02C230.266 388.767 230.326 388.48 230.326 388.16H233.986C233.986 388.907 233.78 389.587 233.366 390.2C232.953 390.813 232.366 391.3 231.606 391.66C230.846 392.02 229.94 392.2 228.886 392.2H228.586ZM227.346 385.68H230.106C230.106 385.093 229.973 384.667 229.706 384.4C229.453 384.133 229.126 384 228.726 384C228.313 384 227.98 384.147 227.726 384.44C227.473 384.72 227.346 385.133 227.346 385.68ZM239.438 392.2C238.905 392.2 238.371 392.133 237.838 392C237.318 391.88 236.845 391.693 236.418 391.44C235.991 391.173 235.651 390.84 235.398 390.44C235.145 390.04 235.018 389.567 235.018 389.02C235.018 388.953 235.018 388.893 235.018 388.84C235.018 388.787 235.025 388.727 235.038 388.66H238.298C238.285 388.687 238.278 388.713 238.278 388.74C238.278 388.753 238.278 388.773 238.278 388.8C238.278 389.053 238.371 389.253 238.558 389.4C238.745 389.547 238.971 389.647 239.238 389.7C239.505 389.753 239.758 389.78 239.998 389.78C240.131 389.78 240.331 389.773 240.598 389.76C240.865 389.733 241.111 389.68 241.338 389.6C241.578 389.507 241.698 389.36 241.698 389.16C241.698 388.947 241.585 388.787 241.358 388.68C241.131 388.573 240.825 388.493 240.438 388.44C240.065 388.373 239.651 388.313 239.198 388.26C238.745 388.193 238.291 388.1 237.838 387.98C237.385 387.86 236.965 387.687 236.578 387.46C236.205 387.233 235.905 386.927 235.678 386.54C235.451 386.14 235.338 385.633 235.338 385.02C235.338 384.407 235.478 383.88 235.758 383.44C236.051 383 236.431 382.647 236.898 382.38C237.378 382.1 237.891 381.9 238.438 381.78C238.985 381.647 239.518 381.58 240.038 381.58H240.658C241.098 381.58 241.565 381.633 242.058 381.74C242.565 381.847 243.038 382.013 243.478 382.24C243.931 382.467 244.298 382.753 244.578 383.1C244.858 383.447 244.998 383.853 244.998 384.32C244.998 384.413 244.991 384.507 244.978 384.6C244.978 384.693 244.971 384.773 244.958 384.84H241.678V384.74C241.678 384.593 241.631 384.467 241.538 384.36C241.445 384.253 241.325 384.173 241.178 384.12C241.031 384.053 240.878 384.007 240.718 383.98C240.558 383.953 240.411 383.94 240.278 383.94C240.185 383.94 240.051 383.947 239.878 383.96C239.718 383.96 239.551 383.98 239.378 384.02C239.218 384.047 239.078 384.1 238.958 384.18C238.851 384.26 238.798 384.373 238.798 384.52C238.798 384.733 238.911 384.887 239.138 384.98C239.378 385.073 239.685 385.147 240.058 385.2C240.445 385.24 240.865 385.287 241.318 385.34C241.785 385.393 242.245 385.473 242.698 385.58C243.151 385.687 243.565 385.86 243.938 386.1C244.325 386.327 244.631 386.64 244.858 387.04C245.098 387.44 245.218 387.96 245.218 388.6C245.218 389.28 245.078 389.853 244.798 390.32C244.531 390.773 244.171 391.14 243.718 391.42C243.265 391.7 242.758 391.9 242.198 392.02C241.638 392.14 241.065 392.2 240.478 392.2H239.438ZM250.61 392.2C250.077 392.2 249.543 392.133 249.01 392C248.49 391.88 248.017 391.693 247.59 391.44C247.163 391.173 246.823 390.84 246.57 390.44C246.317 390.04 246.19 389.567 246.19 389.02C246.19 388.953 246.19 388.893 246.19 388.84C246.19 388.787 246.197 388.727 246.21 388.66H249.47C249.457 388.687 249.45 388.713 249.45 388.74C249.45 388.753 249.45 388.773 249.45 388.8C249.45 389.053 249.543 389.253 249.73 389.4C249.917 389.547 250.143 389.647 250.41 389.7C250.677 389.753 250.93 389.78 251.17 389.78C251.303 389.78 251.503 389.773 251.77 389.76C252.037 389.733 252.283 389.68 252.51 389.6C252.75 389.507 252.87 389.36 252.87 389.16C252.87 388.947 252.757 388.787 252.53 388.68C252.303 388.573 251.997 388.493 251.61 388.44C251.237 388.373 250.823 388.313 250.37 388.26C249.917 388.193 249.463 388.1 249.01 387.98C248.557 387.86 248.137 387.687 247.75 387.46C247.377 387.233 247.077 386.927 246.85 386.54C246.623 386.14 246.51 385.633 246.51 385.02C246.51 384.407 246.65 383.88 246.93 383.44C247.223 383 247.603 382.647 248.07 382.38C248.55 382.1 249.063 381.9 249.61 381.78C250.157 381.647 250.69 381.58 251.21 381.58H251.83C252.27 381.58 252.737 381.633 253.23 381.74C253.737 381.847 254.21 382.013 254.65 382.24C255.103 382.467 255.47 382.753 255.75 383.1C256.03 383.447 256.17 383.853 256.17 384.32C256.17 384.413 256.163 384.507 256.15 384.6C256.15 384.693 256.143 384.773 256.13 384.84H252.85V384.74C252.85 384.593 252.803 384.467 252.71 384.36C252.617 384.253 252.497 384.173 252.35 384.12C252.203 384.053 252.05 384.007 251.89 383.98C251.73 383.953 251.583 383.94 251.45 383.94C251.357 383.94 251.223 383.947 251.05 383.96C250.89 383.96 250.723 383.98 250.55 384.02C250.39 384.047 250.25 384.1 250.13 384.18C250.023 384.26 249.97 384.373 249.97 384.52C249.97 384.733 250.083 384.887 250.31 384.98C250.55 385.073 250.857 385.147 251.23 385.2C251.617 385.24 252.037 385.287 252.49 385.34C252.957 385.393 253.417 385.473 253.87 385.58C254.323 385.687 254.737 385.86 255.11 386.1C255.497 386.327 255.803 386.64 256.03 387.04C256.27 387.44 256.39 387.96 256.39 388.6C256.39 389.28 256.25 389.853 255.97 390.32C255.703 390.773 255.343 391.14 254.89 391.42C254.437 391.7 253.93 391.9 253.37 392.02C252.81 392.14 252.237 392.2 251.65 392.2H250.61ZM262.742 392.2C261.729 392.2 260.822 391.987 260.022 391.56C259.222 391.12 258.589 390.52 258.122 389.76C257.669 388.987 257.442 388.1 257.442 387.1V386.68C257.442 385.667 257.669 384.78 258.122 384.02C258.589 383.26 259.222 382.667 260.022 382.24C260.822 381.8 261.729 381.58 262.742 381.58H263.382C264.395 381.58 265.302 381.8 266.102 382.24C266.902 382.667 267.529 383.26 267.982 384.02C268.449 384.78 268.682 385.667 268.682 386.68V387.1C268.682 388.113 268.449 389.007 267.982 389.78C267.529 390.54 266.902 391.133 266.102 391.56C265.302 391.987 264.395 392.2 263.382 392.2H262.742ZM263.062 389.78C263.329 389.78 263.562 389.72 263.762 389.6C263.975 389.467 264.142 389.293 264.262 389.08C264.382 388.867 264.442 388.633 264.442 388.38V385.4C264.442 385.133 264.382 384.9 264.262 384.7C264.142 384.487 263.975 384.32 263.762 384.2C263.562 384.067 263.329 384 263.062 384C262.809 384 262.575 384.067 262.362 384.2C262.149 384.32 261.982 384.487 261.862 384.7C261.742 384.9 261.682 385.133 261.682 385.4V388.38C261.682 388.633 261.742 388.867 261.862 389.08C261.982 389.293 262.149 389.467 262.362 389.6C262.575 389.72 262.809 389.78 263.062 389.78ZM277.934 392.2C277.401 392.2 276.868 392.133 276.334 392C275.814 391.88 275.341 391.693 274.914 391.44C274.488 391.173 274.148 390.84 273.894 390.44C273.641 390.04 273.514 389.567 273.514 389.02C273.514 388.953 273.514 388.893 273.514 388.84C273.514 388.787 273.521 388.727 273.534 388.66H276.794C276.781 388.687 276.774 388.713 276.774 388.74C276.774 388.753 276.774 388.773 276.774 388.8C276.774 389.053 276.868 389.253 277.054 389.4C277.241 389.547 277.468 389.647 277.734 389.7C278.001 389.753 278.254 389.78 278.494 389.78C278.628 389.78 278.828 389.773 279.094 389.76C279.361 389.733 279.608 389.68 279.834 389.6C280.074 389.507 280.194 389.36 280.194 389.16C280.194 388.947 280.081 388.787 279.854 388.68C279.628 388.573 279.321 388.493 278.934 388.44C278.561 388.373 278.148 388.313 277.694 388.26C277.241 388.193 276.788 388.1 276.334 387.98C275.881 387.86 275.461 387.687 275.074 387.46C274.701 387.233 274.401 386.927 274.174 386.54C273.948 386.14 273.834 385.633 273.834 385.02C273.834 384.407 273.974 383.88 274.254 383.44C274.548 383 274.928 382.647 275.394 382.38C275.874 382.1 276.388 381.9 276.934 381.78C277.481 381.647 278.014 381.58 278.534 381.58H279.154C279.594 381.58 280.061 381.633 280.554 381.74C281.061 381.847 281.534 382.013 281.974 382.24C282.428 382.467 282.794 382.753 283.074 383.1C283.354 383.447 283.494 383.853 283.494 384.32C283.494 384.413 283.488 384.507 283.474 384.6C283.474 384.693 283.468 384.773 283.454 384.84H280.174V384.74C280.174 384.593 280.128 384.467 280.034 384.36C279.941 384.253 279.821 384.173 279.674 384.12C279.528 384.053 279.374 384.007 279.214 383.98C279.054 383.953 278.908 383.94 278.774 383.94C278.681 383.94 278.548 383.947 278.374 383.96C278.214 383.96 278.048 383.98 277.874 384.02C277.714 384.047 277.574 384.1 277.454 384.18C277.348 384.26 277.294 384.373 277.294 384.52C277.294 384.733 277.408 384.887 277.634 384.98C277.874 385.073 278.181 385.147 278.554 385.2C278.941 385.24 279.361 385.287 279.814 385.34C280.281 385.393 280.741 385.473 281.194 385.58C281.648 385.687 282.061 385.86 282.434 386.1C282.821 386.327 283.128 386.64 283.354 387.04C283.594 387.44 283.714 387.96 283.714 388.6C283.714 389.28 283.574 389.853 283.294 390.32C283.028 390.773 282.668 391.14 282.214 391.42C281.761 391.7 281.254 391.9 280.694 392.02C280.134 392.14 279.561 392.2 278.974 392.2H277.934ZM290.266 392.2C289.213 392.2 288.273 392.007 287.446 391.62C286.619 391.233 285.966 390.667 285.486 389.92C285.019 389.173 284.786 388.267 284.786 387.2V386.58C284.786 385.513 285.019 384.607 285.486 383.86C285.953 383.113 286.599 382.547 287.426 382.16C288.253 381.773 289.193 381.58 290.246 381.58H290.746C291.799 381.58 292.693 381.78 293.426 382.18C294.159 382.58 294.719 383.127 295.106 383.82C295.493 384.5 295.686 385.287 295.686 386.18V387.42H289.026C289.026 387.847 289.059 388.24 289.126 388.6C289.206 388.96 289.346 389.247 289.546 389.46C289.746 389.673 290.046 389.78 290.446 389.78C290.806 389.78 291.099 389.713 291.326 389.58C291.553 389.447 291.719 389.26 291.826 389.02C291.946 388.767 292.006 388.48 292.006 388.16H295.666C295.666 388.907 295.459 389.587 295.046 390.2C294.633 390.813 294.046 391.3 293.286 391.66C292.526 392.02 291.619 392.2 290.566 392.2H290.266ZM289.026 385.68H291.786C291.786 385.093 291.653 384.667 291.386 384.4C291.133 384.133 290.806 384 290.406 384C289.993 384 289.659 384.147 289.406 384.44C289.153 384.72 289.026 385.133 289.026 385.68ZM298.938 395.76C298.498 395.76 298.078 395.647 297.678 395.42C297.291 395.207 296.971 394.92 296.718 394.56C296.464 394.2 296.338 393.8 296.338 393.36C296.338 392.867 296.471 392.42 296.738 392.02C297.018 391.62 297.391 391.307 297.858 391.08C297.564 390.88 297.331 390.627 297.158 390.32C296.984 390.013 296.898 389.687 296.898 389.34C296.898 388.833 297.078 388.387 297.438 388C297.798 387.6 298.231 387.333 298.738 387.2C298.311 387 297.944 386.72 297.638 386.36C297.344 385.987 297.198 385.513 297.198 384.94C297.198 384.34 297.364 383.787 297.698 383.28C298.031 382.773 298.538 382.367 299.218 382.06C299.898 381.74 300.758 381.58 301.798 381.58C302.171 381.58 302.511 381.593 302.818 381.62C303.138 381.633 303.424 381.66 303.678 381.7C304.238 381.327 304.611 380.987 304.798 380.68C304.984 380.36 305.078 380.113 305.078 379.94H308.038C308.038 380.46 307.944 380.9 307.758 381.26C307.584 381.607 307.331 381.887 306.998 382.1C306.678 382.313 306.291 382.487 305.838 382.62L305.818 382.68C306.151 382.96 306.424 383.28 306.638 383.64C306.851 384 306.958 384.38 306.958 384.78C306.958 385.367 306.771 385.907 306.398 386.4C306.038 386.893 305.558 387.287 304.958 387.58C304.358 387.86 303.691 388 302.958 388H301.578C301.164 388 300.871 388.06 300.698 388.18C300.524 388.3 300.438 388.44 300.438 388.6C300.438 388.773 300.511 388.92 300.658 389.04C300.804 389.16 301.111 389.22 301.578 389.22H304.578C305.684 389.22 306.538 389.513 307.138 390.1C307.738 390.687 308.038 391.433 308.038 392.34C308.038 392.94 307.871 393.5 307.538 394.02C307.204 394.54 306.751 394.96 306.178 395.28C305.618 395.6 304.971 395.76 304.238 395.76H298.938ZM300.618 393.48H303.478C303.758 393.48 303.991 393.4 304.178 393.24C304.378 393.08 304.478 392.887 304.478 392.66C304.478 392.433 304.378 392.233 304.178 392.06C303.991 391.9 303.758 391.82 303.478 391.82H300.618C300.338 391.82 300.098 391.9 299.898 392.06C299.711 392.22 299.618 392.413 299.618 392.64C299.618 392.867 299.711 393.06 299.898 393.22C300.098 393.393 300.338 393.48 300.618 393.48ZM302.158 386.06C302.504 386.06 302.791 385.94 303.018 385.7C303.258 385.447 303.378 385.147 303.378 384.8C303.378 384.453 303.258 384.16 303.018 383.92C302.791 383.667 302.504 383.54 302.158 383.54C301.811 383.54 301.518 383.667 301.278 383.92C301.051 384.16 300.938 384.453 300.938 384.8C300.938 385.147 301.051 385.447 301.278 385.7C301.518 385.94 301.811 386.06 302.158 386.06ZM312.255 392.2C311.215 392.2 310.408 391.913 309.835 391.34C309.261 390.753 308.975 389.973 308.975 389V381.78H312.935V388.18C312.935 388.513 313.015 388.8 313.175 389.04C313.348 389.267 313.621 389.38 313.995 389.38C314.195 389.38 314.375 389.327 314.535 389.22C314.695 389.113 314.821 388.967 314.915 388.78C315.008 388.593 315.055 388.393 315.055 388.18V381.78H319.015V389.04C319.015 389.307 319.081 389.5 319.215 389.62C319.348 389.727 319.488 389.78 319.635 389.78C319.755 389.78 319.875 389.767 319.995 389.74C320.115 389.7 320.228 389.653 320.335 389.6V391.74C320.161 391.873 319.908 391.98 319.575 392.06C319.255 392.153 318.835 392.2 318.315 392.2C317.728 392.2 317.235 392.133 316.835 392C316.448 391.88 316.141 391.7 315.915 391.46C315.688 391.207 315.508 390.913 315.375 390.58C315.041 391.087 314.608 391.487 314.075 391.78C313.541 392.06 312.935 392.2 312.255 392.2ZM321.613 392V381.78H324.573L325.013 383.26C325.053 383.18 325.133 383.053 325.253 382.88C325.387 382.693 325.567 382.5 325.793 382.3C326.02 382.1 326.293 381.933 326.613 381.8C326.933 381.653 327.3 381.58 327.713 381.58C328.367 381.58 328.893 381.7 329.293 381.94C329.707 382.167 330.007 382.513 330.193 382.98C330.393 383.433 330.493 383.993 330.493 384.66C330.493 384.82 330.487 385.013 330.473 385.24C330.46 385.467 330.44 385.693 330.413 385.92H327.173V385.44C327.173 385.253 327.14 385.087 327.073 384.94C327.007 384.78 326.913 384.66 326.793 384.58C326.673 384.487 326.52 384.44 326.333 384.44C326.2 384.44 326.073 384.467 325.953 384.52C325.847 384.573 325.76 384.647 325.693 384.74C325.627 384.82 325.573 384.92 325.533 385.04C325.493 385.16 325.473 385.293 325.473 385.44V392H321.613ZM336.57 392.2C335.557 392.2 334.65 391.987 333.85 391.56C333.05 391.12 332.417 390.52 331.95 389.76C331.497 388.987 331.27 388.1 331.27 387.1V386.68C331.27 385.667 331.497 384.78 331.95 384.02C332.417 383.26 333.05 382.667 333.85 382.24C334.65 381.8 335.557 381.58 336.57 381.58H337.21C338.223 381.58 339.13 381.8 339.93 382.24C340.73 382.667 341.357 383.26 341.81 384.02C342.277 384.78 342.51 385.667 342.51 386.68V387.1C342.51 388.113 342.277 389.007 341.81 389.78C341.357 390.54 340.73 391.133 339.93 391.56C339.13 391.987 338.223 392.2 337.21 392.2H336.57ZM336.89 389.78C337.157 389.78 337.39 389.72 337.59 389.6C337.803 389.467 337.97 389.293 338.09 389.08C338.21 388.867 338.27 388.633 338.27 388.38V385.4C338.27 385.133 338.21 384.9 338.09 384.7C337.97 384.487 337.803 384.32 337.59 384.2C337.39 384.067 337.157 384 336.89 384C336.637 384 336.403 384.067 336.19 384.2C335.977 384.32 335.81 384.487 335.69 384.7C335.57 384.9 335.51 385.133 335.51 385.4V388.38C335.51 388.633 335.57 388.867 335.69 389.08C335.81 389.293 335.977 389.467 336.19 389.6C336.403 389.72 336.637 389.78 336.89 389.78Z" fill="#E9E9E9"/>
</g>
<defs>
<filter id="filter0_dddd_29_2263" x="130" y="27" width="423" height="525" filterUnits="userSpaceOnUse" color-interpolation-filters="sRGB">
<feFlood flood-opacity="0" result="BackgroundImageFix"/>
<feColorMatrix in="SourceAlpha" type="matrix" values="0 0 0 0 0 0 0 0 0 0 0 0 0 0 0 0 0 0 127 0" result="hardAlpha"/>
<feOffset dx="1" dy="5"/>
<feGaussianBlur stdDeviation="5.5"/>
<feColorMatrix type="matrix" values="0 0 0 0 0 0 0 0 0 0 0 0 0 0 0 0 0 0 0.08 0"/>
<feBlend mode="normal" in2="BackgroundImageFix" result="effect1_dropShadow_29_2263"/>
<feColorMatrix in="SourceAlpha" type="matrix" values="0 0 0 0 0 0 0 0 0 0 0 0 0 0 0 0 0 0 127 0" result="hardAlpha"/>
<feOffset dx="2" dy="20"/>
<feGaussianBlur stdDeviation="10.5"/>
<feColorMatrix type="matrix" values="0 0 0 0 0 0 0 0 0 0 0 0 0 0 0 0 0 0 0.06 0"/>
<feBlend mode="normal" in2="effect1_dropShadow_29_2263" result="effect2_dropShadow_29_2263"/>
<feColorMatrix in="SourceAlpha" type="matrix" values="0 0 0 0 0 0 0 0 0 0 0 0 0 0 0 0 0 0 127 0" result="hardAlpha"/>
<feOffset dx="5" dy="46"/>
<feGaussianBlur stdDeviation="14"/>
<feColorMatrix type="matrix" values="0 0 0 0 0 0 0 0 0 0 0 0 0 0 0 0 0 0 0.04 0"/>
<feBlend mode="normal" in2="effect2_dropShadow_29_2263" result="effect3_dropShadow_29_2263"/>
<feColorMatrix in="SourceAlpha" type="matrix" values="0 0 0 0 0 0 0 0 0 0 0 0 0 0 0 0 0 0 127 0" result="hardAlpha"/>
<feOffset dx="10" dy="82"/>
<feGaussianBlur stdDeviation="16.5"/>
<feColorMatrix type="matrix" values="0 0 0 0 0 0 0 0 0 0 0 0 0 0 0 0 0 0 0.01 0"/>
<feBlend mode="normal" in2="effect3_dropShadow_29_2263" result="effect4_dropShadow_29_2263"/>
<feBlend mode="normal" in="SourceGraphic" in2="effect4_dropShadow_29_2263" result="shape"/>
</filter>
<linearGradient id="paint0_linear_29_2263" x1="183.776" y1="-0.666667" x2="510.955" y2="401.562" gradientUnits="userSpaceOnUse">
<stop stop-opacity="0"/>
<stop offset="1" stop-color="#928DD3" stop-opacity="0.06"/>
</linearGradient>
</defs>
</svg>
