<svg width="25" height="24" viewBox="0 0 25 24" fill="none" xmlns="http://www.w3.org/2000/svg">
  <path d="M16.8332 15.2499C16.6432 15.2499 16.4532 15.1799 16.3032 15.0299L12.7532 11.4799L11.6632 13.1199C11.5432 13.3099 11.3332 13.4299 11.1132 13.4499C10.8832 13.4699 10.6632 13.3899 10.5132 13.2299L7.3132 10.0299C7.0232 9.73994 7.0232 9.25994 7.3132 8.96994C7.6032 8.67994 8.0832 8.67994 8.3732 8.96994L10.9232 11.5199L12.0132 9.87994C12.1332 9.69994 12.3332 9.57994 12.5632 9.54994C12.7932 9.52994 13.0132 9.60994 13.1632 9.76994L17.3632 13.9699C17.6532 14.2599 17.6532 14.7399 17.3632 15.0299C17.2132 15.1799 17.0232 15.2499 16.8332 15.2499Z" fill="#241B28"/>
  <path d="M16.8333 15.25H14.8333C14.4233 15.25 14.0833 14.91 14.0833 14.5C14.0833 14.09 14.4233 13.75 14.8333 13.75H16.0833V12.5C16.0833 12.09 16.4233 11.75 16.8333 11.75C17.2433 11.75 17.5833 12.09 17.5833 12.5V14.5C17.5833 14.91 17.2433 15.25 16.8333 15.25Z" fill="#241B28"/>
  <path d="M15.3333 22.75H9.33325C3.90325 22.75 1.58325 20.43 1.58325 15V9C1.58325 3.57 3.90325 1.25 9.33325 1.25H15.3333C20.7633 1.25 23.0833 3.57 23.0833 9V15C23.0833 20.43 20.7633 22.75 15.3333 22.75ZM9.33325 2.75C4.72325 2.75 3.08325 4.39 3.08325 9V15C3.08325 19.61 4.72325 21.25 9.33325 21.25H15.3333C19.9433 21.25 21.5833 19.61 21.5833 15V9C21.5833 4.39 19.9433 2.75 15.3333 2.75H9.33325Z" fill="#241B28"/>
</svg>
